<svg xmlns="http://www.w3.org/2000/svg" xmlns:xlink="http://www.w3.org/1999/xlink" width="500" zoomAndPan="magnify" viewBox="0 0 375 374.999991" height="500" preserveAspectRatio="xMidYMid meet" version="1.0"><defs><clipPath id="5f80a2bfaa"><path d="M 49.488281 9.421875 L 325.488281 9.421875 L 325.488281 365.671875 L 49.488281 365.671875 Z M 49.488281 9.421875 " clip-rule="nonzero"/></clipPath></defs><g clip-path="url(#5f80a2bfaa)"><path fill="#646269" d="M 325.488281 338.722656 C 325.488281 243.683594 263.65625 166.6875 187.488281 166.6875 C 111.324219 166.6875 49.488281 243.683594 49.488281 338.722656 C 49.488281 353.542969 111.324219 365.621094 187.488281 365.621094 C 263.65625 365.621094 325.488281 353.542969 325.488281 338.722656 Z M 187.488281 9.472656 C 229.035156 9.472656 262.6875 43.136719 262.6875 84.695312 C 262.6875 126.253906 229.035156 159.921875 187.488281 159.921875 C 145.945312 159.921875 112.289062 126.253906 112.289062 84.695312 C 112.289062 43.136719 145.945312 9.472656 187.488281 9.472656 Z M 187.488281 9.472656 " fill-opacity="1" fill-rule="evenodd"/></g></svg>