<svg xmlns="http://www.w3.org/2000/svg" xmlns:xlink="http://www.w3.org/1999/xlink" width="500" zoomAndPan="magnify" viewBox="0 0 375 374.999991" height="500" preserveAspectRatio="xMidYMid meet" version="1.0"><defs><clipPath id="b13e94dcc7"><path d="M 6.046875 6.046875 L 369.046875 6.046875 L 369.046875 369.046875 L 6.046875 369.046875 Z M 6.046875 6.046875 " clip-rule="nonzero"/></clipPath><clipPath id="7a2096124b"><path d="M 80.402344 74.222656 L 294.902344 74.222656 L 294.902344 300.722656 L 80.402344 300.722656 Z M 80.402344 74.222656 " clip-rule="nonzero"/></clipPath><clipPath id="d9be73ffd6"><path d="M 186 74.222656 L 294.902344 74.222656 L 294.902344 300.722656 L 186 300.722656 Z M 186 74.222656 " clip-rule="nonzero"/></clipPath></defs><g clip-path="url(#b13e94dcc7)"><path fill="#f8d2d3" d="M 369.046875 187.546875 C 369.046875 190.519531 368.976562 193.488281 368.828125 196.453125 C 368.683594 199.421875 368.464844 202.382812 368.175781 205.339844 C 367.882812 208.292969 367.519531 211.242188 367.082031 214.179688 C 366.648438 217.117188 366.140625 220.042969 365.5625 222.957031 C 364.980469 225.871094 364.332031 228.769531 363.609375 231.648438 C 362.886719 234.53125 362.09375 237.390625 361.234375 240.234375 C 360.371094 243.078125 359.4375 245.898438 358.4375 248.695312 C 357.4375 251.492188 356.371094 254.261719 355.234375 257.003906 C 354.097656 259.75 352.890625 262.464844 351.621094 265.148438 C 350.351562 267.835938 349.015625 270.488281 347.617188 273.105469 C 346.21875 275.726562 344.753906 278.308594 343.226562 280.859375 C 341.699219 283.40625 340.109375 285.914062 338.460938 288.382812 C 336.808594 290.855469 335.101562 293.28125 333.332031 295.667969 C 331.5625 298.054688 329.734375 300.394531 327.851562 302.691406 C 325.964844 304.988281 324.027344 307.234375 322.03125 309.4375 C 320.035156 311.636719 317.988281 313.789062 315.886719 315.886719 C 313.789062 317.988281 311.636719 320.035156 309.4375 322.03125 C 307.234375 324.027344 304.988281 325.964844 302.691406 327.851562 C 300.394531 329.734375 298.054688 331.5625 295.667969 333.332031 C 293.28125 335.101562 290.855469 336.808594 288.382812 338.460938 C 285.914062 340.109375 283.40625 341.699219 280.859375 343.226562 C 278.308594 344.753906 275.726562 346.214844 273.105469 347.617188 C 270.488281 349.015625 267.835938 350.351562 265.148438 351.621094 C 262.464844 352.890625 259.75 354.097656 257.003906 355.234375 C 254.261719 356.371094 251.492188 357.4375 248.695312 358.4375 C 245.898438 359.4375 243.078125 360.371094 240.234375 361.234375 C 237.390625 362.09375 234.53125 362.886719 231.648438 363.609375 C 228.769531 364.332031 225.871094 364.980469 222.957031 365.5625 C 220.042969 366.140625 217.117188 366.648438 214.179688 367.082031 C 211.242188 367.519531 208.292969 367.882812 205.339844 368.175781 C 202.382812 368.464844 199.421875 368.683594 196.453125 368.828125 C 193.488281 368.976562 190.519531 369.046875 187.546875 369.046875 C 184.578125 369.046875 181.609375 368.976562 178.644531 368.828125 C 175.675781 368.683594 172.714844 368.464844 169.757812 368.175781 C 166.800781 367.882812 163.855469 367.519531 160.917969 367.082031 C 157.980469 366.648438 155.054688 366.140625 152.140625 365.5625 C 149.226562 364.980469 146.328125 364.332031 143.449219 363.609375 C 140.566406 362.886719 137.703125 362.09375 134.863281 361.234375 C 132.019531 360.371094 129.199219 359.4375 126.402344 358.4375 C 123.605469 357.4375 120.835938 356.371094 118.089844 355.234375 C 115.347656 354.097656 112.632812 352.890625 109.945312 351.621094 C 107.261719 350.351562 104.609375 349.015625 101.988281 347.617188 C 99.371094 346.21875 96.785156 344.753906 94.238281 343.226562 C 91.691406 341.699219 89.183594 340.109375 86.710938 338.460938 C 84.242188 336.808594 81.816406 335.101562 79.429688 333.332031 C 77.042969 331.5625 74.703125 329.734375 72.40625 327.851562 C 70.109375 325.964844 67.859375 324.027344 65.660156 322.03125 C 63.460938 320.035156 61.308594 317.988281 59.207031 315.886719 C 57.109375 313.789062 55.058594 311.636719 53.066406 309.4375 C 51.070312 307.234375 49.132812 304.988281 47.246094 302.691406 C 45.363281 300.394531 43.535156 298.054688 41.765625 295.667969 C 39.996094 293.28125 38.285156 290.855469 36.636719 288.382812 C 34.988281 285.914062 33.398438 283.40625 31.871094 280.859375 C 30.34375 278.308594 28.878906 275.726562 27.480469 273.105469 C 26.078125 270.488281 24.746094 267.835938 23.472656 265.148438 C 22.203125 262.464844 21 259.75 19.863281 257.003906 C 18.726562 254.261719 17.660156 251.492188 16.65625 248.695312 C 15.65625 245.898438 14.726562 243.078125 13.863281 240.234375 C 13 237.390625 12.210938 234.53125 11.488281 231.648438 C 10.765625 228.769531 10.117188 225.871094 9.535156 222.957031 C 8.957031 220.042969 8.449219 217.117188 8.011719 214.179688 C 7.578125 211.242188 7.214844 208.292969 6.921875 205.339844 C 6.632812 202.382812 6.414062 199.421875 6.265625 196.453125 C 6.121094 193.488281 6.046875 190.519531 6.046875 187.546875 C 6.046875 184.578125 6.121094 181.609375 6.265625 178.644531 C 6.414062 175.675781 6.632812 172.714844 6.921875 169.757812 C 7.214844 166.800781 7.578125 163.855469 8.011719 160.917969 C 8.449219 157.980469 8.957031 155.054688 9.535156 152.140625 C 10.117188 149.226562 10.765625 146.328125 11.488281 143.449219 C 12.210938 140.566406 13 137.703125 13.863281 134.863281 C 14.726562 132.019531 15.65625 129.199219 16.65625 126.402344 C 17.660156 123.605469 18.726562 120.835938 19.863281 118.089844 C 21 115.347656 22.203125 112.632812 23.472656 109.945312 C 24.746094 107.261719 26.078125 104.609375 27.480469 101.988281 C 28.878906 99.371094 30.34375 96.785156 31.871094 94.238281 C 33.398438 91.691406 34.988281 89.183594 36.636719 86.710938 C 38.285156 84.242188 39.996094 81.816406 41.765625 79.429688 C 43.535156 77.042969 45.363281 74.703125 47.246094 72.40625 C 49.132812 70.109375 51.070312 67.863281 53.066406 65.660156 C 55.058594 63.460938 57.109375 61.308594 59.207031 59.207031 C 61.308594 57.109375 63.460938 55.058594 65.660156 53.066406 C 67.859375 51.070312 70.109375 49.132812 72.40625 47.246094 C 74.703125 45.363281 77.042969 43.535156 79.429688 41.765625 C 81.816406 39.996094 84.242188 38.285156 86.710938 36.636719 C 89.183594 34.988281 91.691406 33.398438 94.238281 31.871094 C 96.785156 30.34375 99.371094 28.878906 101.988281 27.480469 C 104.609375 26.078125 107.261719 24.746094 109.945312 23.472656 C 112.632812 22.203125 115.347656 21 118.089844 19.863281 C 120.835938 18.726562 123.605469 17.660156 126.402344 16.65625 C 129.199219 15.65625 132.019531 14.726562 134.863281 13.863281 C 137.703125 13 140.566406 12.210938 143.449219 11.488281 C 146.328125 10.765625 149.226562 10.117188 152.140625 9.535156 C 155.054688 8.957031 157.980469 8.449219 160.917969 8.011719 C 163.855469 7.578125 166.800781 7.214844 169.757812 6.921875 C 172.714844 6.632812 175.675781 6.414062 178.644531 6.265625 C 181.609375 6.121094 184.578125 6.046875 187.546875 6.046875 C 190.519531 6.046875 193.488281 6.121094 196.453125 6.265625 C 199.421875 6.414062 202.382812 6.632812 205.339844 6.921875 C 208.292969 7.214844 211.242188 7.578125 214.179688 8.011719 C 217.117188 8.449219 220.042969 8.957031 222.957031 9.535156 C 225.871094 10.117188 228.769531 10.765625 231.648438 11.488281 C 234.53125 12.210938 237.390625 13 240.234375 13.863281 C 243.078125 14.726562 245.898438 15.65625 248.695312 16.65625 C 251.492188 17.660156 254.261719 18.726562 257.003906 19.863281 C 259.75 21 262.464844 22.203125 265.148438 23.472656 C 267.835938 24.746094 270.488281 26.078125 273.105469 27.480469 C 275.726562 28.878906 278.308594 30.34375 280.859375 31.871094 C 283.40625 33.398438 285.914062 34.988281 288.382812 36.636719 C 290.855469 38.285156 293.28125 39.996094 295.667969 41.765625 C 298.054688 43.535156 300.394531 45.363281 302.691406 47.246094 C 304.988281 49.132812 307.234375 51.070312 309.4375 53.066406 C 311.636719 55.058594 313.789062 57.109375 315.886719 59.207031 C 317.988281 61.308594 320.035156 63.460938 322.03125 65.660156 C 324.027344 67.863281 325.964844 70.109375 327.851562 72.40625 C 329.734375 74.703125 331.5625 77.042969 333.332031 79.429688 C 335.101562 81.816406 336.808594 84.242188 338.460938 86.710938 C 340.109375 89.183594 341.699219 91.691406 343.226562 94.238281 C 344.753906 96.785156 346.21875 99.371094 347.617188 101.988281 C 349.015625 104.609375 350.351562 107.261719 351.621094 109.945312 C 352.890625 112.632812 354.097656 115.347656 355.234375 118.089844 C 356.371094 120.835938 357.4375 123.605469 358.4375 126.402344 C 359.4375 129.199219 360.371094 132.019531 361.234375 134.863281 C 362.09375 137.703125 362.886719 140.566406 363.609375 143.449219 C 364.332031 146.328125 364.980469 149.226562 365.5625 152.140625 C 366.140625 155.054688 366.648438 157.980469 367.082031 160.917969 C 367.519531 163.855469 367.882812 166.800781 368.175781 169.757812 C 368.464844 172.714844 368.683594 175.675781 368.828125 178.644531 C 368.976562 181.609375 369.046875 184.578125 369.046875 187.546875 Z M 369.046875 187.546875 " fill-opacity="1" fill-rule="nonzero"/></g><g clip-path="url(#7a2096124b)"><path fill="#e23237" d="M 80.675781 111.769531 L 186.234375 74.21875 L 294.625 111.101562 L 277.082031 250.535156 L 186.234375 300.761719 L 96.8125 251.195312 Z M 80.675781 111.769531 " fill-opacity="1" fill-rule="nonzero"/></g><g clip-path="url(#d9be73ffd6)"><path fill="#b52e31" d="M 294.625 111.101562 L 186.234375 74.21875 L 186.234375 300.753906 L 277.082031 250.605469 L 294.625 111.101562 L 294.625 111.097656 Z M 294.625 111.101562 " fill-opacity="1" fill-rule="nonzero"/></g><path fill="#ffffff" d="M 186.402344 100.671875 L 120.625 246.773438 L 145.195312 246.355469 L 158.402344 213.402344 L 217.402344 213.402344 L 231.867188 246.773438 L 255.351562 247.191406 L 186.402344 100.671875 L 186.402344 100.675781 Z M 186.570312 147.480469 L 208.792969 193.871094 L 167.011719 193.871094 Z M 186.570312 147.480469 " fill-opacity="1" fill-rule="nonzero"/></svg>