<?xml version="1.0" encoding="utf-8"?>
<!-- Generator: Adobe Illustrator 19.2.1, SVG Export Plug-In . SVG Version: 6.00 Build 0)  -->
<svg version="1.1" id="layer" xmlns="http://www.w3.org/2000/svg" xmlns:xlink="http://www.w3.org/1999/xlink" x="0px" y="0px"
	 viewBox="0 0 652 652" style="enable-background:new 0 0 652 652;" xml:space="preserve">
<style type="text/css">
	.st0{fill:#0039A6;}
	.st1{fill:#DE1D37;}
</style>
<polygon class="st0" points="587.6,269 561.2,314.7 534.7,269 501.6,269 544.5,343.4 526.8,374.2 559.9,374.2 620.8,269 "/>
<path class="st0" d="M454,319.2h-30.7V294H454c9.8,0,15.7,4.2,15.7,12.3C469.8,313.7,464.3,319.2,454,319.2z M498.9,305.1
	L498.9,305.1c0.5-9.1-2.9-18.1-9.3-24.6c-7.1-7.2-18.4-11.4-34.2-11.4h-61.1v105.1h29.1v-32h24.2l21.3,32h33.6l-25.2-36.9
	C490.7,332.3,499.4,319.4,498.9,305.1z"/>
<polygon class="st1" points="71,368 85.4,464.2 332.7,427.3 326.4,385.8 312.1,385.8 316.5,415.3 97.3,448.1 85.4,368 "/>
<polygon class="st0" points="307,332.5 357.3,332.5 357.3,309.6 307,309.6 307,293.7 372.2,293.7 372.2,269 278.2,269 278.2,374.2 
	372.9,374.2 372.9,349.4 307,349.4 "/>
<polygon class="st0" points="203.8,334.8 170.3,269 136.7,269 190.2,374.2 217.5,374.2 271,269 237.4,269 "/>
<path class="st0" d="M91.7,302.2l16.5,31.5H75.3L91.7,302.2z M76.1,269L20.8,374.2h33.1l9.5-18.1h56.8l9.5,18.1h33.1L107.4,269
	C107.4,269,76.1,269,76.1,269z"/>
<polygon class="st1" points="295.7,180 48.4,216.9 57.7,278.8 65.7,263.4 68.9,257.6 64.6,228.9 283.8,196.2 292.9,257.1 
	307.2,257.1 "/>
</svg>
