<svg xmlns="http://www.w3.org/2000/svg" xmlns:xlink="http://www.w3.org/1999/xlink" width="500" zoomAndPan="magnify" viewBox="0 0 375 374.999991" height="500" preserveAspectRatio="xMidYMid meet" version="1.0"><defs><clipPath id="793b02f3b1"><path d="M 6.453125 6.453125 L 368.703125 6.453125 L 368.703125 368.703125 L 6.453125 368.703125 Z M 6.453125 6.453125 " clip-rule="nonzero"/></clipPath><clipPath id="cf0608fa36"><path d="M 67 115.105469 L 308 115.105469 L 308 197 L 67 197 Z M 67 115.105469 " clip-rule="nonzero"/></clipPath><clipPath id="684c075348"><path d="M 56 212 L 318 212 L 318 271.105469 L 56 271.105469 Z M 56 212 " clip-rule="nonzero"/></clipPath></defs><g clip-path="url(#793b02f3b1)"><path fill="#ffeed5" d="M 368.703125 187.578125 C 368.703125 190.539062 368.628906 193.503906 368.484375 196.464844 C 368.339844 199.425781 368.121094 202.378906 367.828125 205.328125 C 367.539062 208.28125 367.175781 211.222656 366.742188 214.152344 C 366.304688 217.085938 365.800781 220.003906 365.222656 222.914062 C 364.644531 225.820312 363.992188 228.710938 363.273438 231.585938 C 362.554688 234.460938 361.761719 237.316406 360.902344 240.15625 C 360.042969 242.992188 359.113281 245.804688 358.113281 248.597656 C 357.113281 251.386719 356.046875 254.152344 354.914062 256.890625 C 353.78125 259.628906 352.578125 262.335938 351.3125 265.015625 C 350.042969 267.695312 348.710938 270.34375 347.316406 272.957031 C 345.917969 275.574219 344.457031 278.152344 342.933594 280.695312 C 341.410156 283.234375 339.824219 285.738281 338.175781 288.203125 C 336.53125 290.667969 334.824219 293.089844 333.058594 295.472656 C 331.292969 297.855469 329.46875 300.191406 327.589844 302.480469 C 325.707031 304.773438 323.773438 307.015625 321.78125 309.210938 C 319.789062 311.410156 317.746094 313.554688 315.652344 315.652344 C 313.554688 317.746094 311.410156 319.789062 309.210938 321.78125 C 307.015625 323.773438 304.773438 325.707031 302.480469 327.589844 C 300.191406 329.46875 297.851562 331.292969 295.472656 333.058594 C 293.089844 334.824219 290.667969 336.53125 288.203125 338.175781 C 285.738281 339.824219 283.234375 341.410156 280.695312 342.933594 C 278.152344 344.457031 275.574219 345.917969 272.957031 347.316406 C 270.34375 348.710938 267.695312 350.042969 265.015625 351.3125 C 262.335938 352.578125 259.628906 353.78125 256.890625 354.914062 C 254.152344 356.046875 251.386719 357.113281 248.597656 358.113281 C 245.804688 359.113281 242.992188 360.042969 240.15625 360.902344 C 237.316406 361.761719 234.460938 362.554688 231.585938 363.273438 C 228.710938 363.992188 225.820312 364.644531 222.914062 365.222656 C 220.003906 365.800781 217.085938 366.304688 214.152344 366.742188 C 211.222656 367.175781 208.28125 367.539062 205.328125 367.828125 C 202.378906 368.121094 199.425781 368.339844 196.464844 368.484375 C 193.503906 368.628906 190.539062 368.703125 187.578125 368.703125 C 184.613281 368.703125 181.648438 368.628906 178.6875 368.484375 C 175.730469 368.339844 172.773438 368.121094 169.824219 367.828125 C 166.875 367.539062 163.933594 367.175781 161 366.742188 C 158.066406 366.304688 155.148438 365.800781 152.242188 365.222656 C 149.332031 364.644531 146.441406 363.992188 143.566406 363.273438 C 140.691406 362.554688 137.835938 361.761719 135 360.902344 C 132.164062 360.042969 129.347656 359.113281 126.558594 358.113281 C 123.765625 357.113281 121 356.046875 118.261719 354.914062 C 115.523438 353.78125 112.816406 352.578125 110.136719 351.3125 C 107.457031 350.042969 104.808594 348.710938 102.195312 347.316406 C 99.582031 345.917969 97.003906 344.457031 94.460938 342.933594 C 91.917969 341.410156 89.414062 339.824219 86.949219 338.175781 C 84.484375 336.53125 82.0625 334.824219 79.679688 333.058594 C 77.300781 331.292969 74.964844 329.46875 72.671875 327.589844 C 70.378906 325.707031 68.136719 323.773438 65.941406 321.78125 C 63.742188 319.789062 61.597656 317.746094 59.5 315.652344 C 57.40625 313.554688 55.363281 311.410156 53.371094 309.210938 C 51.382812 307.015625 49.445312 304.773438 47.566406 302.480469 C 45.683594 300.191406 43.863281 297.851562 42.09375 295.472656 C 40.328125 293.089844 38.625 290.667969 36.976562 288.203125 C 35.328125 285.738281 33.746094 283.234375 32.21875 280.695312 C 30.695312 278.152344 29.234375 275.574219 27.839844 272.957031 C 26.441406 270.34375 25.109375 267.695312 23.839844 265.015625 C 22.574219 262.335938 21.375 259.628906 20.238281 256.890625 C 19.105469 254.152344 18.039062 251.386719 17.039062 248.597656 C 16.039062 245.804688 15.109375 242.992188 14.25 240.15625 C 13.390625 237.316406 12.601562 234.460938 11.878906 231.585938 C 11.160156 228.710938 10.511719 225.820312 9.933594 222.914062 C 9.355469 220.003906 8.847656 217.085938 8.410156 214.152344 C 7.976562 211.222656 7.613281 208.28125 7.324219 205.328125 C 7.035156 202.378906 6.816406 199.425781 6.667969 196.464844 C 6.523438 193.503906 6.453125 190.539062 6.453125 187.578125 C 6.453125 184.613281 6.523438 181.648438 6.667969 178.6875 C 6.816406 175.730469 7.035156 172.773438 7.324219 169.824219 C 7.613281 166.875 7.976562 163.933594 8.410156 161 C 8.847656 158.066406 9.355469 155.148438 9.933594 152.242188 C 10.511719 149.332031 11.160156 146.441406 11.878906 143.566406 C 12.601562 140.691406 13.390625 137.835938 14.25 135 C 15.109375 132.164062 16.039062 129.347656 17.039062 126.558594 C 18.039062 123.765625 19.105469 121 20.238281 118.261719 C 21.375 115.523438 22.574219 112.816406 23.839844 110.136719 C 25.109375 107.457031 26.441406 104.808594 27.839844 102.195312 C 29.234375 99.582031 30.695312 97.003906 32.21875 94.460938 C 33.746094 91.917969 35.328125 89.414062 36.976562 86.949219 C 38.625 84.484375 40.328125 82.0625 42.09375 79.679688 C 43.863281 77.300781 45.683594 74.964844 47.566406 72.671875 C 49.445312 70.378906 51.382812 68.136719 53.371094 65.941406 C 55.363281 63.742188 57.40625 61.597656 59.5 59.5 C 61.597656 57.40625 63.742188 55.363281 65.941406 53.371094 C 68.136719 51.382812 70.378906 49.445312 72.671875 47.566406 C 74.964844 45.683594 77.300781 43.863281 79.679688 42.09375 C 82.0625 40.328125 84.484375 38.625 86.949219 36.976562 C 89.414062 35.328125 91.917969 33.746094 94.460938 32.21875 C 97.003906 30.695312 99.582031 29.234375 102.195312 27.839844 C 104.808594 26.441406 107.457031 25.109375 110.136719 23.839844 C 112.816406 22.574219 115.523438 21.375 118.261719 20.238281 C 121 19.105469 123.765625 18.039062 126.558594 17.039062 C 129.347656 16.039062 132.164062 15.109375 135 14.25 C 137.835938 13.390625 140.691406 12.601562 143.566406 11.878906 C 146.441406 11.160156 149.332031 10.511719 152.242188 9.933594 C 155.148438 9.355469 158.066406 8.847656 161 8.410156 C 163.933594 7.976562 166.875 7.613281 169.824219 7.324219 C 172.773438 7.035156 175.730469 6.816406 178.6875 6.667969 C 181.648438 6.523438 184.613281 6.453125 187.578125 6.453125 C 190.539062 6.453125 193.503906 6.523438 196.464844 6.667969 C 199.425781 6.816406 202.378906 7.035156 205.328125 7.324219 C 208.28125 7.613281 211.222656 7.976562 214.152344 8.410156 C 217.085938 8.847656 220.003906 9.355469 222.914062 9.933594 C 225.820312 10.511719 228.710938 11.160156 231.585938 11.878906 C 234.460938 12.601562 237.316406 13.390625 240.15625 14.25 C 242.992188 15.109375 245.804688 16.039062 248.597656 17.039062 C 251.386719 18.039062 254.152344 19.105469 256.890625 20.238281 C 259.628906 21.375 262.335938 22.574219 265.015625 23.839844 C 267.695312 25.109375 270.34375 26.441406 272.957031 27.839844 C 275.574219 29.234375 278.152344 30.695312 280.695312 32.21875 C 283.234375 33.746094 285.738281 35.328125 288.203125 36.976562 C 290.667969 38.625 293.089844 40.328125 295.472656 42.09375 C 297.851562 43.863281 300.191406 45.683594 302.480469 47.566406 C 304.773438 49.445312 307.015625 51.382812 309.210938 53.371094 C 311.410156 55.363281 313.554688 57.40625 315.652344 59.5 C 317.746094 61.597656 319.789062 63.742188 321.78125 65.941406 C 323.773438 68.136719 325.707031 70.378906 327.589844 72.671875 C 329.46875 74.964844 331.292969 77.300781 333.058594 79.679688 C 334.824219 82.0625 336.53125 84.484375 338.175781 86.949219 C 339.824219 89.414062 341.410156 91.917969 342.933594 94.460938 C 344.457031 97.003906 345.917969 99.582031 347.316406 102.195312 C 348.710938 104.808594 350.042969 107.457031 351.3125 110.136719 C 352.578125 112.816406 353.78125 115.523438 354.914062 118.261719 C 356.046875 121 357.113281 123.765625 358.113281 126.558594 C 359.113281 129.347656 360.042969 132.164062 360.902344 135 C 361.761719 137.835938 362.554688 140.691406 363.273438 143.566406 C 363.992188 146.441406 364.644531 149.332031 365.222656 152.242188 C 365.800781 155.148438 366.304688 158.066406 366.742188 161 C 367.175781 163.933594 367.539062 166.875 367.828125 169.824219 C 368.121094 172.773438 368.339844 175.730469 368.484375 178.6875 C 368.628906 181.648438 368.703125 184.613281 368.703125 187.578125 Z M 368.703125 187.578125 " fill-opacity="1" fill-rule="nonzero"/></g><g clip-path="url(#cf0608fa36)"><path fill="#252f3e" d="M 130.128906 171.75 C 130.128906 174.960938 130.476562 177.566406 131.085938 179.472656 C 131.78125 181.382812 132.652344 183.464844 133.867188 185.722656 C 134.304688 186.414062 134.476562 187.109375 134.476562 187.71875 C 134.476562 188.585938 133.957031 189.453125 132.824219 190.320312 L 127.347656 193.964844 C 126.566406 194.484375 125.78125 194.746094 125.085938 194.746094 C 124.21875 194.746094 123.347656 194.3125 122.476562 193.53125 C 121.261719 192.230469 120.21875 190.839844 119.347656 189.453125 C 118.480469 187.976562 117.609375 186.328125 116.652344 184.332031 C 109.871094 192.316406 101.351562 196.308594 91.089844 196.308594 C 83.789062 196.308594 77.960938 194.226562 73.699219 190.0625 C 69.441406 185.894531 67.269531 180.339844 67.269531 173.398438 C 67.269531 166.023438 69.875 160.039062 75.179688 155.527344 C 80.484375 151.015625 87.527344 148.757812 96.480469 148.757812 C 99.4375 148.757812 102.480469 149.019531 105.699219 149.453125 C 108.914062 149.886719 112.21875 150.578125 115.695312 151.359375 L 115.695312 145.027344 C 115.695312 138.429688 114.304688 133.832031 111.609375 131.144531 C 108.828125 128.453125 104.132812 127.152344 97.4375 127.152344 C 94.394531 127.152344 91.265625 127.5 88.046875 128.28125 C 84.832031 129.058594 81.699219 130.015625 78.65625 131.230469 C 77.265625 131.835938 76.222656 132.183594 75.613281 132.359375 C 75.003906 132.53125 74.570312 132.617188 74.222656 132.617188 C 73.003906 132.617188 72.398438 131.75 72.398438 129.929688 L 72.398438 125.675781 C 72.398438 124.289062 72.570312 123.246094 73.003906 122.640625 C 73.441406 122.03125 74.222656 121.425781 75.441406 120.816406 C 78.484375 119.253906 82.136719 117.953125 86.394531 116.914062 C 90.65625 115.785156 95.175781 115.265625 99.957031 115.265625 C 110.304688 115.265625 117.871094 117.605469 122.738281 122.292969 C 127.519531 126.976562 129.957031 134.09375 129.957031 143.640625 L 129.957031 171.75 Z M 94.828125 184.941406 C 97.699219 184.941406 100.65625 184.421875 103.785156 183.378906 C 106.914062 182.335938 109.699219 180.429688 112.042969 177.824219 C 113.4375 176.175781 114.480469 174.355469 115 172.273438 C 115.523438 170.191406 115.871094 167.671875 115.871094 164.722656 L 115.871094 161.078125 C 113.347656 160.472656 110.652344 159.949219 107.871094 159.605469 C 105.089844 159.257812 102.394531 159.082031 99.699219 159.082031 C 93.875 159.082031 89.613281 160.210938 86.742188 162.554688 C 83.875 164.898438 82.484375 168.195312 82.484375 172.53125 C 82.484375 176.609375 83.527344 179.648438 85.699219 181.730469 C 87.785156 183.898438 90.828125 184.941406 94.828125 184.941406 Z M 164.652344 194.3125 C 163.082031 194.3125 162.035156 194.050781 161.339844 193.445312 C 160.652344 192.925781 160.035156 191.707031 159.511719 190.0625 L 139.085938 122.988281 C 138.5625 121.25 138.300781 120.125 138.300781 119.515625 C 138.300781 118.128906 138.996094 117.347656 140.390625 117.347656 L 148.910156 117.347656 C 150.5625 117.347656 151.691406 117.605469 152.300781 118.214844 C 152.996094 118.734375 153.519531 119.949219 154.039062 121.597656 L 168.640625 179.039062 L 182.210938 121.597656 C 182.644531 119.863281 183.164062 118.734375 183.863281 118.214844 C 184.5625 117.695312 185.769531 117.347656 187.339844 117.347656 L 194.292969 117.347656 C 195.945312 117.347656 197.074219 117.605469 197.773438 118.214844 C 198.46875 118.734375 199.074219 119.949219 199.421875 121.597656 L 213.167969 179.734375 L 228.203125 121.597656 C 228.726562 119.863281 229.332031 118.734375 229.949219 118.214844 C 230.636719 117.695312 231.773438 117.347656 233.332031 117.347656 L 241.425781 117.347656 C 242.808594 117.347656 243.589844 118.042969 243.589844 119.515625 C 243.589844 119.949219 243.507812 120.382812 243.425781 120.90625 C 243.332031 121.425781 243.160156 122.121094 242.808594 123.074219 L 221.855469 190.148438 C 221.332031 191.882812 220.726562 193.011719 220.027344 193.53125 C 219.332031 194.054688 218.203125 194.398438 216.726562 194.398438 L 209.25 194.398438 C 207.597656 194.398438 206.46875 194.140625 205.773438 193.53125 C 205.074219 192.925781 204.46875 191.796875 204.121094 190.0625 L 190.644531 134.09375 L 177.257812 189.976562 C 176.816406 191.710938 176.292969 192.839844 175.605469 193.445312 C 174.910156 194.054688 173.6875 194.3125 172.128906 194.3125 Z M 276.371094 196.65625 C 271.847656 196.65625 267.335938 196.132812 262.984375 195.09375 C 258.636719 194.050781 255.242188 192.925781 252.984375 191.621094 C 251.589844 190.839844 250.636719 189.972656 250.289062 189.191406 C 249.9375 188.410156 249.765625 187.542969 249.765625 186.761719 L 249.765625 182.335938 C 249.765625 180.515625 250.460938 179.648438 251.765625 179.648438 C 252.289062 179.648438 252.808594 179.734375 253.332031 179.910156 C 253.855469 180.082031 254.636719 180.429688 255.507812 180.777344 C 258.460938 182.078125 261.683594 183.117188 265.066406 183.8125 C 268.542969 184.507812 271.941406 184.855469 275.417969 184.855469 C 280.894531 184.855469 285.152344 183.898438 288.113281 181.992188 C 291.070312 180.082031 292.628906 177.304688 292.628906 173.746094 C 292.628906 171.316406 291.847656 169.320312 290.289062 167.671875 C 288.71875 166.023438 285.765625 164.550781 281.5 163.160156 L 268.894531 159.257812 C 262.542969 157.261719 257.855469 154.3125 254.984375 150.40625 C 252.113281 146.589844 250.636719 142.335938 250.636719 137.824219 C 250.636719 134.179688 251.414062 130.96875 252.984375 128.191406 C 254.554688 125.414062 256.636719 122.988281 259.242188 121.078125 C 261.855469 119.082031 264.8125 117.605469 268.289062 116.566406 C 271.765625 115.523438 275.417969 115.089844 279.242188 115.089844 C 281.148438 115.089844 283.148438 115.175781 285.070312 115.4375 C 287.070312 115.699219 288.894531 116.046875 290.71875 116.390625 C 292.453125 116.824219 294.105469 117.261719 295.675781 117.78125 C 297.242188 118.300781 298.453125 118.820312 299.324219 119.34375 C 300.546875 120.035156 301.417969 120.730469 301.929688 121.511719 C 302.453125 122.207031 302.71875 123.160156 302.71875 124.375 L 302.71875 128.453125 C 302.71875 130.273438 302.023438 131.230469 300.71875 131.230469 C 300.023438 131.230469 298.894531 130.882812 297.417969 130.1875 C 292.453125 127.933594 286.894531 126.804688 280.71875 126.804688 C 275.765625 126.804688 271.847656 127.585938 269.160156 129.234375 C 266.460938 130.882812 265.066406 133.398438 265.066406 136.957031 C 265.066406 139.386719 265.9375 141.46875 267.683594 143.117188 C 269.417969 144.765625 272.636719 146.414062 277.242188 147.890625 L 289.589844 151.792969 C 295.847656 153.789062 300.371094 156.566406 303.070312 160.125 C 305.757812 163.683594 307.070312 167.761719 307.070312 172.273438 C 307.070312 176.003906 306.28125 179.386719 304.800781 182.335938 C 303.242188 185.289062 301.152344 187.890625 298.453125 189.972656 C 295.765625 192.144531 292.546875 193.703125 288.800781 194.832031 C 284.894531 196.046875 280.8125 196.65625 276.371094 196.65625 Z M 276.371094 196.65625 " fill-opacity="1" fill-rule="nonzero"/></g><g clip-path="url(#684c075348)"><path fill="#ff9900" d="M 292.800781 238.820312 C 264.195312 259.90625 222.644531 271.105469 186.910156 271.105469 C 136.824219 271.105469 91.699219 252.621094 57.621094 221.902344 C 54.921875 219.472656 57.355469 216.179688 60.574219 218.082031 C 97.4375 239.433594 142.910156 252.363281 189.941406 252.363281 C 221.679688 252.363281 256.550781 245.769531 288.625 232.230469 C 293.414062 230.058594 297.496094 235.351562 292.800781 238.820312 Z M 304.722656 225.289062 C 301.070312 220.601562 280.546875 223.035156 271.242188 224.164062 C 268.460938 224.511719 268.019531 222.074219 270.542969 220.253906 C 286.894531 208.800781 313.757812 212.101562 316.886719 215.917969 C 320.023438 219.824219 316.023438 246.632812 300.71875 259.476562 C 298.371094 261.472656 296.105469 260.429688 297.152344 257.828125 C 300.628906 249.242188 308.371094 229.886719 304.722656 225.289062 Z M 304.722656 225.289062 " fill-opacity="1" fill-rule="nonzero"/></g></svg>