<svg xmlns="http://www.w3.org/2000/svg" xmlns:xlink="http://www.w3.org/1999/xlink" width="500" zoomAndPan="magnify" viewBox="0 0 375 374.999991" height="500" preserveAspectRatio="xMidYMid meet" version="1.0"><defs><clipPath id="c968e8c382"><path d="M 5.847656 5.847656 L 368.847656 5.847656 L 368.847656 368.847656 L 5.847656 368.847656 Z M 5.847656 5.847656 " clip-rule="nonzero"/></clipPath><clipPath id="7beee8265e"><path d="M 100 79.636719 L 188 79.636719 L 188 246 L 100 246 Z M 100 79.636719 " clip-rule="nonzero"/></clipPath><clipPath id="81062053e3"><path d="M 99 79.636719 L 190 79.636719 L 190 248 L 99 248 Z M 99 79.636719 " clip-rule="nonzero"/></clipPath><clipPath id="60eb2bff1f"><path d="M 187 79.636719 L 275 79.636719 L 275 246 L 187 246 Z M 187 79.636719 " clip-rule="nonzero"/></clipPath><clipPath id="fee81dac1f"><path d="M 186 79.636719 L 276 79.636719 L 276 248 L 186 248 Z M 186 79.636719 " clip-rule="nonzero"/></clipPath><clipPath id="74083060a5"><path d="M 100 129 L 188 129 L 188 295.636719 L 100 295.636719 Z M 100 129 " clip-rule="nonzero"/></clipPath><clipPath id="7fe14bfd6f"><path d="M 99 127 L 190 127 L 190 295.636719 L 99 295.636719 Z M 99 127 " clip-rule="nonzero"/></clipPath><clipPath id="91596bb3d5"><path d="M 187 129 L 275 129 L 275 295.636719 L 187 295.636719 Z M 187 129 " clip-rule="nonzero"/></clipPath><clipPath id="58f52a314a"><path d="M 186 127 L 276 127 L 276 295.636719 L 186 295.636719 Z M 186 127 " clip-rule="nonzero"/></clipPath></defs><g clip-path="url(#c968e8c382)"><path fill="#d7f1ff" d="M 368.847656 187.347656 C 368.847656 190.316406 368.773438 193.285156 368.628906 196.253906 C 368.480469 199.21875 368.265625 202.179688 367.972656 205.136719 C 367.679688 208.09375 367.316406 211.039062 366.882812 213.976562 C 366.445312 216.917969 365.9375 219.84375 365.359375 222.753906 C 364.78125 225.667969 364.128906 228.566406 363.40625 231.449219 C 362.6875 234.328125 361.894531 237.191406 361.03125 240.035156 C 360.167969 242.875 359.238281 245.695312 358.238281 248.492188 C 357.234375 251.289062 356.167969 254.058594 355.03125 256.804688 C 353.894531 259.546875 352.691406 262.261719 351.421875 264.949219 C 350.152344 267.632812 348.816406 270.285156 347.414062 272.90625 C 346.015625 275.523438 344.550781 278.109375 343.023438 280.65625 C 341.496094 283.203125 339.910156 285.714844 338.257812 288.183594 C 336.609375 290.652344 334.898438 293.082031 333.128906 295.464844 C 331.359375 297.851562 329.53125 300.191406 327.648438 302.488281 C 325.765625 304.785156 323.824219 307.035156 321.828125 309.234375 C 319.835938 311.4375 317.785156 313.585938 315.6875 315.6875 C 313.585938 317.785156 311.4375 319.835938 309.234375 321.828125 C 307.035156 323.824219 304.785156 325.765625 302.488281 327.648438 C 300.191406 329.53125 297.851562 331.359375 295.464844 333.128906 C 293.082031 334.898438 290.652344 336.609375 288.183594 338.257812 C 285.714844 339.910156 283.203125 341.496094 280.65625 343.023438 C 278.109375 344.550781 275.523438 346.015625 272.90625 347.414062 C 270.285156 348.816406 267.632812 350.152344 264.949219 351.421875 C 262.261719 352.691406 259.546875 353.894531 256.804688 355.03125 C 254.058594 356.167969 251.289062 357.234375 248.492188 358.238281 C 245.695312 359.238281 242.875 360.167969 240.035156 361.03125 C 237.191406 361.894531 234.328125 362.6875 231.449219 363.40625 C 228.566406 364.128906 225.667969 364.78125 222.753906 365.359375 C 219.84375 365.9375 216.917969 366.445312 213.976562 366.882812 C 211.039062 367.316406 208.09375 367.679688 205.136719 367.972656 C 202.179688 368.265625 199.21875 368.480469 196.253906 368.628906 C 193.285156 368.773438 190.316406 368.847656 187.347656 368.847656 C 184.375 368.847656 181.40625 368.773438 178.441406 368.628906 C 175.472656 368.480469 172.511719 368.265625 169.558594 367.972656 C 166.601562 367.683594 163.652344 367.316406 160.714844 366.882812 C 157.777344 366.445312 154.851562 365.9375 151.9375 365.359375 C 149.023438 364.78125 146.128906 364.128906 143.246094 363.40625 C 140.363281 362.6875 137.503906 361.894531 134.660156 361.03125 C 131.816406 360.167969 128.996094 359.238281 126.203125 358.238281 C 123.40625 357.234375 120.632812 356.167969 117.890625 355.03125 C 115.144531 353.894531 112.429688 352.691406 109.746094 351.421875 C 107.058594 350.152344 104.40625 348.816406 101.789062 347.414062 C 99.167969 346.015625 96.585938 344.550781 94.035156 343.023438 C 91.488281 341.496094 88.980469 339.910156 86.511719 338.257812 C 84.039062 336.609375 81.613281 334.898438 79.226562 333.128906 C 76.839844 331.359375 74.5 329.53125 72.203125 327.648438 C 69.910156 325.765625 67.660156 323.824219 65.457031 321.828125 C 63.257812 319.835938 61.105469 317.785156 59.007812 315.6875 C 56.90625 313.585938 54.859375 311.4375 52.863281 309.234375 C 50.871094 307.035156 48.929688 304.785156 47.046875 302.488281 C 45.160156 300.191406 43.335938 297.851562 41.566406 295.464844 C 39.796875 293.082031 38.085938 290.652344 36.433594 288.183594 C 34.785156 285.714844 33.195312 283.203125 31.667969 280.65625 C 30.140625 278.109375 28.679688 275.523438 27.277344 272.90625 C 25.878906 270.285156 24.542969 267.632812 23.273438 264.949219 C 22.003906 262.261719 20.800781 259.546875 19.664062 256.804688 C 18.527344 254.058594 17.457031 251.289062 16.457031 248.492188 C 15.457031 245.695312 14.523438 242.875 13.660156 240.035156 C 12.800781 237.191406 12.007812 234.328125 11.285156 231.449219 C 10.5625 228.566406 9.914062 225.667969 9.335938 222.753906 C 8.753906 219.84375 8.246094 216.917969 7.8125 213.976562 C 7.375 211.039062 7.011719 208.09375 6.722656 205.136719 C 6.429688 202.179688 6.210938 199.21875 6.066406 196.253906 C 5.917969 193.285156 5.847656 190.316406 5.847656 187.347656 C 5.847656 184.375 5.917969 181.40625 6.066406 178.441406 C 6.210938 175.472656 6.429688 172.511719 6.722656 169.558594 C 7.011719 166.601562 7.375 163.652344 7.8125 160.714844 C 8.246094 157.777344 8.753906 154.851562 9.335938 151.9375 C 9.914062 149.023438 10.5625 146.128906 11.285156 143.246094 C 12.007812 140.363281 12.800781 137.503906 13.660156 134.660156 C 14.523438 131.816406 15.457031 128.996094 16.457031 126.203125 C 17.457031 123.40625 18.527344 120.632812 19.664062 117.890625 C 20.800781 115.144531 22.003906 112.429688 23.273438 109.746094 C 24.542969 107.058594 25.878906 104.40625 27.277344 101.789062 C 28.679688 99.167969 30.140625 96.585938 31.667969 94.039062 C 33.195312 91.488281 34.785156 88.980469 36.433594 86.511719 C 38.085938 84.039062 39.796875 81.613281 41.566406 79.226562 C 43.335938 76.839844 45.160156 74.5 47.046875 72.203125 C 48.929688 69.910156 50.871094 67.660156 52.863281 65.457031 C 54.859375 63.257812 56.90625 61.105469 59.007812 59.007812 C 61.105469 56.90625 63.257812 54.859375 65.457031 52.863281 C 67.660156 50.871094 69.910156 48.929688 72.203125 47.046875 C 74.5 45.160156 76.839844 43.335938 79.226562 41.566406 C 81.613281 39.796875 84.039062 38.085938 86.511719 36.433594 C 88.980469 34.785156 91.488281 33.195312 94.035156 31.667969 C 96.585938 30.140625 99.167969 28.679688 101.789062 27.277344 C 104.40625 25.878906 107.058594 24.542969 109.746094 23.273438 C 112.429688 22.003906 115.144531 20.800781 117.890625 19.664062 C 120.632812 18.527344 123.40625 17.457031 126.203125 16.457031 C 128.996094 15.457031 131.816406 14.523438 134.660156 13.660156 C 137.503906 12.800781 140.363281 12.007812 143.246094 11.285156 C 146.128906 10.5625 149.023438 9.914062 151.9375 9.335938 C 154.851562 8.753906 157.777344 8.246094 160.714844 7.8125 C 163.652344 7.375 166.601562 7.011719 169.558594 6.722656 C 172.511719 6.429688 175.472656 6.210938 178.441406 6.066406 C 181.40625 5.917969 184.375 5.847656 187.347656 5.847656 C 190.316406 5.847656 193.285156 5.917969 196.253906 6.066406 C 199.21875 6.210938 202.179688 6.429688 205.136719 6.722656 C 208.09375 7.011719 211.039062 7.375 213.976562 7.8125 C 216.917969 8.246094 219.84375 8.753906 222.753906 9.335938 C 225.667969 9.914062 228.566406 10.5625 231.449219 11.285156 C 234.328125 12.007812 237.191406 12.800781 240.035156 13.660156 C 242.875 14.523438 245.695312 15.457031 248.492188 16.457031 C 251.289062 17.457031 254.058594 18.527344 256.804688 19.664062 C 259.546875 20.800781 262.261719 22.003906 264.949219 23.273438 C 267.632812 24.542969 270.285156 25.878906 272.90625 27.277344 C 275.523438 28.679688 278.109375 30.140625 280.65625 31.667969 C 283.203125 33.195312 285.714844 34.785156 288.183594 36.433594 C 290.652344 38.085938 293.082031 39.796875 295.464844 41.566406 C 297.851562 43.335938 300.191406 45.160156 302.488281 47.046875 C 304.785156 48.929688 307.035156 50.871094 309.234375 52.863281 C 311.4375 54.859375 313.585938 56.90625 315.6875 59.007812 C 317.785156 61.105469 319.835938 63.257812 321.828125 65.457031 C 323.824219 67.660156 325.765625 69.910156 327.648438 72.203125 C 329.53125 74.5 331.359375 76.839844 333.128906 79.226562 C 334.898438 81.613281 336.609375 84.039062 338.257812 86.511719 C 339.910156 88.980469 341.496094 91.488281 343.023438 94.035156 C 344.550781 96.585938 346.015625 99.167969 347.414062 101.789062 C 348.816406 104.40625 350.152344 107.058594 351.421875 109.746094 C 352.691406 112.429688 353.894531 115.144531 355.03125 117.890625 C 356.167969 120.632812 357.234375 123.40625 358.238281 126.203125 C 359.238281 128.996094 360.167969 131.816406 361.03125 134.660156 C 361.894531 137.503906 362.6875 140.363281 363.40625 143.246094 C 364.128906 146.128906 364.78125 149.023438 365.359375 151.9375 C 365.9375 154.851562 366.445312 157.777344 366.882812 160.714844 C 367.316406 163.652344 367.679688 166.601562 367.972656 169.558594 C 368.265625 172.511719 368.480469 175.472656 368.628906 178.441406 C 368.773438 181.40625 368.847656 184.375 368.847656 187.347656 Z M 368.847656 187.347656 " fill-opacity="1" fill-rule="nonzero"/></g><g clip-path="url(#7beee8265e)"><path fill="#002a41" d="M 100.851562 79.839844 L 100.851562 196.433594 L 187.636719 245.910156 L 187.636719 212.273438 L 129.585938 179.179688 L 129.585938 127.203125 L 187.636719 160.300781 L 187.636719 129.25 Z M 100.851562 79.839844 " fill-opacity="1" fill-rule="evenodd"/></g><g clip-path="url(#81062053e3)"><path stroke-linecap="butt" transform="matrix(6.75, 0, 0, 6.75, 79.637094, 79.63709)" fill="none" stroke-linejoin="miter" d="M 3.142884 0.0300376 L 3.142884 17.303187 L 15.999945 24.633048 L 15.999945 19.649831 L 7.399829 14.747052 L 7.399829 7.04682 L 15.999945 11.950177 L 15.999945 7.350061 Z M 3.142884 0.0300376 " stroke="#848484" stroke-width="0.036" stroke-opacity="1" stroke-miterlimit="4"/></g><g clip-path="url(#60eb2bff1f)"><path fill="#0071b5" d="M 274.421875 79.839844 L 274.421875 196.433594 L 187.636719 245.910156 L 187.636719 212.273438 L 245.6875 179.179688 L 245.6875 127.203125 L 187.636719 160.300781 L 187.636719 129.25 Z M 274.421875 79.839844 " fill-opacity="1" fill-rule="evenodd"/></g><g clip-path="url(#fee81dac1f)"><path stroke-linecap="butt" transform="matrix(6.75, 0, 0, 6.75, 79.637094, 79.63709)" fill="none" stroke-linejoin="miter" d="M 28.857006 0.0300376 L 28.857006 17.303187 L 15.999945 24.633048 L 15.999945 19.649831 L 24.600062 14.747052 L 24.600062 7.04682 L 15.999945 11.950177 L 15.999945 7.350061 Z M 28.857006 0.0300376 " stroke="#848484" stroke-width="0.036" stroke-opacity="1" stroke-miterlimit="4"/></g><g clip-path="url(#74083060a5)"><path fill="#0071b5" d="M 100.851562 295.433594 L 100.851562 178.835938 L 187.636719 129.363281 L 187.636719 162.992188 L 129.585938 196.089844 L 129.585938 245.363281 L 187.636719 212.34375 L 187.636719 245.96875 Z M 100.851562 295.433594 " fill-opacity="1" fill-rule="evenodd"/></g><g clip-path="url(#7fe14bfd6f)"><path stroke-linecap="butt" transform="matrix(6.75, 0, 0, 6.75, 79.637094, 79.63709)" fill="none" stroke-linejoin="miter" d="M 3.142884 31.969855 L 3.142884 14.696127 L 15.999945 7.366844 L 15.999945 12.348904 L 7.399829 17.252261 L 7.399829 24.55203 L 15.999945 19.660247 L 15.999945 24.641729 Z M 3.142884 31.969855 " stroke="#848484" stroke-width="0.036" stroke-opacity="1" stroke-miterlimit="4"/></g><g clip-path="url(#91596bb3d5)"><path fill="#002a41" d="M 274.421875 295.433594 L 274.421875 178.835938 L 187.636719 129.363281 L 187.636719 162.992188 L 245.6875 196.089844 L 245.6875 245.363281 L 187.636719 212.34375 L 187.636719 245.96875 Z M 274.421875 295.433594 " fill-opacity="1" fill-rule="evenodd"/></g><g clip-path="url(#58f52a314a)"><path stroke-linecap="butt" transform="matrix(6.75, 0, 0, 6.75, 79.637094, 79.63709)" fill="none" stroke-linejoin="miter" d="M 28.857006 31.969855 L 28.857006 14.696127 L 15.999945 7.366844 L 15.999945 12.348904 L 24.600062 17.252261 L 24.600062 24.55203 L 15.999945 19.660247 L 15.999945 24.641729 Z M 28.857006 31.969855 " stroke="#848484" stroke-width="0.036" stroke-opacity="1" stroke-miterlimit="4"/></g></svg>