<svg xmlns="http://www.w3.org/2000/svg" xmlns:xlink="http://www.w3.org/1999/xlink" width="500" zoomAndPan="magnify" viewBox="0 0 375 374.999991" height="500" preserveAspectRatio="xMidYMid meet" version="1.0"><defs><g/><clipPath id="f3af392e36"><path d="M 187.5 0 C 83.945312 0 0 83.945312 0 187.5 C 0 291.054688 83.945312 375 187.5 375 C 291.054688 375 375 291.054688 375 187.5 C 375 83.945312 291.054688 0 187.5 0 " clip-rule="nonzero"/></clipPath><clipPath id="1eb90bfa25"><path d="M 194.972656 105 L 335 105 L 335 238 L 194.972656 238 Z M 194.972656 105 " clip-rule="nonzero"/></clipPath></defs><g clip-path="url(#f3af392e36)"><rect x="-37.5" width="450" fill="#d5fffb" y="-37.499999" height="449.999989" fill-opacity="1"/></g><g clip-path="url(#1eb90bfa25)"><path fill="#ff914d" d="M 326.542969 124.582031 L 315.945312 113.992188 L 280.726562 149.136719 L 291.335938 159.710938 Z M 268.777344 161.0625 L 268.777344 171.636719 L 279.386719 171.636719 L 285.542969 165.507812 L 274.933594 154.917969 Z M 316.875 145.792969 L 285.183594 177.429688 C 283.644531 178.96875 281.558594 179.820312 279.386719 179.820312 L 268.777344 179.820312 C 264.25 179.820312 260.578125 176.15625 260.578125 171.636719 L 260.578125 161.0625 C 260.578125 158.882812 261.445312 156.800781 262.984375 155.265625 L 286.996094 131.316406 C 244.332031 121.757812 203.171875 144.875 203.171875 175.734375 C 203.171875 207.199219 228.847656 228.933594 264.683594 228.933594 C 266.941406 228.933594 268.777344 230.765625 268.777344 233.019531 C 268.777344 235.285156 266.941406 237.117188 264.683594 237.117188 C 224.589844 237.117188 194.972656 212.054688 194.972656 175.734375 C 194.972656 137.65625 244.78125 110.933594 293.746094 124.582031 L 310.136719 108.210938 C 313.351562 105.015625 318.539062 105.015625 321.738281 108.210938 L 332.335938 118.796875 C 335.550781 121.992188 335.550781 127.167969 332.335938 130.363281 L 322.683594 140.011719 C 348.691406 165.890625 329.183594 209.664062 289.785156 214.582031 C 266.78125 217.441406 249.84375 213.765625 239.234375 203.175781 C 237.632812 201.578125 237.632812 198.992188 239.234375 197.394531 C 240.832031 195.796875 243.425781 195.796875 245.027344 197.394531 C 253.554688 205.902344 268.046875 209.046875 288.78125 206.457031 C 321.75 202.347656 337.695312 166.683594 316.875 145.792969 " fill-opacity="1" fill-rule="nonzero"/></g><g fill="#7530ff" fill-opacity="1"><g transform="translate(19.668843, 233.250269)"><g><path d="M 36.34375 0 L 13.296875 0 L 13.296875 -113.78125 L 31.59375 -113.78125 L 36.34375 -104.046875 C 39.195312 -107.367188 42.601562 -110.253906 46.5625 -112.703125 C 50.519531 -115.160156 55.347656 -116.390625 61.046875 -116.390625 C 63.265625 -116.390625 65.757812 -116.113281 68.53125 -115.5625 C 71.300781 -115.007812 74.148438 -114.0625 77.078125 -112.71875 C 80.015625 -111.375 82.828125 -109.550781 85.515625 -107.25 C 88.210938 -104.957031 90.507812 -101.988281 92.40625 -98.34375 C 95.09375 -103.25 99.164062 -107.484375 104.625 -111.046875 C 110.09375 -114.609375 115.914062 -116.390625 122.09375 -116.390625 C 126.21875 -116.390625 130.570312 -115.753906 135.15625 -114.484375 C 139.75 -113.222656 144.023438 -110.847656 147.984375 -107.359375 C 151.953125 -103.878906 155.203125 -99.050781 157.734375 -92.875 C 160.265625 -86.695312 161.53125 -78.703125 161.53125 -68.890625 L 161.53125 0 L 139.921875 0 L 139.921875 -69.125 C 139.921875 -78.945312 137.898438 -85.796875 133.859375 -89.671875 C 129.816406 -93.554688 124.472656 -95.5 117.828125 -95.5 C 112.753906 -95.5 108.316406 -93.359375 104.515625 -89.078125 C 100.710938 -84.804688 98.8125 -78.078125 98.8125 -68.890625 L 98.8125 0 L 77.203125 0 L 77.203125 -69.125 C 77.203125 -78.945312 75.179688 -85.796875 71.140625 -89.671875 C 67.109375 -93.554688 61.765625 -95.5 55.109375 -95.5 C 50.359375 -95.5 46.203125 -93.675781 42.640625 -90.03125 C 39.078125 -86.382812 36.976562 -80.679688 36.34375 -72.921875 Z M 36.34375 0 "/></g></g></g></svg>