<svg xmlns="http://www.w3.org/2000/svg" xmlns:xlink="http://www.w3.org/1999/xlink" width="500" zoomAndPan="magnify" viewBox="0 0 375 374.999991" height="500" preserveAspectRatio="xMidYMid meet" version="1.0"><defs><clipPath id="d953070428"><path d="M 8.699219 73 L 366.449219 73 L 366.449219 349.703125 L 8.699219 349.703125 Z M 8.699219 73 " clip-rule="nonzero"/></clipPath><clipPath id="caefbc0e03"><path d="M 90 24.953125 L 286 24.953125 L 286 107 L 90 107 Z M 90 24.953125 " clip-rule="nonzero"/></clipPath></defs><g clip-path="url(#d953070428)"><path fill="#646269" d="M 8.699219 122.378906 C 8.699219 95.472656 30.539062 73.664062 57.480469 73.664062 L 317.664062 73.664062 C 344.605469 73.664062 366.449219 95.472656 366.449219 122.378906 L 366.449219 300.988281 C 366.449219 327.894531 344.605469 349.703125 317.664062 349.703125 L 57.480469 349.703125 C 30.539062 349.703125 8.699219 327.894531 8.699219 300.988281 Z M 57.480469 106.140625 C 48.5 106.140625 41.21875 113.410156 41.21875 122.378906 L 41.21875 300.988281 C 41.21875 309.957031 48.5 317.226562 57.480469 317.226562 L 317.664062 317.226562 C 326.644531 317.226562 333.925781 309.957031 333.925781 300.988281 L 333.925781 122.378906 C 333.925781 113.410156 326.644531 106.140625 317.664062 106.140625 Z M 57.480469 106.140625 " fill-opacity="1" fill-rule="evenodd"/></g><path fill="#646269" d="M 19.292969 134.191406 C 11.597656 103.445312 34.882812 73.664062 66.621094 73.664062 L 308.539062 73.664062 C 340.277344 73.664062 363.5625 103.449219 355.867188 134.191406 L 347.734375 166.667969 C 342.308594 188.351562 322.792969 203.566406 300.410156 203.566406 L 74.75 203.566406 C 52.367188 203.566406 32.851562 188.351562 27.425781 166.667969 Z M 66.621094 106.140625 C 56.042969 106.140625 48.277344 116.066406 50.84375 126.316406 L 58.976562 158.789062 C 60.785156 166.019531 67.289062 171.089844 74.75 171.089844 L 300.410156 171.089844 C 307.871094 171.089844 314.375 166.019531 316.183594 158.789062 L 324.316406 126.316406 C 326.878906 116.066406 319.117188 106.140625 308.539062 106.140625 Z M 66.621094 106.140625 " fill-opacity="1" fill-rule="evenodd"/><g clip-path="url(#caefbc0e03)"><path fill="#646269" d="M 90.003906 73.664062 C 90.003906 46.761719 111.84375 24.953125 138.789062 24.953125 L 236.355469 24.953125 C 263.300781 24.953125 285.140625 46.761719 285.140625 73.664062 L 285.140625 89.902344 C 285.140625 98.871094 277.859375 106.140625 268.878906 106.140625 L 106.265625 106.140625 C 97.285156 106.140625 90.003906 98.871094 90.003906 89.902344 Z M 138.789062 57.425781 C 129.808594 57.425781 122.527344 64.699219 122.527344 73.664062 L 252.617188 73.664062 C 252.617188 64.699219 245.335938 57.425781 236.355469 57.425781 Z M 138.789062 57.425781 " fill-opacity="1" fill-rule="evenodd"/></g><path fill="#646269" d="M 252.617188 146.734375 L 285.140625 146.734375 L 285.140625 227.921875 L 252.617188 227.921875 Z M 252.617188 146.734375 " fill-opacity="1" fill-rule="evenodd"/><path fill="#646269" d="M 90.003906 146.734375 L 122.527344 146.734375 L 122.527344 227.921875 L 90.003906 227.921875 Z M 90.003906 146.734375 " fill-opacity="1" fill-rule="evenodd"/></svg>