<svg xmlns="http://www.w3.org/2000/svg" xmlns:xlink="http://www.w3.org/1999/xlink" width="500" zoomAndPan="magnify" viewBox="0 0 375 374.999991" height="500" preserveAspectRatio="xMidYMid meet" version="1.0"><path fill="#646269" d="M 295.238281 237.390625 C 285.8125 232 273.941406 233.59375 266.253906 241.269531 L 238.929688 268.597656 C 234.3125 273.210938 227.273438 274.339844 221.433594 271.402344 C 189.054688 255.128906 153.570312 221.183594 153.570312 221.183594 C 153.570312 221.183594 119.625 185.699219 103.351562 153.316406 C 100.414062 147.480469 101.539062 140.449219 106.15625 135.824219 L 133.480469 108.496094 C 141.167969 100.8125 142.75 88.949219 137.363281 79.511719 L 104.609375 22.167969 C 99.777344 13.699219 90.3125 8.980469 80.640625 10.222656 L 63.902344 12.355469 C 54.042969 13.617188 45.316406 19.117188 39.804688 27.390625 C 27.472656 45.882812 9.09375 81.640625 17.972656 120.816406 C 30.867188 177.761719 71.773438 232.503906 107.003906 267.738281 C 142.238281 302.972656 196.980469 343.875 253.925781 356.773438 C 293.105469 365.652344 328.859375 347.269531 347.351562 334.941406 C 355.625 329.429688 361.128906 320.699219 362.386719 310.84375 L 364.523438 294.101562 C 365.753906 284.429688 361.035156 274.976562 352.574219 270.132812 Z M 295.238281 237.390625 " fill-opacity="1" fill-rule="nonzero"/></svg>