<svg xmlns="http://www.w3.org/2000/svg" xmlns:xlink="http://www.w3.org/1999/xlink" width="500" zoomAndPan="magnify" viewBox="0 0 375 374.999991" height="500" preserveAspectRatio="xMidYMid meet" version="1.0"><defs><clipPath id="2d2ea23a03"><path d="M 16.746094 17.417969 L 357.996094 17.417969 L 357.996094 357.917969 L 16.746094 357.917969 Z M 16.746094 17.417969 " clip-rule="nonzero"/></clipPath><clipPath id="ee3ed2f003"><path d="M 58.371094 61 L 316.371094 61 L 316.371094 313 L 58.371094 313 Z M 58.371094 61 " clip-rule="nonzero"/></clipPath></defs><g clip-path="url(#2d2ea23a03)"><path fill="#1e1e1c" d="M 54.21875 17.417969 L 320.519531 17.417969 C 341.214844 17.417969 357.992188 34.222656 357.992188 54.953125 L 357.992188 320.378906 C 357.992188 341.109375 341.214844 357.917969 320.519531 357.917969 L 54.21875 357.917969 C 33.523438 357.917969 16.746094 341.109375 16.746094 320.378906 L 16.746094 54.953125 C 16.746094 34.222656 33.523438 17.417969 54.21875 17.417969 " fill-opacity="1" fill-rule="nonzero"/></g><g clip-path="url(#ee3ed2f003)"><path fill="#ffffff" d="M 187.371094 61.042969 C 116.136719 61.042969 58.371094 118.777344 58.371094 189.996094 C 58.371094 246.980469 95.332031 295.316406 146.589844 312.363281 C 153.035156 313.5625 155.402344 309.5625 155.402344 306.15625 C 155.402344 303.085938 155.285156 292.929688 155.226562 282.148438 C 119.339844 289.957031 111.765625 266.9375 111.765625 266.9375 C 105.898438 252.027344 97.441406 248.066406 97.441406 248.066406 C 85.738281 240.070312 98.324219 240.230469 98.324219 240.230469 C 111.277344 241.136719 118.101562 253.519531 118.101562 253.519531 C 129.605469 273.234375 148.277344 267.53125 155.640625 264.238281 C 156.796875 255.90625 160.140625 250.214844 163.828125 246.988281 C 135.175781 243.734375 105.058594 232.671875 105.058594 183.269531 C 105.058594 169.183594 110.097656 157.679688 118.347656 148.648438 C 117.007812 145.402344 112.59375 132.285156 119.597656 114.523438 C 119.597656 114.523438 130.429688 111.054688 155.082031 127.742188 C 165.371094 124.882812 176.40625 123.453125 187.371094 123.402344 C 198.335938 123.453125 209.378906 124.882812 219.691406 127.742188 C 244.3125 111.054688 255.125 114.523438 255.125 114.523438 C 262.148438 132.285156 257.734375 145.402344 256.394531 148.648438 C 264.660156 157.679688 269.667969 169.183594 269.667969 183.269531 C 269.667969 232.792969 239.496094 243.695312 210.761719 246.890625 C 215.386719 250.890625 219.519531 258.738281 219.519531 270.777344 C 219.519531 288.023438 219.367188 301.917969 219.367188 306.15625 C 219.367188 309.59375 221.6875 313.613281 228.226562 312.34375 C 279.453125 295.277344 316.371094 246.960938 316.371094 189.996094 C 316.371094 118.777344 258.613281 61.042969 187.371094 61.042969 Z M 106.6875 244.742188 C 106.402344 245.386719 105.394531 245.578125 104.472656 245.136719 C 103.539062 244.714844 103.011719 243.847656 103.316406 243.203125 C 103.59375 242.535156 104.605469 242.355469 105.539062 242.796875 C 106.476562 243.222656 107.011719 244.097656 106.6875 244.742188 Z M 113.03125 250.40625 C 112.414062 250.96875 111.210938 250.707031 110.394531 249.8125 C 109.554688 248.902344 109.394531 247.707031 110.019531 247.128906 C 110.652344 246.554688 111.820312 246.828125 112.664062 247.726562 C 113.507812 248.632812 113.675781 249.832031 113.03125 250.40625 Z M 117.382812 257.648438 C 116.59375 258.191406 115.300781 257.679688 114.503906 256.53125 C 113.710938 255.382812 113.710938 254.011719 114.519531 253.457031 C 115.320312 252.902344 116.59375 253.40625 117.402344 254.546875 C 118.191406 255.703125 118.191406 257.085938 117.382812 257.648438 Z M 124.746094 266.03125 C 124.039062 266.804688 122.53125 266.605469 121.429688 265.539062 C 120.300781 264.5 119.988281 263.019531 120.699219 262.242188 C 121.414062 261.46875 122.929688 261.679688 124.039062 262.738281 C 125.15625 263.773438 125.5 265.265625 124.746094 266.03125 Z M 134.261719 268.863281 C 133.949219 269.871094 132.5 270.332031 131.039062 269.898438 C 129.578125 269.464844 128.625 268.277344 128.917969 267.261719 C 129.222656 266.242188 130.679688 265.757812 132.148438 266.222656 C 133.605469 266.664062 134.566406 267.835938 134.261719 268.863281 Z M 145.089844 270.0625 C 145.125 271.128906 143.886719 272.003906 142.351562 272.023438 C 140.808594 272.066406 139.5625 271.199219 139.546875 270.152344 C 139.546875 269.082031 140.757812 268.207031 142.300781 268.1875 C 143.832031 268.15625 145.089844 269.003906 145.089844 270.0625 Z M 155.726562 269.65625 C 155.910156 270.695312 154.84375 271.761719 153.320312 272.046875 C 151.824219 272.316406 150.4375 271.671875 150.246094 270.644531 C 150.0625 269.585938 151.148438 268.519531 152.640625 268.246094 C 154.167969 267.976562 155.53125 268.601562 155.726562 269.65625 Z M 155.726562 269.65625 " fill-opacity="1" fill-rule="nonzero"/></g></svg>