<svg xmlns="http://www.w3.org/2000/svg" xmlns:xlink="http://www.w3.org/1999/xlink" width="500" zoomAndPan="magnify" viewBox="0 0 375 374.999991" height="500" preserveAspectRatio="xMidYMid meet" version="1.0"><path fill="#e535ab" d="M 218.394531 47.234375 L 293.191406 90.46875 C 295.300781 88.234375 297.757812 86.265625 300.550781 84.640625 C 316.070312 75.714844 335.847656 81.015625 344.867188 96.546875 C 353.78125 112.078125 348.484375 131.882812 332.964844 140.90625 C 330.195312 142.503906 327.289062 143.644531 324.328125 144.351562 L 324.328125 230.851562 C 327.261719 231.5625 330.132812 232.699219 332.878906 234.28125 C 348.484375 243.296875 353.78125 263.113281 344.765625 278.632812 C 335.847656 294.167969 315.96875 299.472656 300.460938 290.535156 C 297.363281 288.761719 294.683594 286.546875 292.445312 284.027344 L 218.089844 327 C 219.152344 330.214844 219.734375 333.644531 219.734375 337.230469 C 219.734375 355.082031 205.242188 369.679688 187.308594 369.679688 C 169.375 369.679688 154.882812 355.171875 154.882812 337.230469 C 154.882812 334.039062 155.347656 330.949219 156.195312 328.050781 L 81.414062 284.824219 C 79.332031 287.003906 76.90625 288.941406 74.160156 290.535156 C 58.550781 299.472656 38.765625 294.167969 29.847656 278.632812 C 20.929688 263.113281 26.222656 243.296875 41.738281 234.28125 C 44.480469 232.699219 47.355469 231.5625 50.285156 230.851562 L 50.285156 144.351562 C 47.324219 143.644531 44.414062 142.503906 41.644531 140.90625 C 26.128906 131.976562 20.835938 112.078125 29.753906 96.546875 C 38.671875 81.015625 58.550781 75.714844 74.066406 84.640625 C 76.839844 86.253906 79.289062 88.214844 81.390625 90.433594 L 156.207031 47.183594 C 155.347656 44.261719 154.882812 41.164062 154.882812 37.957031 C 154.882812 20.007812 169.375 5.5 187.308594 5.5 C 205.242188 5.5 219.734375 20.007812 219.734375 37.957031 C 219.734375 41.179688 219.269531 44.292969 218.394531 47.234375 Z M 210.589844 60.554688 L 285.578125 103.894531 C 283.261719 112.042969 284.109375 121.078125 288.664062 129 C 293.226562 136.945312 300.664062 142.226562 308.910156 144.277344 L 308.910156 230.890625 C 308.492188 230.992188 308.074219 231.105469 307.660156 231.21875 L 209.730469 61.421875 C 210.023438 61.136719 210.3125 60.847656 210.589844 60.554688 Z M 164.910156 61.441406 L 66.980469 231.25 C 66.558594 231.121094 66.132812 231.007812 65.703125 230.894531 L 65.703125 144.28125 C 73.957031 142.230469 81.390625 136.949219 85.957031 129.007812 C 90.515625 121.070312 91.359375 112.011719 89.027344 103.851562 L 163.988281 60.523438 C 164.289062 60.835938 164.59375 61.144531 164.910156 61.445312 Z M 196.363281 69.132812 L 294.277344 238.890625 C 292.078125 240.980469 290.15625 243.425781 288.5625 246.183594 C 286.992188 248.917969 285.855469 251.804688 285.148438 254.742188 L 89.46875 254.742188 C 88.757812 251.804688 87.628906 248.933594 86.050781 246.183594 C 84.457031 243.4375 82.53125 241.019531 80.351562 238.929688 L 178.277344 69.144531 C 181.136719 69.96875 184.171875 70.410156 187.308594 70.410156 C 190.457031 70.410156 193.492188 69.964844 196.363281 69.132812 Z M 211.289062 315.363281 L 285.777344 272.304688 C 285.550781 271.59375 285.363281 270.886719 285.183594 270.175781 L 89.433594 270.175781 C 89.324219 270.59375 89.210938 271.011719 89.089844 271.429688 L 163.949219 314.707031 C 169.84375 308.578125 178.125 304.765625 187.308594 304.765625 C 196.820312 304.765625 205.355469 308.855469 211.289062 315.363281 Z M 211.289062 315.363281 " fill-opacity="1" fill-rule="evenodd"/></svg>