<svg xmlns="http://www.w3.org/2000/svg" xmlns:xlink="http://www.w3.org/1999/xlink" width="500" zoomAndPan="magnify" viewBox="0 0 375 374.999991" height="500" preserveAspectRatio="xMidYMid meet" version="1.0"><defs><clipPath id="1b32e2fdfa"><path d="M 29.734375 8 L 345.484375 8 L 345.484375 367 L 29.734375 367 Z M 29.734375 8 " clip-rule="nonzero"/></clipPath></defs><g clip-path="url(#1b32e2fdfa)"><path fill="#e44d26" d="M 58.398438 330.707031 L 29.644531 8.484375 L 345.574219 8.484375 L 316.800781 330.660156 L 187.410156 366.484375 Z M 58.398438 330.707031 " fill-opacity="1" fill-rule="nonzero"/></g><path fill="#f16529" d="M 292.15625 310.140625 L 316.753906 34.832031 L 187.609375 34.832031 L 187.609375 339.105469 Z M 292.15625 310.140625 " fill-opacity="1" fill-rule="nonzero"/><path fill="#ebebeb" d="M 187.476562 74.347656 L 88.429688 74.347656 L 99.101562 193.855469 L 187.609375 193.855469 L 187.609375 154.339844 L 135.277344 154.339844 L 131.660156 113.875 L 187.609375 113.875 L 187.609375 74.347656 Z M 187.609375 256.84375 L 187.441406 256.886719 L 143.394531 245.007812 L 140.59375 213.492188 L 100.871094 213.492188 L 106.410156 275.539062 L 187.433594 297.914062 L 187.609375 297.859375 Z M 187.609375 256.84375 " fill-opacity="1" fill-rule="nonzero"/><path fill="#ffffff" d="M 187.476562 193.855469 L 236.183594 193.855469 L 231.703125 245.097656 L 187.589844 256.988281 L 187.589844 298.105469 L 268.675781 275.648438 L 279.535156 154.316406 L 187.609375 154.316406 Z M 285.605469 84.953125 L 286.546875 74.347656 L 187.453125 74.347656 L 187.453125 113.863281 L 282.984375 113.863281 L 283.769531 104.980469 Z M 285.605469 84.953125 " fill-opacity="1" fill-rule="nonzero"/></svg>