<?xml version="1.0" encoding="UTF-8"?>
<svg width="142px" height="47px" viewBox="0 0 142 47" version="1.1" xmlns="http://www.w3.org/2000/svg" xmlns:xlink="http://www.w3.org/1999/xlink">
    <title>Asset 10</title>
    <g id="Symbols" stroke="none" stroke-width="1" fill="none" fill-rule="evenodd">
        <g id="Asset-10" fill="#50D2C2" fill-rule="nonzero">
            <g id="Group">
                <path d="M8.5545534,4.39944571 C8.56294721,1.94980331 6.66594986,0 4.27628061,0 C1.91398203,0 0.00856293544,1.93472196 0.000113715912,4.34127478 C-0.00828054824,6.77152687 1.92029833,8.76226528 4.28049148,8.75796331 C6.62384115,8.75580185 8.54399829,6.79307166 8.55242003,4.39729123 L8.5545534,4.39944571 Z" id="Path" opacity="0.65"></path>
                <path d="M4.25522626,46.9978006 C6.61963028,47.0107274 8.53768198,45.0846234 8.55242003,42.680225 C8.56926352,40.2392006 6.67016073,38.2549256 4.30154584,38.2376898 C1.96872335,38.2204539 0.0190901127,40.1853386 0.000141193601,42.5746556 C-0.0188077255,45.0221435 1.87187332,46.9870282 4.25522626,46.999955 L4.25522626,46.9978006 Z" id="Path" opacity="0.65"></path>
                <path d="M19.7407041,46.997865 C22.1303733,46.9848737 24.0126326,45.0307614 23.9978946,42.5789645 C23.9831565,40.1874931 22.0398396,38.2226084 19.7049117,38.2376035 C17.3362968,38.2527711 15.4266668,40.2435095 15.4435103,42.6759161 C15.4603538,45.0781599 17.3805109,47.0107274 19.7407041,46.997865 Z" id="Path" opacity="0.65"></path>
                <path d="M8.55453239,17.0936348 C8.5503146,14.6913909 6.64279007,12.7351242 4.2931241,12.7243081 C1.92872007,12.7135794 -0.00617511278,14.6978544 0.000125773106,17.1281065 C0.00645749998,19.5325048 1.90977116,21.4801536 4.26575344,21.4888156 C6.64279007,21.499544 8.55873634,19.5346593 8.55453239,17.0936348 Z" id="Path" opacity="0.65"></path>
                <path d="M23.9978946,17.1130251 C23.9978946,14.7064723 22.1114244,12.7545145 19.7533367,12.7243518 C17.3973544,12.6963436 15.4435103,14.682773 15.4414049,17.1087162 C15.4414049,19.5174235 17.3299805,21.4650723 19.6880682,21.4887716 C22.0587885,21.5146253 23.9936837,19.5475862 23.9957891,17.1130251 L23.9978946,17.1130251 Z" id="Path" opacity="0.65"></path>
                <path d="M8.55453239,29.9041658 C8.55873634,27.4631413 6.64279007,25.4982566 4.26575344,25.5089849 C1.90977116,25.5198014 0.00645749998,27.4652957 0.000125806459,29.8696941 C-0.00617511278,32.2999462 1.93293095,34.2863756 4.2931241,34.2735115 C6.64700094,34.2583674 8.5503146,32.3064096 8.55453239,29.9041658 L8.55453239,29.9041658 Z" id="Path" opacity="0.65"></path>
                <path d="M11.9779635,26.0735024 C13.3591292,26.0842748 14.4792209,24.9682548 14.4918535,23.5656891 C14.5044861,22.1674324 13.4012379,21.0104773 12.0305994,20.986778 C10.6831207,20.9630787 9.52723665,22.1200338 9.51039317,23.5118272 C9.49354968,24.9079294 10.6052196,26.0627301 11.9758581,26.0735024 L11.9779635,26.0735024 Z" id="Path" opacity="0.5"></path>
                <path d="M11.9779635,38.715984 C13.3591292,38.7267564 14.4792209,37.6107364 14.4918535,36.2103252 C14.5044861,34.8120685 13.4012379,33.6551133 12.0305994,33.6314141 C10.6831207,33.6077148 9.52723665,34.7646699 9.51039317,36.1564632 C9.49354968,37.5525655 10.6052196,38.7073661 11.9758581,38.7181385 L11.9779635,38.715984 Z" id="Path" opacity="0.5"></path>
                <path d="M8.55452547,4.39944571 C8.54610372,6.79738062 6.62384115,8.75795632 4.28259692,8.76011255 C1.92029833,8.76226528 -0.00828054823,6.77152687 0.000113715942,4.34127478 C0.00856293545,1.93472196 1.91398203,0 4.27628061,0 C6.66384442,0 8.56084177,1.94980331 8.55242003,4.39944571 L8.55452547,4.39944571 Z" id="Path"></path>
                <path d="M4.25522626,46.9978006 C1.87187332,46.9870282 -0.0188077255,45.019989 0.000141193601,42.5746556 C0.0190901127,40.1853386 1.96872335,38.2204539 4.30154584,38.2398442 C6.67226617,38.2592345 8.56926352,40.241355 8.55242003,42.6823795 C8.53557655,45.0846234 6.61963028,47.0107274 4.25522626,47 L4.25522626,46.9978006 Z" id="Path"></path>
                <path d="M19.7407041,46.997865 C17.3805109,47.0107274 15.4624592,45.0781599 15.4435103,42.6759161 C15.4266668,40.2435095 17.3362968,38.2527711 19.7049117,38.2376035 C22.0398396,38.2226084 23.9831565,40.1874931 23.9978946,42.5789645 C24.0126326,45.0329159 22.1324787,46.9870282 19.7407041,46.997865 Z" id="Path"></path>
                <path d="M8.55453239,17.0936348 C8.55873634,19.5346593 6.64279007,21.499544 4.26575344,21.4888156 C1.90977116,21.4801536 0.00645749998,19.5325048 0.000125773106,17.1281065 C-0.00617511278,14.6978544 1.92872007,12.7135794 4.2931241,12.7243081 C6.64279007,12.7372787 8.5503146,14.6913909 8.55453239,17.0936348 L8.55453239,17.0936348 Z" id="Path"></path>
                <path d="M23.9978946,17.1130251 C23.9978946,19.5475862 22.0608939,21.5146253 19.6901736,21.4887716 C17.3299805,21.4629178 15.4414049,19.515269 15.4435085,17.1087162 C15.4435085,14.682773 17.3994598,12.6963436 19.7554421,12.7243518 C22.1114244,12.75236 24,14.7064723 24,17.1130251 L23.9978946,17.1130251 Z" id="Path"></path>
                <path d="M8.55454102,29.9041658 C8.5503146,32.3064096 6.6448955,34.2583674 4.2931241,34.273534 C1.93293095,34.2885301 -0.00617511278,32.2999462 0.000125806459,29.8696941 C0.00645749998,27.4652957 1.90977116,25.5198014 4.26575344,25.5089849 C6.64279007,25.4982566 8.56084177,27.4631413 8.55454102,29.9041658 L8.55454102,29.9041658 Z" id="Path"></path>
            </g>
            <g id="Group" transform="translate(44.000000, 12.000000)" stroke="#50D2C2">
                <polygon id="Path" points="6.47528889 12.9932886 3.30015556 12.9932886 3.30015556 23.6823266 0 23.6823266 0 0 3.30015556 0 3.30015556 10.1454139 6.44511111 10.1454139 14.0606889 0 18.0075111 0 9.25164444 11.5212528 18.3480889 23.6823266 14.4012667 23.6823266 6.47744444 12.9932886"></polygon>
                <path d="M36.1378889,12.9284116 L36.1378889,23.6800895 L32.9929333,23.6800895 L32.9929333,13.5033557 C32.9929333,10.8478747 31.1736444,9.08724832 28.4296222,9.08724832 C25.6856,9.08724832 23.8663111,10.8478747 23.8663111,13.5033557 L23.8663111,23.6800895 L20.7213556,23.6800895 L20.7213556,6.59284116 L23.7434444,6.59284116 L23.8059556,9.12080537 C24.9785778,7.29753915 26.9509111,6.27293065 29.4793778,6.27293065 C33.4563778,6.27293065 36.1400444,8.92841163 36.1400444,12.9284116 L36.1378889,12.9284116 Z" id="Path"></path>
                <path d="M39.5889333,15.1364653 C39.5889333,9.82326622 43.0421333,6.27293065 48.1917556,6.27293065 C53.3413778,6.27293065 56.7644,9.82550336 56.7644,15.1364653 C56.7644,20.4474273 53.3112,24 48.1917556,24 C43.0723111,24 39.5889333,20.4474273 39.5889333,15.1364653 Z M53.4944222,15.1364653 C53.4944222,11.5212528 51.3668889,9.08724832 48.1917556,9.08724832 C45.0166222,9.08724832 42.8567556,11.5190157 42.8567556,15.1364653 C42.8567556,18.753915 44.9842889,21.1834452 48.1917556,21.1834452 C51.3992222,21.1834452 53.4944222,18.7516779 53.4944222,15.1364653 Z" id="Shape"></path>
                <polygon id="Path" points="85.6553111 6.59284116 79.4257556 23.6823266 76.2506222 23.6823266 71.8726889 10.4340045 67.4947556 23.6823266 64.3196222 23.6823266 58.0900667 6.59284116 61.5432667 6.59284116 66.1065778 19.9373602 70.5470222 6.59284116 73.1983556 6.59284116 77.6388 19.9373602 82.2021111 6.59284116"></polygon>
                <path d="M97,20.6085011 L97,23.2326622 C95.8273778,23.7762864 94.4090222,24 92.8979778,24 C90.0612667,24 88.1794667,21.98434 88.1794667,18.9753915 L88.1794667,1.59955257 L91.3244222,1.59955257 L91.3244222,6.59060403 L96.7521111,6.59060403 L96.7521111,9.27964206 L91.3244222,9.27964206 L91.3244222,18.3042506 C91.3244222,20.0313199 92.3720222,21.1834452 93.9154,21.1834452 C94.963,21.1834452 95.9804222,21.0223714 96.9978444,20.6085011 L97,20.6085011 Z" id="Path"></path>
            </g>
        </g>
    </g>
</svg>