<svg xmlns="http://www.w3.org/2000/svg" xmlns:xlink="http://www.w3.org/1999/xlink" width="500" zoomAndPan="magnify" viewBox="0 0 375 374.999991" height="500" preserveAspectRatio="xMidYMid meet" version="1.0"><defs><clipPath id="7cbcd79a14"><path d="M 33.332031 42.097656 L 341.582031 42.097656 L 341.582031 350.347656 L 33.332031 350.347656 Z M 33.332031 42.097656 " clip-rule="nonzero"/></clipPath><clipPath id="7a747e4de6"><path d="M 10.082031 10.082031 L 364.832031 10.082031 L 364.832031 364.832031 L 10.082031 364.832031 Z M 10.082031 10.082031 " clip-rule="nonzero"/></clipPath></defs><g clip-path="url(#7cbcd79a14)"><path fill="#ffffff" d="M 341.582031 319.523438 C 341.582031 336.546875 327.785156 350.347656 310.757812 350.347656 L 64.160156 350.347656 C 47.132812 350.347656 33.332031 336.546875 33.332031 319.523438 L 33.332031 72.921875 C 33.332031 55.898438 47.132812 42.097656 64.160156 42.097656 L 310.757812 42.097656 C 327.785156 42.097656 341.582031 55.898438 341.582031 72.921875 Z M 341.582031 319.523438 " fill-opacity="1" fill-rule="nonzero"/></g><g clip-path="url(#7a747e4de6)"><path fill="#0277b5" d="M 335.195312 10.082031 L 39.894531 10.082031 C 23.566406 10.082031 10.4375 23.390625 10.4375 39.539062 L 10.4375 335.371094 C 10.4375 351.699219 23.746094 364.832031 39.894531 364.832031 L 335.015625 364.832031 C 351.34375 364.832031 364.476562 351.519531 364.476562 335.371094 L 364.476562 39.539062 C 364.652344 23.390625 351.519531 10.082031 335.195312 10.082031 Z M 115.316406 302.71875 L 62.964844 302.71875 L 62.964844 145.484375 L 115.316406 145.484375 Z M 89.050781 126.496094 C 72.546875 126.496094 59.238281 113.1875 59.238281 96.683594 C 59.238281 80.179688 72.546875 66.867188 89.050781 66.867188 C 105.554688 66.867188 118.867188 80.179688 118.867188 96.683594 C 118.867188 113.1875 105.554688 126.496094 89.050781 126.496094 Z M 312.300781 302.71875 L 259.773438 302.71875 L 258.53125 209.371094 C 258.53125 209.371094 259.773438 184.527344 232.621094 184.703125 C 205.46875 184.882812 201.742188 209.371094 201.742188 209.371094 L 201.742188 302.71875 L 148.855469 302.71875 L 148.855469 145.484375 L 199.613281 145.484375 L 199.613281 167.136719 C 199.613281 167.136719 201.742188 160.039062 213.453125 151.695312 C 225.167969 143.355469 244.511719 141.582031 252.851562 141.9375 C 261.191406 142.292969 272.550781 140.871094 291.539062 154.003906 C 311.945312 168.023438 312.480469 204.757812 312.480469 204.757812 Z M 312.300781 302.71875 " fill-opacity="1" fill-rule="nonzero"/></g></svg>