<svg width="479" height="326" viewBox="0 0 479 326" fill="none" xmlns="http://www.w3.org/2000/svg">
<g id="pofo-logo">
<g id="right-jaw">
<path id="Vector" d="M467.763 162.328L372.839 62.6589C371.03 60.7606 371.072 57.7282 372.935 55.8853C374.798 54.0363 377.768 54.0794 379.576 55.9839L477.682 158.987C477.778 159.092 477.851 159.209 477.936 159.32C478.038 159.443 478.141 159.56 478.232 159.696C478.317 159.832 478.383 159.98 478.456 160.121C478.528 160.257 478.601 160.386 478.655 160.528C478.716 160.676 478.758 160.83 478.8 160.99C478.843 161.132 478.891 161.268 478.915 161.416C478.946 161.57 478.952 161.724 478.97 161.878C478.982 162.026 479 162.18 479 162.328C479 162.482 478.982 162.63 478.97 162.778C478.952 162.932 478.946 163.092 478.915 163.246C478.891 163.388 478.843 163.53 478.8 163.671C478.752 163.826 478.716 163.98 478.655 164.134C478.601 164.269 478.522 164.399 478.456 164.534C478.383 164.676 478.317 164.824 478.232 164.96C478.141 165.095 478.038 165.212 477.936 165.342C477.851 165.447 477.778 165.564 477.682 165.668L379.576 268.678C378.651 269.646 377.429 270.126 376.207 270.126C375.028 270.126 373.849 269.676 372.935 268.777C371.072 266.927 371.03 263.895 372.839 261.997L467.763 162.328Z" fill="#5271FF"/>
</g>
<g id="middle-squiggly">
<path id="Vector_2" d="M276.705 36.1069C275.991 35.5152 275.737 35.3118 275.459 33.6723C274.152 28.495 273.009 20.7722 275.513 13.7274C277.66 6.60867 284.277 -0.423814 300.594 0.0199531C301.187 0.0322807 303.77 0.500702 304.798 1.11088C315.582 10.165 325.676 20.575 334.107 33.7524C338.304 40.3042 341.975 47.7558 344.521 56.0764C347.031 64.3662 348.416 73.5929 347.727 82.9366C346.898 95.5532 342.296 107.547 336.242 116.996C330.163 126.506 322.948 134.21 315.485 140.787C311.735 143.967 307.919 146.987 304.06 149.804C300.159 152.386 296.294 155.289 292.327 157.545C288.371 159.807 284.452 162.389 280.448 164.368C276.572 166.377 272.683 168.387 268.818 170.451C257.859 175.776 247.97 182.334 239.636 189.811C239.636 189.811 238.874 190.291 237.719 191.333C236.552 192.362 234.743 193.798 232.596 195.703C228.514 199.623 223.028 205.373 218.383 213.195C213.708 220.979 209.868 230.964 208.325 242.218C206.547 253.405 207.055 265.639 208.483 276.838C211.597 295.76 215.843 308.278 217.409 315.896C219.097 323.495 218.631 326.435 215.619 325.949C209.614 324.642 194.499 308.253 184.496 282.207C184.744 283.63 181.756 276.69 179.004 264.481C176.277 252.382 174.384 234.311 178.158 215.839C181.448 197.25 191.076 179.924 199.725 168.886C201.793 165.964 203.995 163.665 205.876 161.527C207.787 159.406 209.42 157.483 210.908 156.152C213.829 153.372 215.504 151.782 215.504 151.782C226.252 142.999 237.719 135.813 249.44 129.976L259.867 124.546C263.302 122.863 266.302 120.811 269.55 118.98C272.81 117.144 275.562 114.968 278.61 113.002C281.452 110.906 284.156 108.743 286.756 106.573C291.776 102.13 295.95 97.433 298.913 92.8474C301.871 88.2187 303.31 83.9228 303.576 79.7008C303.951 73.5189 301.925 66.1413 296.893 58.3076C291.958 50.554 284.797 42.8497 276.705 36.1069Z" fill="#545454"/>
</g>
<g id="left-jaw">
<path id="Vector_3" d="M132.446 60.6682C130.596 60.6004 128.781 60.8469 127.009 61.4078C125.237 61.9625 123.604 62.8069 122.11 63.9286L6.88269 147.801C6.35046 148.189 5.84847 148.608 5.36463 149.058C4.88078 149.502 4.42718 149.976 4.00381 150.482C3.5744 150.987 3.18128 151.511 2.81235 152.066C2.44946 152.614 2.11682 153.188 1.82047 153.779C1.52411 154.371 1.258 154.975 1.02817 155.597C0.80439 156.22 0.610853 156.855 0.459652 157.502C0.308451 158.149 0.18749 158.802 0.114913 159.462C0.0362887 160.121 0 160.787 0 161.447C0 162.112 0.0362887 162.778 0.114913 163.437C0.18749 164.097 0.308451 164.75 0.459652 165.397C0.610853 166.044 0.80439 166.679 1.02817 167.302C1.258 167.924 1.52411 168.528 1.82047 169.12C2.11682 169.712 2.44946 170.285 2.81235 170.833C3.18128 171.388 3.5744 171.912 4.00381 172.417C4.42718 172.917 4.88078 173.397 5.36463 173.841C5.84847 174.291 6.35046 174.71 6.88269 175.099L122.11 258.971C122.987 259.649 123.925 260.234 124.917 260.721C125.908 261.208 126.937 261.59 128.001 261.867C129.072 262.145 130.154 262.311 131.255 262.367C132.356 262.422 133.45 262.36 134.533 262.194C135.622 262.028 136.686 261.75 137.72 261.362C138.755 260.98 139.74 260.493 140.678 259.907C141.615 259.316 142.486 258.644 143.291 257.873C144.095 257.109 144.821 256.271 145.462 255.359C146.103 254.447 146.647 253.479 147.095 252.456C147.542 251.426 147.887 250.366 148.129 249.275C148.371 248.178 148.504 247.069 148.522 245.947C148.546 244.825 148.462 243.716 148.262 242.613C148.069 241.51 147.766 240.431 147.355 239.389C146.95 238.348 146.442 237.362 145.837 236.419C145.238 235.482 144.549 234.613 143.774 233.818C143 233.016 142.16 232.308 141.24 231.679L44.7556 161.447L141.24 91.2203C142.662 90.2157 143.895 89.0138 144.948 87.6147C145.994 86.2095 146.811 84.6809 147.385 83.023C147.96 81.3588 148.274 79.6516 148.316 77.8888C148.365 76.1261 148.147 74.4003 147.657 72.7115C147.173 71.0227 146.442 69.4449 145.468 67.9903C144.494 66.5358 143.327 65.2661 141.96 64.1875C140.599 63.1027 139.105 62.2645 137.478 61.6605C135.851 61.0626 134.176 60.7298 132.446 60.6682Z" fill="#FFBD59"/>
</g>
</g>
</svg>
