<svg xmlns="http://www.w3.org/2000/svg" xmlns:xlink="http://www.w3.org/1999/xlink" width="500" zoomAndPan="magnify" viewBox="0 0 375 374.999991" height="500" preserveAspectRatio="xMidYMid meet" version="1.0"><defs><clipPath id="d088b080da"><path d="M 5.421875 5.421875 L 369.921875 5.421875 L 369.921875 369.921875 L 5.421875 369.921875 Z M 5.421875 5.421875 " clip-rule="nonzero"/></clipPath><clipPath id="f735cc612a"><path d="M 97.78125 85.085938 L 277 85.085938 L 277 275.585938 L 97.78125 275.585938 Z M 97.78125 85.085938 " clip-rule="nonzero"/></clipPath></defs><g clip-path="url(#d088b080da)"><path fill="#fffbce" d="M 369.921875 187.671875 C 369.921875 190.65625 369.851562 193.636719 369.703125 196.617188 C 369.558594 199.59375 369.335938 202.566406 369.046875 205.535156 C 368.753906 208.503906 368.386719 211.464844 367.949219 214.414062 C 367.511719 217.363281 367.003906 220.304688 366.421875 223.226562 C 365.839844 226.152344 365.1875 229.0625 364.460938 231.957031 C 363.738281 234.847656 362.941406 237.722656 362.074219 240.578125 C 361.210938 243.429688 360.273438 246.261719 359.269531 249.070312 C 358.265625 251.878906 357.191406 254.660156 356.050781 257.417969 C 354.910156 260.171875 353.699219 262.898438 352.425781 265.59375 C 351.148438 268.292969 349.808594 270.953125 348.402344 273.585938 C 346.996094 276.214844 345.527344 278.808594 343.992188 281.367188 C 342.460938 283.925781 340.867188 286.445312 339.207031 288.925781 C 337.550781 291.40625 335.835938 293.84375 334.058594 296.238281 C 332.28125 298.636719 330.445312 300.984375 328.554688 303.292969 C 326.660156 305.597656 324.714844 307.855469 322.710938 310.066406 C 320.707031 312.273438 318.652344 314.433594 316.542969 316.542969 C 314.433594 318.652344 312.273438 320.707031 310.066406 322.710938 C 307.855469 324.714844 305.597656 326.660156 303.292969 328.554688 C 300.984375 330.445312 298.636719 332.28125 296.238281 334.058594 C 293.84375 335.835938 291.40625 337.550781 288.925781 339.207031 C 286.445312 340.867188 283.925781 342.460938 281.367188 343.992188 C 278.808594 345.527344 276.214844 346.996094 273.585938 348.402344 C 270.953125 349.808594 268.292969 351.148438 265.59375 352.425781 C 262.898438 353.699219 260.171875 354.910156 257.417969 356.050781 C 254.660156 357.191406 251.878906 358.265625 249.070312 359.269531 C 246.261719 360.273438 243.429688 361.210938 240.578125 362.074219 C 237.722656 362.941406 234.847656 363.738281 231.957031 364.460938 C 229.0625 365.1875 226.152344 365.839844 223.226562 366.421875 C 220.304688 367.003906 217.363281 367.511719 214.414062 367.949219 C 211.464844 368.386719 208.503906 368.753906 205.535156 369.046875 C 202.566406 369.335938 199.59375 369.558594 196.617188 369.703125 C 193.636719 369.851562 190.65625 369.921875 187.671875 369.921875 C 184.691406 369.921875 181.710938 369.851562 178.730469 369.703125 C 175.75 369.558594 172.777344 369.335938 169.808594 369.046875 C 166.839844 368.753906 163.882812 368.386719 160.929688 367.949219 C 157.980469 367.511719 155.042969 367.003906 152.117188 366.421875 C 149.191406 365.839844 146.28125 365.1875 143.390625 364.460938 C 140.496094 363.738281 137.621094 362.941406 134.769531 362.074219 C 131.914062 361.210938 129.082031 360.273438 126.273438 359.269531 C 123.464844 358.265625 120.683594 357.191406 117.929688 356.050781 C 115.171875 354.910156 112.449219 353.699219 109.75 352.425781 C 107.054688 351.148438 104.390625 349.808594 101.761719 348.402344 C 99.128906 346.996094 96.535156 345.527344 93.976562 343.992188 C 91.417969 342.460938 88.898438 340.867188 86.421875 339.207031 C 83.941406 337.550781 81.503906 335.835938 79.105469 334.058594 C 76.710938 332.28125 74.359375 330.445312 72.054688 328.554688 C 69.75 326.660156 67.492188 324.714844 65.28125 322.710938 C 63.070312 320.707031 60.910156 318.652344 58.804688 316.542969 C 56.695312 314.433594 54.636719 312.273438 52.632812 310.066406 C 50.632812 307.855469 48.683594 305.597656 46.792969 303.292969 C 44.898438 300.984375 43.066406 298.636719 41.289062 296.238281 C 39.511719 293.84375 37.792969 291.40625 36.136719 288.925781 C 34.480469 286.445312 32.886719 283.925781 31.351562 281.367188 C 29.820312 278.808594 28.347656 276.214844 26.941406 273.585938 C 25.535156 270.953125 24.195312 268.292969 22.921875 265.59375 C 21.644531 262.898438 20.4375 260.171875 19.296875 257.417969 C 18.15625 254.660156 17.082031 251.878906 16.078125 249.070312 C 15.070312 246.261719 14.136719 243.429688 13.269531 240.578125 C 12.40625 237.722656 11.609375 234.847656 10.886719 231.957031 C 10.160156 229.0625 9.507812 226.152344 8.925781 223.226562 C 8.34375 220.304688 7.832031 217.363281 7.394531 214.414062 C 6.957031 211.464844 6.59375 208.503906 6.300781 205.535156 C 6.007812 202.566406 5.789062 199.59375 5.640625 196.617188 C 5.496094 193.636719 5.421875 190.65625 5.421875 187.671875 C 5.421875 184.691406 5.496094 181.710938 5.640625 178.730469 C 5.789062 175.75 6.007812 172.777344 6.300781 169.808594 C 6.59375 166.839844 6.957031 163.882812 7.394531 160.929688 C 7.832031 157.980469 8.34375 155.042969 8.925781 152.117188 C 9.507812 149.191406 10.160156 146.28125 10.886719 143.390625 C 11.609375 140.496094 12.40625 137.621094 13.269531 134.769531 C 14.136719 131.914062 15.070312 129.082031 16.078125 126.273438 C 17.082031 123.464844 18.15625 120.683594 19.296875 117.929688 C 20.4375 115.171875 21.644531 112.449219 22.921875 109.75 C 24.195312 107.054688 25.535156 104.390625 26.941406 101.761719 C 28.347656 99.128906 29.820312 96.535156 31.351562 93.976562 C 32.886719 91.417969 34.480469 88.898438 36.136719 86.421875 C 37.792969 83.941406 39.511719 81.503906 41.289062 79.105469 C 43.066406 76.710938 44.898438 74.359375 46.792969 72.054688 C 48.683594 69.75 50.632812 67.492188 52.632812 65.28125 C 54.636719 63.070312 56.695312 60.910156 58.804688 58.804688 C 60.910156 56.695312 63.070312 54.636719 65.28125 52.632812 C 67.492188 50.632812 69.75 48.683594 72.054688 46.792969 C 74.359375 44.898438 76.710938 43.066406 79.105469 41.289062 C 81.503906 39.511719 83.941406 37.792969 86.421875 36.136719 C 88.898438 34.480469 91.417969 32.886719 93.976562 31.351562 C 96.535156 29.820312 99.128906 28.347656 101.761719 26.941406 C 104.390625 25.535156 107.054688 24.195312 109.75 22.921875 C 112.449219 21.644531 115.171875 20.4375 117.929688 19.296875 C 120.683594 18.15625 123.464844 17.082031 126.273438 16.078125 C 129.082031 15.070312 131.914062 14.136719 134.769531 13.269531 C 137.621094 12.40625 140.496094 11.609375 143.390625 10.886719 C 146.28125 10.160156 149.191406 9.507812 152.117188 8.925781 C 155.042969 8.34375 157.980469 7.832031 160.929688 7.394531 C 163.882812 6.957031 166.839844 6.59375 169.808594 6.300781 C 172.777344 6.007812 175.75 5.789062 178.730469 5.640625 C 181.710938 5.496094 184.691406 5.421875 187.671875 5.421875 C 190.65625 5.421875 193.636719 5.496094 196.617188 5.640625 C 199.59375 5.789062 202.566406 6.007812 205.535156 6.300781 C 208.503906 6.59375 211.464844 6.957031 214.414062 7.394531 C 217.363281 7.832031 220.304688 8.34375 223.226562 8.925781 C 226.152344 9.507812 229.0625 10.160156 231.957031 10.886719 C 234.847656 11.609375 237.722656 12.40625 240.578125 13.269531 C 243.429688 14.136719 246.261719 15.070312 249.070312 16.078125 C 251.878906 17.082031 254.660156 18.15625 257.417969 19.296875 C 260.171875 20.4375 262.898438 21.644531 265.59375 22.921875 C 268.292969 24.195312 270.953125 25.535156 273.585938 26.941406 C 276.214844 28.347656 278.808594 29.820312 281.367188 31.351562 C 283.925781 32.886719 286.445312 34.480469 288.925781 36.136719 C 291.40625 37.792969 293.84375 39.511719 296.238281 41.289062 C 298.636719 43.066406 300.984375 44.898438 303.292969 46.792969 C 305.597656 48.683594 307.855469 50.632812 310.066406 52.632812 C 312.273438 54.636719 314.433594 56.695312 316.542969 58.804688 C 318.652344 60.910156 320.707031 63.070312 322.710938 65.28125 C 324.714844 67.492188 326.660156 69.75 328.554688 72.054688 C 330.445312 74.359375 332.28125 76.710938 334.058594 79.105469 C 335.835938 81.503906 337.550781 83.941406 339.207031 86.421875 C 340.867188 88.898438 342.460938 91.417969 343.992188 93.976562 C 345.527344 96.535156 346.996094 99.128906 348.402344 101.761719 C 349.808594 104.390625 351.148438 107.054688 352.425781 109.75 C 353.699219 112.449219 354.910156 115.171875 356.050781 117.929688 C 357.191406 120.683594 358.265625 123.464844 359.269531 126.273438 C 360.273438 129.082031 361.210938 131.914062 362.074219 134.769531 C 362.941406 137.621094 363.738281 140.496094 364.460938 143.390625 C 365.1875 146.28125 365.839844 149.191406 366.421875 152.117188 C 367.003906 155.042969 367.511719 157.980469 367.949219 160.929688 C 368.386719 163.882812 368.753906 166.839844 369.046875 169.808594 C 369.335938 172.777344 369.558594 175.75 369.703125 178.730469 C 369.851562 181.710938 369.921875 184.691406 369.921875 187.671875 Z M 369.921875 187.671875 " fill-opacity="1" fill-rule="nonzero"/></g><path fill="#000000" d="M 232.585938 175.109375 C 233.976562 174.945312 235.300781 174.9375 236.519531 175.109375 C 237.226562 173.484375 237.351562 170.683594 236.714844 167.636719 C 235.769531 163.101562 234.488281 160.355469 231.847656 160.785156 C 229.203125 161.210938 229.109375 164.492188 230.054688 169.027344 C 230.582031 171.578125 231.53125 173.753906 232.585938 175.109375 Z M 232.585938 175.109375 " fill-opacity="1" fill-rule="nonzero"/><path fill="#000000" d="M 209.886719 178.695312 C 211.777344 179.527344 212.941406 180.078125 213.394531 179.597656 C 213.6875 179.292969 213.59375 178.726562 213.144531 177.988281 C 212.214844 176.460938 210.289062 174.90625 208.253906 174.042969 C 204.085938 172.246094 199.121094 172.847656 195.285156 175.605469 C 194.023438 176.53125 192.820312 177.824219 192.988281 178.601562 C 193.042969 178.855469 193.238281 179.042969 193.679688 179.105469 C 194.71875 179.222656 198.367188 177.378906 202.566406 177.125 C 205.539062 176.9375 207.992188 177.863281 209.886719 178.695312 Z M 209.886719 178.695312 " fill-opacity="1" fill-rule="nonzero"/><path fill="#000000" d="M 206.082031 180.871094 C 203.621094 181.261719 202.257812 182.078125 201.386719 182.832031 C 200.640625 183.484375 200.183594 184.207031 200.183594 184.714844 C 200.183594 184.953125 200.292969 185.09375 200.371094 185.164062 C 200.480469 185.265625 200.617188 185.320312 200.773438 185.320312 C 201.332031 185.320312 202.574219 184.820312 202.574219 184.820312 C 206.003906 183.59375 208.261719 183.742188 210.507812 183.996094 C 211.746094 184.136719 212.332031 184.214844 212.601562 183.789062 C 212.679688 183.664062 212.78125 183.398438 212.53125 183.003906 C 211.964844 182.054688 209.472656 180.46875 206.082031 180.871094 Z M 206.082031 180.871094 " fill-opacity="1" fill-rule="nonzero"/><path fill="#000000" d="M 224.917969 188.859375 C 226.59375 189.683594 228.433594 189.355469 229.03125 188.136719 C 229.628906 186.914062 228.761719 185.257812 227.089844 184.433594 C 225.414062 183.609375 223.574219 183.9375 222.976562 185.15625 C 222.371094 186.378906 223.25 188.035156 224.917969 188.859375 Z M 224.917969 188.859375 " fill-opacity="1" fill-rule="nonzero"/><path fill="#000000" d="M 235.675781 179.441406 C 234.316406 179.417969 233.191406 180.910156 233.160156 182.777344 C 233.128906 184.644531 234.207031 186.175781 235.566406 186.199219 C 236.925781 186.222656 238.050781 184.730469 238.082031 182.863281 C 238.113281 180.996094 237.035156 179.464844 235.675781 179.441406 Z M 235.675781 179.441406 " fill-opacity="1" fill-rule="nonzero"/><path fill="#000000" d="M 144.390625 213.113281 C 144.046875 212.6875 143.496094 212.820312 142.960938 212.941406 C 142.589844 213.027344 142.164062 213.128906 141.695312 213.121094 C 140.695312 213.105469 139.851562 212.671875 139.375 211.941406 C 138.753906 210.992188 138.792969 209.566406 139.476562 207.941406 C 139.570312 207.726562 139.679688 207.484375 139.796875 207.210938 C 140.882812 204.761719 142.714844 200.664062 140.664062 196.75 C 139.121094 193.8125 136.605469 191.976562 133.585938 191.597656 C 130.683594 191.230469 127.695312 192.304688 125.792969 194.410156 C 122.792969 197.730469 122.316406 202.257812 122.898438 203.851562 C 123.109375 204.433594 123.441406 204.597656 123.691406 204.628906 C 124.203125 204.699219 124.957031 204.328125 125.429688 203.050781 C 125.460938 202.957031 125.507812 202.816406 125.5625 202.640625 C 125.773438 201.960938 126.167969 200.703125 126.8125 199.699219 C 127.585938 198.484375 128.796875 197.644531 130.21875 197.34375 C 131.664062 197.03125 133.144531 197.3125 134.378906 198.121094 C 136.480469 199.503906 137.296875 202.085938 136.394531 204.550781 C 135.929688 205.828125 135.179688 208.269531 135.339844 210.277344 C 135.675781 214.335938 138.164062 215.960938 140.410156 216.140625 C 142.582031 216.226562 144.101562 214.996094 144.492188 214.101562 C 144.707031 213.574219 144.515625 213.253906 144.390625 213.113281 Z M 144.390625 213.113281 " fill-opacity="1" fill-rule="nonzero"/><g clip-path="url(#f735cc612a)"><path fill="#000000" d="M 269.964844 205.695312 C 269.878906 205.398438 269.34375 203.425781 268.597656 201.042969 C 267.851562 198.664062 267.089844 196.984375 267.089844 196.984375 C 270.0625 192.519531 270.117188 188.53125 269.722656 186.277344 C 269.304688 183.476562 268.140625 181.089844 265.789062 178.625 C 263.445312 176.160156 258.648438 173.632812 251.902344 171.734375 C 251.136719 171.515625 248.589844 170.816406 248.363281 170.746094 C 248.347656 170.597656 248.179688 162.394531 248.023438 158.863281 C 247.914062 156.3125 247.6875 152.339844 246.464844 148.417969 C 244.996094 143.117188 242.433594 138.480469 239.246094 135.507812 C 248.054688 126.363281 253.546875 116.285156 253.542969 107.636719 C 253.519531 91.011719 233.136719 85.980469 208.023438 96.398438 C 208 96.40625 202.738281 98.648438 202.699219 98.664062 C 202.675781 98.640625 193.082031 89.207031 192.933594 89.082031 C 164.3125 64.054688 74.789062 163.769531 103.410156 187.988281 L 109.667969 193.300781 C 108.046875 197.515625 107.410156 202.335938 107.929688 207.523438 C 108.597656 214.1875 112.027344 220.578125 117.589844 225.511719 C 122.867188 230.199219 129.808594 233.164062 136.542969 233.15625 C 147.679688 258.871094 173.128906 274.652344 202.96875 275.539062 C 234.976562 276.496094 261.84375 261.4375 273.105469 234.40625 C 273.84375 232.507812 276.972656 223.960938 276.972656 216.410156 C 276.972656 208.835938 272.695312 205.695312 269.964844 205.695312 Z M 139.003906 225.9375 C 138.035156 226.101562 137.039062 226.171875 136.039062 226.148438 C 126.371094 225.890625 115.929688 217.164062 114.890625 206.824219 C 113.742188 195.390625 119.570312 186.59375 129.894531 184.503906 C 131.125 184.253906 132.617188 184.105469 134.222656 184.191406 C 140.003906 184.511719 148.527344 188.960938 150.476562 201.582031 C 152.207031 212.765625 149.464844 224.148438 139.003906 225.9375 Z M 128.207031 177.667969 C 121.78125 178.917969 116.117188 182.566406 112.65625 187.605469 C 110.582031 185.878906 106.726562 182.527344 106.050781 181.222656 C 100.523438 170.699219 112.082031 150.246094 120.160156 138.699219 C 140.121094 110.15625 171.382812 88.546875 185.855469 92.464844 C 188.207031 93.132812 196 102.1875 196 102.1875 C 196 102.1875 181.535156 110.226562 168.117188 121.441406 C 150.046875 135.394531 136.386719 155.667969 128.207031 177.667969 Z M 229.683594 221.660156 C 229.894531 221.574219 230.039062 221.335938 230.015625 221.09375 C 229.988281 220.796875 229.722656 220.585938 229.433594 220.617188 C 229.433594 220.617188 214.292969 222.867188 199.980469 217.617188 C 201.542969 212.539062 205.6875 214.375 211.949219 214.878906 C 223.242188 215.554688 233.355469 213.898438 240.835938 211.753906 C 247.316406 209.886719 255.824219 206.214844 262.433594 200.988281 C 264.664062 205.898438 265.453125 211.292969 265.453125 211.292969 C 265.453125 211.292969 267.175781 210.984375 268.621094 211.878906 C 269.988281 212.71875 270.980469 214.46875 270.296875 218.976562 C 268.90625 227.414062 265.328125 234.265625 259.316406 240.566406 C 255.652344 244.515625 251.203125 247.953125 246.121094 250.449219 C 243.421875 251.875 240.542969 253.101562 237.507812 254.097656 C 214.828125 261.515625 191.617188 253.359375 184.132812 235.835938 C 183.535156 234.523438 183.03125 233.140625 182.636719 231.699219 C 179.445312 220.152344 182.15625 206.300781 190.613281 197.574219 C 190.613281 197.574219 190.613281 197.574219 190.613281 197.566406 C 191.136719 197.015625 191.671875 196.363281 191.671875 195.539062 C 191.671875 194.847656 191.234375 194.125 190.855469 193.609375 C 187.898438 189.308594 177.636719 181.976562 179.695312 167.785156 C 181.167969 157.589844 190.070312 150.410156 198.367188 150.835938 C 199.066406 150.875 199.773438 150.914062 200.472656 150.960938 C 204.066406 151.171875 207.199219 151.640625 210.164062 151.761719 C 215.117188 151.980469 219.570312 151.257812 224.847656 146.847656 C 226.625 145.363281 228.054688 144.070312 230.46875 143.667969 C 230.722656 143.621094 231.351562 143.394531 232.617188 143.457031 C 233.90625 143.527344 235.132812 143.878906 236.234375 144.617188 C 240.464844 147.4375 241.0625 154.265625 241.277344 159.261719 C 241.402344 162.113281 241.746094 169.011719 241.867188 170.996094 C 242.140625 175.519531 243.328125 176.167969 245.726562 176.960938 C 247.074219 177.402344 248.332031 177.738281 250.179688 178.257812 C 255.777344 179.835938 259.097656 181.429688 261.195312 183.484375 C 262.441406 184.769531 263.023438 186.128906 263.203125 187.425781 C 263.863281 192.25 259.460938 198.214844 247.820312 203.625 C 235.09375 209.542969 219.648438 211.046875 208.976562 209.855469 C 208.164062 209.761719 205.253906 209.4375 205.238281 209.4375 C 196.699219 208.285156 191.832031 219.335938 196.957031 226.910156 C 200.253906 231.792969 209.25 234.96875 218.242188 234.96875 C 238.871094 234.96875 254.726562 226.140625 260.625 218.519531 C 260.804688 218.292969 260.820312 218.261719 261.101562 217.84375 C 261.386719 217.40625 261.15625 217.164062 260.789062 217.40625 C 255.96875 220.710938 234.566406 233.824219 211.679688 229.882812 C 211.679688 229.882812 208.898438 229.421875 206.355469 228.433594 C 204.335938 227.648438 200.113281 225.703125 199.601562 221.359375 C 218.050781 227.074219 229.683594 221.660156 229.683594 221.660156 Z M 200.417969 218.199219 C 200.417969 218.199219 200.425781 218.199219 200.417969 218.199219 C 200.425781 218.207031 200.425781 218.207031 200.425781 218.214844 C 200.425781 218.207031 200.425781 218.199219 200.417969 218.199219 Z M 165.074219 138.582031 C 172.167969 130.363281 180.90625 123.222656 188.730469 119.210938 C 189 119.070312 189.289062 119.363281 189.140625 119.628906 C 188.519531 120.757812 187.324219 123.167969 186.945312 125.003906 C 186.882812 125.289062 187.191406 125.5 187.433594 125.335938 C 192.300781 122.007812 200.773438 118.449219 208.203125 117.988281 C 208.519531 117.964844 208.675781 118.378906 208.417969 118.570312 C 207.285156 119.441406 206.050781 120.640625 205.152344 121.855469 C 204.996094 122.0625 205.144531 122.359375 205.398438 122.359375 C 210.613281 122.398438 217.972656 124.226562 222.761719 126.917969 C 223.085938 127.09375 222.855469 127.726562 222.488281 127.648438 C 215.242188 125.984375 203.367188 124.714844 191.035156 127.734375 C 180.027344 130.421875 171.625 134.578125 165.492188 139.046875 C 165.199219 139.28125 164.824219 138.878906 165.074219 138.582031 Z M 165.074219 138.582031 " fill-opacity="1" fill-rule="nonzero"/></g></svg>