<svg xmlns="http://www.w3.org/2000/svg" xmlns:xlink="http://www.w3.org/1999/xlink" width="500" zoomAndPan="magnify" viewBox="0 0 375 374.999991" height="500" preserveAspectRatio="xMidYMid meet" version="1.0"><defs><clipPath id="9e4686a558"><path d="M 2.015625 2.015625 L 373.265625 2.015625 L 373.265625 373.265625 L 2.015625 373.265625 Z M 2.015625 2.015625 " clip-rule="nonzero"/></clipPath><clipPath id="bd38ba5abc"><path d="M 114.273438 30.0625 L 260.523438 30.0625 L 260.523438 345.0625 L 114.273438 345.0625 Z M 114.273438 30.0625 " clip-rule="nonzero"/></clipPath></defs><g clip-path="url(#9e4686a558)"><path fill="#bbfdcf" d="M 373.265625 187.640625 C 373.265625 190.679688 373.191406 193.714844 373.042969 196.75 C 372.894531 199.785156 372.671875 202.8125 372.371094 205.835938 C 372.074219 208.859375 371.703125 211.871094 371.257812 214.878906 C 370.8125 217.882812 370.292969 220.875 369.699219 223.855469 C 369.105469 226.835938 368.441406 229.796875 367.703125 232.746094 C 366.964844 235.691406 366.15625 238.617188 365.273438 241.523438 C 364.390625 244.433594 363.4375 247.316406 362.414062 250.175781 C 361.390625 253.035156 360.296875 255.871094 359.136719 258.675781 C 357.972656 261.484375 356.742188 264.261719 355.445312 267.007812 C 354.144531 269.753906 352.78125 272.464844 351.347656 275.144531 C 349.914062 277.824219 348.417969 280.464844 346.855469 283.070312 C 345.296875 285.675781 343.671875 288.242188 341.984375 290.769531 C 340.292969 293.292969 338.546875 295.777344 336.738281 298.21875 C 334.925781 300.65625 333.058594 303.050781 331.132812 305.398438 C 329.203125 307.75 327.21875 310.046875 325.179688 312.300781 C 323.140625 314.550781 321.046875 316.75 318.898438 318.898438 C 316.75 321.046875 314.550781 323.140625 312.300781 325.179688 C 310.046875 327.21875 307.75 329.203125 305.398438 331.132812 C 303.050781 333.058594 300.65625 334.925781 298.21875 336.738281 C 295.777344 338.546875 293.292969 340.292969 290.769531 341.984375 C 288.242188 343.671875 285.675781 345.296875 283.070312 346.855469 C 280.464844 348.417969 277.824219 349.914062 275.144531 351.347656 C 272.464844 352.78125 269.753906 354.144531 267.007812 355.445312 C 264.257812 356.742188 261.484375 357.972656 258.675781 359.136719 C 255.871094 360.296875 253.035156 361.390625 250.175781 362.414062 C 247.316406 363.4375 244.433594 364.390625 241.523438 365.273438 C 238.617188 366.15625 235.691406 366.964844 232.746094 367.703125 C 229.796875 368.441406 226.835938 369.105469 223.855469 369.699219 C 220.875 370.292969 217.882812 370.8125 214.878906 371.257812 C 211.871094 371.703125 208.859375 372.074219 205.835938 372.371094 C 202.8125 372.671875 199.785156 372.894531 196.75 373.042969 C 193.714844 373.191406 190.679688 373.265625 187.640625 373.265625 C 184.601562 373.265625 181.566406 373.191406 178.53125 373.042969 C 175.5 372.894531 172.46875 372.671875 169.445312 372.371094 C 166.421875 372.074219 163.410156 371.703125 160.402344 371.257812 C 157.398438 370.8125 154.40625 370.292969 151.425781 369.699219 C 148.449219 369.105469 145.484375 368.441406 142.539062 367.703125 C 139.589844 366.964844 136.664062 366.15625 133.757812 365.273438 C 130.851562 364.390625 127.964844 363.4375 125.105469 362.414062 C 122.246094 361.390625 119.414062 360.296875 116.605469 359.136719 C 113.796875 357.972656 111.023438 356.742188 108.277344 355.445312 C 105.53125 354.144531 102.816406 352.78125 100.136719 351.347656 C 97.457031 349.914062 94.816406 348.417969 92.210938 346.855469 C 89.605469 345.296875 87.039062 343.671875 84.511719 341.984375 C 81.988281 340.292969 79.503906 338.546875 77.0625 336.738281 C 74.625 334.925781 72.230469 333.058594 69.882812 331.132812 C 67.535156 329.203125 65.234375 327.21875 62.984375 325.179688 C 60.730469 323.140625 58.53125 321.046875 56.382812 318.898438 C 54.234375 316.75 52.140625 314.550781 50.101562 312.300781 C 48.0625 310.046875 46.078125 307.75 44.152344 305.398438 C 42.222656 303.050781 40.355469 300.65625 38.546875 298.21875 C 36.734375 295.777344 34.988281 293.292969 33.300781 290.769531 C 31.613281 288.242188 29.988281 285.675781 28.425781 283.070312 C 26.863281 280.464844 25.367188 277.824219 23.933594 275.144531 C 22.503906 272.464844 21.136719 269.753906 19.839844 267.007812 C 18.539062 264.257812 17.308594 261.484375 16.144531 258.675781 C 14.984375 255.871094 13.890625 253.035156 12.867188 250.175781 C 11.84375 247.316406 10.890625 244.433594 10.007812 241.523438 C 9.128906 238.617188 8.316406 235.691406 7.578125 232.746094 C 6.839844 229.796875 6.175781 226.835938 5.582031 223.855469 C 4.988281 220.875 4.472656 217.882812 4.023438 214.878906 C 3.578125 211.871094 3.207031 208.859375 2.910156 205.835938 C 2.613281 202.8125 2.390625 199.785156 2.238281 196.75 C 2.089844 193.714844 2.015625 190.679688 2.015625 187.640625 C 2.015625 184.601562 2.089844 181.566406 2.238281 178.53125 C 2.390625 175.5 2.613281 172.46875 2.910156 169.445312 C 3.207031 166.421875 3.578125 163.410156 4.023438 160.402344 C 4.472656 157.398438 4.988281 154.40625 5.582031 151.425781 C 6.175781 148.449219 6.839844 145.484375 7.578125 142.539062 C 8.316406 139.589844 9.128906 136.664062 10.007812 133.757812 C 10.890625 130.851562 11.84375 127.964844 12.867188 125.105469 C 13.890625 122.246094 14.984375 119.414062 16.144531 116.605469 C 17.308594 113.800781 18.539062 111.023438 19.839844 108.277344 C 21.136719 105.53125 22.503906 102.816406 23.933594 100.136719 C 25.367188 97.457031 26.863281 94.816406 28.425781 92.210938 C 29.988281 89.605469 31.613281 87.039062 33.300781 84.511719 C 34.988281 81.988281 36.734375 79.503906 38.546875 77.0625 C 40.355469 74.625 42.222656 72.230469 44.152344 69.882812 C 46.078125 67.535156 48.0625 65.234375 50.101562 62.984375 C 52.140625 60.730469 54.234375 58.53125 56.382812 56.382812 C 58.53125 54.234375 60.730469 52.140625 62.984375 50.101562 C 65.234375 48.0625 67.535156 46.078125 69.882812 44.152344 C 72.230469 42.222656 74.625 40.355469 77.0625 38.546875 C 79.503906 36.734375 81.988281 34.988281 84.511719 33.300781 C 87.039062 31.613281 89.605469 29.988281 92.210938 28.425781 C 94.816406 26.863281 97.457031 25.367188 100.136719 23.933594 C 102.816406 22.503906 105.53125 21.136719 108.277344 19.839844 C 111.023438 18.539062 113.796875 17.308594 116.605469 16.144531 C 119.414062 14.984375 122.246094 13.890625 125.105469 12.867188 C 127.964844 11.84375 130.851562 10.890625 133.757812 10.007812 C 136.664062 9.128906 139.589844 8.316406 142.539062 7.578125 C 145.484375 6.839844 148.449219 6.175781 151.425781 5.582031 C 154.40625 4.988281 157.398438 4.472656 160.402344 4.023438 C 163.410156 3.578125 166.421875 3.207031 169.445312 2.910156 C 172.46875 2.613281 175.5 2.390625 178.53125 2.238281 C 181.566406 2.089844 184.601562 2.015625 187.640625 2.015625 C 190.679688 2.015625 193.714844 2.089844 196.75 2.238281 C 199.785156 2.390625 202.8125 2.613281 205.835938 2.910156 C 208.859375 3.207031 211.871094 3.578125 214.878906 4.023438 C 217.882812 4.472656 220.875 4.988281 223.855469 5.582031 C 226.835938 6.175781 229.796875 6.839844 232.746094 7.578125 C 235.691406 8.316406 238.617188 9.128906 241.523438 10.007812 C 244.433594 10.890625 247.316406 11.84375 250.175781 12.867188 C 253.035156 13.890625 255.871094 14.984375 258.675781 16.144531 C 261.484375 17.308594 264.261719 18.539062 267.007812 19.839844 C 269.753906 21.136719 272.464844 22.503906 275.144531 23.933594 C 277.824219 25.367188 280.464844 26.863281 283.070312 28.425781 C 285.675781 29.988281 288.242188 31.613281 290.769531 33.300781 C 293.292969 34.988281 295.777344 36.734375 298.21875 38.546875 C 300.65625 40.355469 303.050781 42.222656 305.398438 44.152344 C 307.75 46.078125 310.046875 48.0625 312.300781 50.101562 C 314.550781 52.140625 316.75 54.234375 318.898438 56.382812 C 321.046875 58.53125 323.140625 60.730469 325.179688 62.984375 C 327.21875 65.234375 329.203125 67.535156 331.132812 69.882812 C 333.058594 72.230469 334.925781 74.625 336.738281 77.0625 C 338.546875 79.503906 340.292969 81.988281 341.984375 84.511719 C 343.671875 87.039062 345.296875 89.605469 346.855469 92.210938 C 348.417969 94.816406 349.914062 97.457031 351.347656 100.136719 C 352.78125 102.816406 354.144531 105.53125 355.445312 108.277344 C 356.742188 111.023438 357.972656 113.800781 359.136719 116.605469 C 360.296875 119.414062 361.390625 122.246094 362.414062 125.105469 C 363.4375 127.964844 364.390625 130.851562 365.273438 133.757812 C 366.15625 136.664062 366.964844 139.589844 367.703125 142.539062 C 368.441406 145.484375 369.105469 148.449219 369.699219 151.425781 C 370.292969 154.40625 370.8125 157.398438 371.257812 160.402344 C 371.703125 163.410156 372.074219 166.421875 372.371094 169.445312 C 372.671875 172.46875 372.894531 175.5 373.042969 178.53125 C 373.191406 181.566406 373.265625 184.601562 373.265625 187.640625 Z M 373.265625 187.640625 " fill-opacity="1" fill-rule="nonzero"/></g><g clip-path="url(#bd38ba5abc)"><path fill="#00684a" d="M 215.441406 65.171875 C 202.183594 49.488281 190.769531 33.558594 188.4375 30.25 C 188.191406 30.003906 187.824219 30.003906 187.578125 30.25 C 185.246094 33.558594 173.832031 49.488281 160.578125 65.171875 C 46.804688 209.894531 178.496094 307.5625 178.496094 307.5625 L 179.601562 308.296875 C 180.582031 323.371094 183.039062 345.058594 183.039062 345.058594 L 192.855469 345.058594 C 192.855469 345.058594 195.3125 323.492188 196.292969 308.296875 L 197.398438 307.441406 C 197.519531 307.441406 329.214844 209.894531 215.441406 65.171875 Z M 187.949219 305.355469 C 187.949219 305.355469 182.054688 300.332031 180.460938 297.757812 L 180.460938 297.511719 L 187.578125 139.921875 C 187.578125 139.433594 188.316406 139.433594 188.316406 139.921875 L 195.433594 297.511719 L 195.433594 297.757812 C 193.839844 300.332031 187.949219 305.355469 187.949219 305.355469 Z M 187.949219 305.355469 " fill-opacity="1" fill-rule="nonzero"/></g></svg>