<svg xmlns="http://www.w3.org/2000/svg" xmlns:xlink="http://www.w3.org/1999/xlink" width="500" zoomAndPan="magnify" viewBox="0 0 375 374.999991" height="500" preserveAspectRatio="xMidYMid meet" version="1.0"><defs><clipPath id="d17d23173a"><path d="M 3.433594 76.484375 L 371.683594 76.484375 L 371.683594 298.484375 L 3.433594 298.484375 Z M 3.433594 76.484375 " clip-rule="nonzero"/></clipPath></defs><g clip-path="url(#d17d23173a)"><path fill="#000000" d="M 90.359375 134.382812 L 159.792969 134.382812 L 159.792969 139.898438 L 96.722656 139.898438 L 96.722656 181.414062 L 156.03125 181.414062 L 156.03125 186.933594 L 96.722656 186.933594 L 96.722656 232.511719 L 160.511719 232.511719 L 160.511719 238.03125 L 90.359375 238.03125 Z M 166.011719 134.382812 L 173.390625 134.382812 L 206.082031 179.960938 L 239.496094 134.382812 L 284.941406 76.484375 L 210.273438 184.753906 L 248.753906 238.03125 L 241.082031 238.03125 L 206.082031 189.542969 L 170.929688 238.03125 L 163.410156 238.03125 L 202.171875 184.753906 Z M 251.5 139.898438 L 251.5 134.382812 L 330.628906 134.382812 L 330.628906 139.898438 L 294.175781 139.898438 L 294.175781 238.027344 L 287.8125 238.027344 L 287.8125 139.898438 Z M 3.496094 134.382812 L 11.449219 134.382812 L 121.15625 298.472656 L 75.824219 238.03125 L 10.152344 142.222656 L 9.863281 238.03125 L 3.5 238.03125 L 3.5 134.382812 Z M 329.980469 230.851562 C 328.6875 230.851562 327.710938 229.839844 327.710938 228.539062 C 327.710938 227.238281 328.6875 226.230469 329.980469 226.230469 C 331.296875 226.230469 332.261719 227.238281 332.261719 228.539062 C 332.261719 229.839844 331.296875 230.851562 329.980469 230.851562 Z M 336.238281 224.773438 L 339.644531 224.773438 C 339.6875 226.617188 341.039062 227.855469 343.015625 227.855469 C 345.230469 227.855469 346.480469 226.523438 346.480469 224.03125 L 346.480469 208.226562 L 349.957031 208.226562 L 349.957031 224.046875 C 349.957031 228.539062 347.351562 231.125 343.054688 231.125 C 339.011719 231.125 336.238281 228.617188 336.238281 224.773438 Z M 354.492188 224.570312 L 357.929688 224.570312 C 358.214844 226.699219 360.292969 228.042969 363.285156 228.042969 C 366.066406 228.042969 368.109375 226.605469 368.109375 224.621094 C 368.109375 222.917969 366.808594 221.890625 363.855469 221.191406 L 360.976562 220.496094 C 356.9375 219.554688 355.097656 217.597656 355.097656 214.316406 C 355.097656 210.332031 358.347656 207.6875 363.222656 207.6875 C 367.757812 207.6875 371.066406 210.332031 371.265625 214.097656 L 367.894531 214.097656 C 367.570312 212.035156 365.773438 210.75 363.171875 210.75 C 360.429688 210.75 358.605469 212.074219 358.605469 214.085938 C 358.605469 215.679688 359.785156 216.59375 362.695312 217.277344 L 365.15625 217.878906 C 369.734375 218.949219 371.625 220.8125 371.625 224.167969 C 371.625 228.445312 368.3125 231.125 363.019531 231.125 C 358.066406 231.125 354.738281 228.574219 354.492188 224.570312 Z M 354.492188 224.570312 " fill-opacity="1" fill-rule="nonzero"/></g></svg>