<svg xmlns="http://www.w3.org/2000/svg" xmlns:xlink="http://www.w3.org/1999/xlink" width="500" zoomAndPan="magnify" viewBox="0 0 375 374.999991" height="500" preserveAspectRatio="xMidYMid meet" version="1.0"><defs><clipPath id="65cc3f6966"><path d="M 44.160156 96.445312 L 330.660156 96.445312 L 330.660156 269.695312 L 44.160156 269.695312 Z M 44.160156 96.445312 " clip-rule="nonzero"/></clipPath></defs><path fill="#000000" d="M 369 187.5 C 369 190.46875 368.925781 193.4375 368.78125 196.40625 C 368.632812 199.371094 368.414062 202.332031 368.125 205.289062 C 367.832031 208.246094 367.46875 211.191406 367.035156 214.128906 C 366.597656 217.070312 366.089844 219.992188 365.511719 222.90625 C 364.929688 225.820312 364.28125 228.71875 363.558594 231.597656 C 362.835938 234.480469 362.046875 237.34375 361.183594 240.183594 C 360.320312 243.027344 359.390625 245.847656 358.390625 248.644531 C 357.386719 251.441406 356.320312 254.210938 355.183594 256.957031 C 354.046875 259.699219 352.84375 262.414062 351.574219 265.101562 C 350.300781 267.785156 348.96875 270.4375 347.566406 273.058594 C 346.167969 275.675781 344.703125 278.261719 343.175781 280.808594 C 341.648438 283.355469 340.058594 285.863281 338.410156 288.335938 C 336.761719 290.804688 335.050781 293.230469 333.28125 295.617188 C 331.511719 298.003906 329.683594 300.34375 327.800781 302.640625 C 325.914062 304.9375 323.976562 307.1875 321.980469 309.386719 C 319.988281 311.585938 317.9375 313.738281 315.839844 315.839844 C 313.738281 317.9375 311.585938 319.988281 309.386719 321.980469 C 307.1875 323.976562 304.9375 325.914062 302.640625 327.800781 C 300.34375 329.683594 298.003906 331.511719 295.617188 333.28125 C 293.230469 335.050781 290.804688 336.761719 288.335938 338.410156 C 285.863281 340.058594 283.355469 341.648438 280.808594 343.175781 C 278.261719 344.703125 275.675781 346.167969 273.058594 347.566406 C 270.4375 348.96875 267.785156 350.300781 265.101562 351.574219 C 262.414062 352.84375 259.699219 354.046875 256.957031 355.183594 C 254.210938 356.320312 251.441406 357.386719 248.644531 358.390625 C 245.847656 359.390625 243.027344 360.320312 240.183594 361.183594 C 237.34375 362.046875 234.480469 362.835938 231.597656 363.558594 C 228.71875 364.28125 225.820312 364.929688 222.90625 365.511719 C 219.992188 366.089844 217.066406 366.597656 214.128906 367.035156 C 211.191406 367.46875 208.246094 367.832031 205.289062 368.125 C 202.332031 368.414062 199.371094 368.632812 196.40625 368.78125 C 193.4375 368.925781 190.46875 369 187.5 369 C 184.527344 369 181.558594 368.925781 178.59375 368.78125 C 175.625 368.632812 172.664062 368.414062 169.707031 368.125 C 166.753906 367.832031 163.804688 367.46875 160.867188 367.035156 C 157.929688 366.597656 155.003906 366.089844 152.089844 365.511719 C 149.175781 364.929688 146.277344 364.28125 143.398438 363.558594 C 140.515625 362.835938 137.65625 362.046875 134.8125 361.183594 C 131.96875 360.320312 129.148438 359.390625 126.351562 358.390625 C 123.554688 357.386719 120.785156 356.320312 118.042969 355.183594 C 115.296875 354.046875 112.582031 352.84375 109.898438 351.574219 C 107.210938 350.300781 104.558594 348.96875 101.941406 347.566406 C 99.320312 346.167969 96.738281 344.703125 94.1875 343.175781 C 91.640625 341.648438 89.132812 340.058594 86.664062 338.410156 C 84.191406 336.761719 81.765625 335.050781 79.378906 333.28125 C 76.992188 331.511719 74.652344 329.683594 72.355469 327.800781 C 70.058594 325.914062 67.8125 323.976562 65.609375 321.980469 C 63.410156 319.988281 61.257812 317.9375 59.160156 315.839844 C 57.058594 313.738281 55.011719 311.585938 53.015625 309.386719 C 51.019531 307.1875 49.082031 304.9375 47.195312 302.640625 C 45.3125 300.34375 43.484375 298.003906 41.714844 295.617188 C 39.945312 293.230469 38.238281 290.804688 36.585938 288.335938 C 34.9375 285.863281 33.347656 283.355469 31.820312 280.808594 C 30.292969 278.261719 28.828125 275.675781 27.429688 273.058594 C 26.03125 270.4375 24.695312 267.785156 23.425781 265.101562 C 22.15625 262.414062 20.949219 259.699219 19.8125 256.957031 C 18.675781 254.210938 17.609375 251.441406 16.609375 248.644531 C 15.609375 245.847656 14.675781 243.027344 13.8125 240.183594 C 12.953125 237.34375 12.160156 234.480469 11.4375 231.597656 C 10.714844 228.71875 10.066406 225.820312 9.484375 222.90625 C 8.90625 219.992188 8.398438 217.066406 7.964844 214.128906 C 7.527344 211.191406 7.164062 208.246094 6.871094 205.289062 C 6.582031 202.332031 6.363281 199.371094 6.21875 196.40625 C 6.070312 193.4375 6 190.46875 6 187.5 C 6 184.527344 6.070312 181.558594 6.21875 178.59375 C 6.363281 175.625 6.582031 172.664062 6.871094 169.707031 C 7.164062 166.753906 7.527344 163.804688 7.964844 160.867188 C 8.398438 157.929688 8.90625 155.003906 9.484375 152.089844 C 10.066406 149.175781 10.714844 146.277344 11.4375 143.398438 C 12.160156 140.515625 12.953125 137.65625 13.8125 134.8125 C 14.675781 131.96875 15.609375 129.148438 16.609375 126.351562 C 17.609375 123.554688 18.675781 120.785156 19.8125 118.042969 C 20.949219 115.296875 22.15625 112.582031 23.425781 109.898438 C 24.695312 107.210938 26.03125 104.558594 27.429688 101.941406 C 28.832031 99.320312 30.292969 96.738281 31.820312 94.1875 C 33.347656 91.640625 34.9375 89.132812 36.585938 86.664062 C 38.238281 84.191406 39.945312 81.765625 41.714844 79.378906 C 43.484375 76.992188 45.3125 74.652344 47.195312 72.355469 C 49.082031 70.058594 51.019531 67.8125 53.015625 65.609375 C 55.011719 63.410156 57.058594 61.257812 59.160156 59.160156 C 61.257812 57.058594 63.410156 55.011719 65.609375 53.015625 C 67.8125 51.019531 70.058594 49.082031 72.355469 47.195312 C 74.652344 45.3125 76.992188 43.484375 79.378906 41.714844 C 81.765625 39.945312 84.191406 38.238281 86.664062 36.585938 C 89.132812 34.9375 91.640625 33.347656 94.1875 31.820312 C 96.738281 30.292969 99.320312 28.828125 101.941406 27.429688 C 104.558594 26.03125 107.210938 24.695312 109.898438 23.425781 C 112.582031 22.15625 115.296875 20.949219 118.042969 19.8125 C 120.785156 18.675781 123.554688 17.609375 126.351562 16.609375 C 129.148438 15.609375 131.96875 14.675781 134.8125 13.8125 C 137.65625 12.953125 140.515625 12.160156 143.398438 11.4375 C 146.277344 10.714844 149.175781 10.066406 152.089844 9.484375 C 155.003906 8.90625 157.929688 8.398438 160.867188 7.964844 C 163.804688 7.527344 166.753906 7.164062 169.707031 6.871094 C 172.664062 6.582031 175.625 6.363281 178.59375 6.21875 C 181.558594 6.070312 184.527344 6 187.5 6 C 190.46875 6 193.4375 6.070312 196.40625 6.21875 C 199.371094 6.363281 202.332031 6.582031 205.289062 6.871094 C 208.246094 7.164062 211.191406 7.527344 214.128906 7.964844 C 217.066406 8.398438 219.992188 8.90625 222.90625 9.484375 C 225.820312 10.066406 228.71875 10.714844 231.597656 11.4375 C 234.480469 12.160156 237.34375 12.953125 240.183594 13.8125 C 243.027344 14.675781 245.847656 15.609375 248.644531 16.609375 C 251.441406 17.609375 254.210938 18.675781 256.957031 19.8125 C 259.699219 20.949219 262.414062 22.15625 265.101562 23.425781 C 267.785156 24.695312 270.4375 26.03125 273.058594 27.429688 C 275.675781 28.828125 278.261719 30.292969 280.808594 31.820312 C 283.355469 33.347656 285.863281 34.9375 288.335938 36.585938 C 290.804688 38.238281 293.230469 39.945312 295.617188 41.714844 C 298.003906 43.484375 300.34375 45.3125 302.640625 47.195312 C 304.9375 49.082031 307.1875 51.019531 309.386719 53.015625 C 311.585938 55.011719 313.738281 57.058594 315.839844 59.160156 C 317.9375 61.257812 319.988281 63.410156 321.980469 65.609375 C 323.976562 67.8125 325.914062 70.058594 327.800781 72.355469 C 329.683594 74.652344 331.511719 76.992188 333.28125 79.378906 C 335.050781 81.765625 336.761719 84.191406 338.410156 86.664062 C 340.058594 89.132812 341.648438 91.640625 343.175781 94.1875 C 344.703125 96.738281 346.167969 99.320312 347.566406 101.941406 C 348.96875 104.558594 350.300781 107.210938 351.574219 109.898438 C 352.84375 112.582031 354.046875 115.296875 355.183594 118.042969 C 356.320312 120.785156 357.386719 123.554688 358.390625 126.351562 C 359.390625 129.148438 360.320312 131.96875 361.183594 134.8125 C 362.046875 137.65625 362.835938 140.515625 363.558594 143.398438 C 364.28125 146.277344 364.929688 149.175781 365.511719 152.089844 C 366.089844 155.003906 366.597656 157.929688 367.035156 160.867188 C 367.46875 163.804688 367.832031 166.753906 368.125 169.707031 C 368.414062 172.664062 368.632812 175.625 368.78125 178.59375 C 368.925781 181.558594 369 184.527344 369 187.5 Z M 369 187.5 " fill-opacity="1" fill-rule="nonzero"/><g clip-path="url(#65cc3f6966)"><path fill="#ffffff" d="M 111.785156 141.628906 L 165.804688 141.628906 L 165.804688 145.933594 L 116.738281 145.933594 L 116.738281 178.328125 L 162.878906 178.328125 L 162.878906 182.636719 L 116.738281 182.636719 L 116.738281 218.207031 L 166.367188 218.207031 L 166.367188 222.515625 L 111.785156 222.515625 L 111.785156 141.625 Z M 170.644531 141.628906 L 176.382812 141.628906 L 201.820312 177.195312 L 227.8125 141.628906 L 263.171875 96.445312 L 205.082031 180.9375 L 235.019531 222.515625 L 229.050781 222.515625 L 201.820312 184.671875 L 174.472656 222.515625 L 168.621094 222.515625 L 198.777344 180.9375 Z M 237.15625 145.933594 L 237.15625 141.628906 L 298.714844 141.628906 L 298.714844 145.933594 L 270.355469 145.933594 L 270.355469 222.511719 L 265.402344 222.511719 L 265.402344 145.933594 L 237.15625 145.929688 Z M 44.207031 141.628906 L 50.398438 141.628906 L 135.746094 269.683594 L 100.480469 222.515625 L 49.386719 147.746094 L 49.164062 222.515625 L 44.210938 222.515625 L 44.210938 141.628906 Z M 298.210938 216.910156 C 297.203125 216.910156 296.445312 216.121094 296.445312 215.105469 C 296.445312 214.089844 297.203125 213.304688 298.210938 213.304688 C 299.234375 213.304688 299.984375 214.089844 299.984375 215.105469 C 299.984375 216.121094 299.234375 216.910156 298.210938 216.910156 Z M 303.078125 212.167969 L 305.730469 212.167969 C 305.761719 213.609375 306.816406 214.574219 308.351562 214.574219 C 310.074219 214.574219 311.050781 213.535156 311.050781 211.589844 L 311.050781 199.253906 L 313.75 199.253906 L 313.75 211.601562 C 313.75 215.105469 311.726562 217.125 308.382812 217.125 C 305.238281 217.125 303.078125 215.167969 303.078125 212.167969 Z M 317.28125 212.007812 L 319.953125 212.007812 C 320.179688 213.667969 321.796875 214.71875 324.121094 214.71875 C 326.285156 214.71875 327.875 213.597656 327.875 212.050781 C 327.875 210.71875 326.863281 209.917969 324.5625 209.375 L 322.328125 208.828125 C 319.183594 208.09375 317.75 206.570312 317.75 204.007812 C 317.75 200.898438 320.277344 198.835938 324.070312 198.835938 C 327.601562 198.835938 330.175781 200.898438 330.332031 203.835938 L 327.707031 203.835938 C 327.457031 202.226562 326.058594 201.222656 324.03125 201.222656 C 321.902344 201.222656 320.480469 202.257812 320.480469 203.828125 C 320.480469 205.070312 321.398438 205.785156 323.664062 206.316406 L 325.578125 206.789062 C 329.140625 207.625 330.609375 209.078125 330.609375 211.695312 C 330.609375 215.03125 328.03125 217.125 323.914062 217.125 C 320.0625 217.125 317.472656 215.132812 317.28125 212.007812 Z M 317.28125 212.007812 " fill-opacity="1" fill-rule="nonzero"/></g></svg>