<svg xmlns="http://www.w3.org/2000/svg" xmlns:xlink="http://www.w3.org/1999/xlink" width="500" zoomAndPan="magnify" viewBox="0 0 375 374.999991" height="500" preserveAspectRatio="xMidYMid meet" version="1.0"><defs><clipPath id="6baf8a264e"><path d="M 24 4 L 350.820312 4 L 350.820312 372 L 24 372 Z M 24 4 " clip-rule="nonzero"/></clipPath></defs><g clip-path="url(#6baf8a264e)"><path fill="#539e43" d="M 187.320312 371.972656 C 182.25 371.972656 177.527344 370.621094 173.144531 368.261719 L 128.257812 341.5625 C 121.511719 337.851562 124.882812 336.5 126.910156 335.824219 C 136.019531 332.777344 137.707031 332.101562 147.160156 326.695312 C 148.171875 326.019531 149.523438 326.363281 150.535156 327.039062 L 184.949219 347.644531 C 186.300781 348.320312 187.996094 348.320312 189.011719 347.644531 L 323.660156 269.597656 C 325.007812 268.921875 325.683594 267.570312 325.683594 265.875 L 325.683594 110.101562 C 325.683594 108.414062 325.007812 107.0625 323.660156 106.386719 L 189.011719 28.667969 C 187.664062 27.992188 185.96875 27.992188 184.949219 28.667969 L 50.304688 106.386719 C 48.949219 107.0625 48.277344 108.753906 48.277344 110.105469 L 48.277344 265.878906 C 48.277344 267.230469 48.949219 268.925781 50.300781 269.601562 L 87.085938 290.882812 C 107 301.019531 119.484375 289.199219 119.484375 277.367188 L 119.484375 123.621094 C 119.484375 121.59375 121.171875 119.566406 123.535156 119.566406 L 140.746094 119.566406 C 142.773438 119.566406 144.796875 121.257812 144.796875 123.621094 L 144.796875 277.367188 C 144.796875 304.066406 130.285156 319.609375 104.972656 319.609375 C 97.210938 319.609375 91.136719 319.609375 73.925781 311.15625 L 38.488281 290.882812 C 29.714844 285.820312 24.3125 276.359375 24.3125 266.222656 L 24.3125 110.449219 C 24.3125 100.308594 29.714844 90.847656 38.488281 85.777344 L 173.144531 7.722656 C 181.578125 2.992188 193.0625 2.992188 201.492188 7.722656 L 336.152344 85.777344 C 344.925781 90.84375 350.324219 100.304688 350.324219 110.445312 L 350.324219 266.21875 C 350.324219 276.355469 344.925781 285.816406 336.152344 290.875 L 201.492188 368.933594 C 197.113281 370.960938 192.042969 371.96875 187.320312 371.96875 Z M 228.835938 264.867188 C 169.769531 264.867188 157.621094 237.824219 157.621094 214.847656 C 157.621094 212.820312 159.304688 210.792969 161.671875 210.792969 L 179.21875 210.792969 C 181.246094 210.792969 182.925781 212.144531 182.925781 214.171875 C 185.625 232.085938 193.394531 240.871094 229.167969 240.871094 C 257.515625 240.871094 269.664062 234.445312 269.664062 219.246094 C 269.664062 210.460938 266.289062 204.035156 222.085938 199.648438 C 185.292969 195.925781 162.347656 187.816406 162.347656 158.425781 C 162.347656 131.054688 185.292969 114.835938 223.765625 114.835938 C 266.964844 114.835938 288.230469 129.703125 290.929688 162.136719 C 290.929688 163.15625 290.585938 164.164062 289.910156 165.183594 C 289.234375 165.859375 288.230469 166.535156 287.210938 166.535156 L 269.664062 166.535156 C 267.980469 166.535156 266.289062 165.183594 265.957031 163.488281 C 261.90625 144.910156 251.4375 138.828125 223.765625 138.828125 C 192.71875 138.828125 189.011719 149.640625 189.011719 157.75 C 189.011719 167.542969 193.394531 170.589844 235.242188 175.996094 C 276.757812 181.402344 296.328125 189.167969 296.328125 218.226562 C 295.984375 247.960938 271.6875 264.867188 228.835938 264.867188 Z M 228.835938 264.867188 " fill-opacity="1" fill-rule="nonzero"/></g></svg>