<svg xmlns="http://www.w3.org/2000/svg" xmlns:xlink="http://www.w3.org/1999/xlink" width="500" zoomAndPan="magnify" viewBox="0 0 375 374.999991" height="500" preserveAspectRatio="xMidYMid meet" version="1.0"><defs><clipPath id="eb9f6695a2"><path d="M 15.199219 28.554688 L 359.449219 28.554688 L 359.449219 346.554688 L 15.199219 346.554688 Z M 15.199219 28.554688 " clip-rule="nonzero"/></clipPath></defs><g clip-path="url(#eb9f6695a2)"><path fill="#646269" d="M 321.5 28.554688 L 53.152344 28.554688 C 51.914062 28.554688 50.675781 28.613281 49.441406 28.734375 C 48.210938 28.855469 46.984375 29.039062 45.769531 29.28125 C 44.554688 29.523438 43.351562 29.824219 42.167969 30.183594 C 40.980469 30.546875 39.816406 30.964844 38.667969 31.4375 C 37.523438 31.914062 36.40625 32.441406 35.3125 33.027344 C 34.21875 33.613281 33.15625 34.25 32.128906 34.941406 C 31.097656 35.628906 30.101562 36.367188 29.144531 37.15625 C 28.1875 37.941406 27.269531 38.773438 26.390625 39.652344 C 25.515625 40.53125 24.683594 41.449219 23.898438 42.40625 C 23.113281 43.367188 22.375 44.363281 21.6875 45.394531 C 20.996094 46.425781 20.359375 47.488281 19.777344 48.585938 C 19.191406 49.679688 18.664062 50.800781 18.1875 51.945312 C 17.714844 53.09375 17.296875 54.261719 16.9375 55.449219 C 16.578125 56.636719 16.277344 57.839844 16.035156 59.054688 C 15.792969 60.273438 15.613281 61.5 15.492188 62.734375 C 15.367188 63.96875 15.308594 65.207031 15.308594 66.449219 L 15.308594 308.660156 C 15.308594 309.898438 15.367188 311.136719 15.492188 312.371094 C 15.613281 313.609375 15.792969 314.832031 16.035156 316.050781 C 16.277344 317.269531 16.578125 318.472656 16.9375 319.660156 C 17.296875 320.847656 17.714844 322.011719 18.1875 323.160156 C 18.664062 324.304688 19.191406 325.425781 19.777344 326.523438 C 20.359375 327.617188 20.996094 328.679688 21.6875 329.710938 C 22.375 330.742188 23.113281 331.738281 23.898438 332.699219 C 24.683594 333.65625 25.515625 334.578125 26.390625 335.453125 C 27.269531 336.332031 28.1875 337.164062 29.144531 337.953125 C 30.101562 338.738281 31.097656 339.476562 32.128906 340.167969 C 33.15625 340.855469 34.21875 341.492188 35.3125 342.078125 C 36.40625 342.664062 37.523438 343.195312 38.667969 343.667969 C 39.816406 344.144531 40.980469 344.5625 42.167969 344.921875 C 43.351562 345.28125 44.554688 345.582031 45.769531 345.824219 C 46.984375 346.066406 48.210938 346.25 49.441406 346.371094 C 50.675781 346.492188 51.914062 346.554688 53.152344 346.554688 L 321.5 346.554688 C 322.738281 346.554688 323.972656 346.492188 325.207031 346.371094 C 326.441406 346.25 327.664062 346.066406 328.882812 345.824219 C 330.097656 345.582031 331.296875 345.28125 332.484375 344.921875 C 333.667969 344.5625 334.835938 344.144531 335.980469 343.667969 C 337.125 343.195312 338.246094 342.664062 339.335938 342.078125 C 340.429688 341.492188 341.492188 340.855469 342.523438 340.167969 C 343.554688 339.476562 344.546875 338.738281 345.503906 337.953125 C 346.464844 337.164062 347.382812 336.332031 348.257812 335.453125 C 349.132812 334.578125 349.964844 333.65625 350.75 332.699219 C 351.539062 331.738281 352.273438 330.742188 352.964844 329.710938 C 353.652344 328.679688 354.289062 327.617188 354.875 326.523438 C 355.457031 325.425781 355.988281 324.304688 356.460938 323.160156 C 356.933594 322.011719 357.351562 320.847656 357.710938 319.660156 C 358.070312 318.472656 358.371094 317.269531 358.613281 316.050781 C 358.855469 314.832031 359.039062 313.609375 359.160156 312.371094 C 359.28125 311.136719 359.339844 309.898438 359.339844 308.660156 L 359.339844 66.449219 C 359.339844 65.207031 359.28125 63.96875 359.160156 62.734375 C 359.039062 61.5 358.855469 60.273438 358.613281 59.054688 C 358.371094 57.839844 358.070312 56.636719 357.710938 55.449219 C 357.351562 54.261719 356.933594 53.09375 356.460938 51.945312 C 355.988281 50.800781 355.457031 49.679688 354.875 48.585938 C 354.289062 47.488281 353.652344 46.425781 352.964844 45.394531 C 352.273438 44.363281 351.539062 43.367188 350.75 42.40625 C 349.964844 41.449219 349.132812 40.53125 348.257812 39.652344 C 347.382812 38.773438 346.464844 37.941406 345.507812 37.15625 C 344.546875 36.367188 343.554688 35.628906 342.523438 34.941406 C 341.492188 34.25 340.429688 33.613281 339.335938 33.027344 C 338.246094 32.441406 337.125 31.914062 335.980469 31.4375 C 334.835938 30.964844 333.667969 30.546875 332.484375 30.183594 C 331.296875 29.824219 330.097656 29.523438 328.882812 29.28125 C 327.664062 29.039062 326.441406 28.855469 325.207031 28.734375 C 323.972656 28.613281 322.738281 28.554688 321.5 28.554688 Z M 332.878906 308.660156 C 332.867188 309.402344 332.789062 310.140625 332.636719 310.871094 C 332.484375 311.601562 332.265625 312.3125 331.976562 313 C 331.6875 313.6875 331.335938 314.339844 330.921875 314.957031 C 330.503906 315.578125 330.035156 316.148438 329.507812 316.675781 C 328.980469 317.203125 328.40625 317.675781 327.789062 318.09375 C 327.171875 318.507812 326.519531 318.863281 325.832031 319.152344 C 325.144531 319.441406 324.4375 319.660156 323.710938 319.8125 C 322.980469 319.964844 322.242188 320.042969 321.5 320.054688 L 53.152344 320.054688 C 52.40625 320.042969 51.671875 319.964844 50.941406 319.8125 C 50.210938 319.660156 49.503906 319.441406 48.816406 319.152344 C 48.132812 318.863281 47.480469 318.507812 46.859375 318.09375 C 46.242188 317.675781 45.671875 317.203125 45.144531 316.675781 C 44.617188 316.148438 44.144531 315.578125 43.730469 314.957031 C 43.316406 314.339844 42.960938 313.6875 42.671875 313 C 42.382812 312.3125 42.164062 311.601562 42.011719 310.871094 C 41.859375 310.140625 41.78125 309.402344 41.773438 308.660156 L 41.773438 66.449219 C 41.78125 65.703125 41.859375 64.964844 42.011719 64.234375 C 42.164062 63.503906 42.382812 62.796875 42.671875 62.109375 C 42.960938 61.421875 43.316406 60.765625 43.730469 60.148438 C 44.144531 59.53125 44.617188 58.957031 45.144531 58.429688 C 45.671875 57.902344 46.242188 57.429688 46.859375 57.011719 C 47.480469 56.597656 48.132812 56.246094 48.816406 55.957031 C 49.503906 55.667969 50.210938 55.445312 50.941406 55.292969 C 51.671875 55.140625 52.40625 55.0625 53.152344 55.054688 L 321.5 55.054688 C 322.242188 55.0625 322.980469 55.140625 323.710938 55.292969 C 324.4375 55.445312 325.144531 55.667969 325.832031 55.957031 C 326.519531 56.246094 327.171875 56.597656 327.789062 57.011719 C 328.40625 57.429688 328.980469 57.902344 329.507812 58.429688 C 330.035156 58.957031 330.503906 59.53125 330.921875 60.148438 C 331.335938 60.765625 331.6875 61.421875 331.976562 62.109375 C 332.265625 62.796875 332.484375 63.503906 332.636719 64.234375 C 332.789062 64.964844 332.867188 65.703125 332.878906 66.449219 Z M 332.878906 308.660156 " fill-opacity="1" fill-rule="nonzero"/></g><path fill="#646269" d="M 279.949219 108.054688 L 94.699219 108.054688 C 93.832031 108.054688 92.972656 108.136719 92.121094 108.308594 C 91.265625 108.476562 90.441406 108.730469 89.636719 109.0625 C 88.835938 109.394531 88.070312 109.804688 87.347656 110.285156 C 86.625 110.769531 85.957031 111.320312 85.34375 111.933594 C 84.730469 112.550781 84.179688 113.21875 83.699219 113.941406 C 83.214844 114.664062 82.808594 115.429688 82.476562 116.234375 C 82.144531 117.035156 81.890625 117.863281 81.722656 118.71875 C 81.554688 119.570312 81.46875 120.433594 81.46875 121.304688 C 81.46875 122.171875 81.554688 123.035156 81.722656 123.886719 C 81.890625 124.742188 82.144531 125.570312 82.476562 126.375 C 82.808594 127.175781 83.214844 127.941406 83.699219 128.664062 C 84.179688 129.386719 84.730469 130.058594 85.34375 130.671875 C 85.957031 131.289062 86.625 131.835938 87.347656 132.320312 C 88.070312 132.804688 88.835938 133.210938 89.636719 133.542969 C 90.441406 133.878906 91.265625 134.128906 92.121094 134.296875 C 92.972656 134.46875 93.832031 134.554688 94.699219 134.554688 L 279.949219 134.554688 C 280.816406 134.554688 281.679688 134.46875 282.53125 134.296875 C 283.382812 134.128906 284.210938 133.878906 285.011719 133.542969 C 285.816406 133.210938 286.578125 132.804688 287.300781 132.320312 C 288.023438 131.835938 288.691406 131.289062 289.304688 130.671875 C 289.921875 130.058594 290.46875 129.386719 290.953125 128.664062 C 291.433594 127.941406 291.839844 127.175781 292.175781 126.375 C 292.507812 125.570312 292.757812 124.742188 292.925781 123.886719 C 293.097656 123.035156 293.179688 122.171875 293.179688 121.304688 C 293.179688 120.433594 293.097656 119.570312 292.925781 118.71875 C 292.757812 117.863281 292.507812 117.035156 292.175781 116.234375 C 291.839844 115.429688 291.433594 114.664062 290.953125 113.941406 C 290.46875 113.21875 289.921875 112.550781 289.304688 111.933594 C 288.691406 111.320312 288.023438 110.769531 287.300781 110.285156 C 286.578125 109.804688 285.816406 109.394531 285.011719 109.0625 C 284.210938 108.730469 283.382812 108.476562 282.53125 108.308594 C 281.679688 108.136719 280.816406 108.054688 279.949219 108.054688 Z M 279.949219 108.054688 " fill-opacity="1" fill-rule="nonzero"/><path fill="#646269" d="M 279.949219 174.304688 L 94.699219 174.304688 C 93.832031 174.304688 92.972656 174.386719 92.121094 174.558594 C 91.265625 174.726562 90.441406 174.980469 89.636719 175.3125 C 88.835938 175.644531 88.070312 176.054688 87.347656 176.535156 C 86.625 177.019531 85.957031 177.570312 85.34375 178.183594 C 84.730469 178.800781 84.179688 179.46875 83.699219 180.191406 C 83.214844 180.914062 82.808594 181.679688 82.476562 182.484375 C 82.144531 183.285156 81.890625 184.113281 81.722656 184.96875 C 81.554688 185.820312 81.46875 186.683594 81.46875 187.554688 C 81.46875 188.421875 81.554688 189.285156 81.722656 190.136719 C 81.890625 190.992188 82.144531 191.820312 82.476562 192.625 C 82.808594 193.425781 83.214844 194.191406 83.699219 194.914062 C 84.179688 195.636719 84.730469 196.308594 85.34375 196.921875 C 85.957031 197.539062 86.625 198.085938 87.347656 198.570312 C 88.070312 199.054688 88.835938 199.460938 89.636719 199.792969 C 90.441406 200.128906 91.265625 200.378906 92.121094 200.546875 C 92.972656 200.71875 93.832031 200.804688 94.699219 200.804688 L 279.949219 200.804688 C 280.816406 200.804688 281.679688 200.71875 282.53125 200.546875 C 283.382812 200.378906 284.210938 200.128906 285.011719 199.792969 C 285.816406 199.460938 286.578125 199.054688 287.300781 198.570312 C 288.023438 198.085938 288.691406 197.539062 289.304688 196.921875 C 289.921875 196.308594 290.46875 195.636719 290.953125 194.914062 C 291.433594 194.191406 291.839844 193.425781 292.175781 192.625 C 292.507812 191.820312 292.757812 190.992188 292.925781 190.136719 C 293.097656 189.285156 293.179688 188.421875 293.179688 187.554688 C 293.179688 186.683594 293.097656 185.820312 292.925781 184.96875 C 292.757812 184.113281 292.507812 183.285156 292.175781 182.484375 C 291.839844 181.679688 291.433594 180.914062 290.953125 180.191406 C 290.46875 179.46875 289.921875 178.800781 289.304688 178.183594 C 288.691406 177.570312 288.023438 177.019531 287.300781 176.535156 C 286.578125 176.054688 285.816406 175.644531 285.011719 175.3125 C 284.210938 174.980469 283.382812 174.726562 282.53125 174.558594 C 281.679688 174.386719 280.816406 174.304688 279.949219 174.304688 Z M 279.949219 174.304688 " fill-opacity="1" fill-rule="nonzero"/><path fill="#646269" d="M 279.949219 240.554688 L 94.699219 240.554688 C 93.832031 240.554688 92.972656 240.636719 92.121094 240.808594 C 91.265625 240.976562 90.441406 241.230469 89.636719 241.5625 C 88.835938 241.894531 88.070312 242.304688 87.347656 242.785156 C 86.625 243.269531 85.957031 243.820312 85.34375 244.433594 C 84.730469 245.050781 84.179688 245.71875 83.699219 246.441406 C 83.214844 247.164062 82.808594 247.929688 82.476562 248.734375 C 82.144531 249.535156 81.890625 250.363281 81.722656 251.21875 C 81.554688 252.070312 81.46875 252.933594 81.46875 253.804688 C 81.46875 254.671875 81.554688 255.535156 81.722656 256.386719 C 81.890625 257.242188 82.144531 258.070312 82.476562 258.875 C 82.808594 259.675781 83.214844 260.441406 83.699219 261.164062 C 84.179688 261.886719 84.730469 262.558594 85.34375 263.171875 C 85.957031 263.789062 86.625 264.335938 87.347656 264.820312 C 88.070312 265.304688 88.835938 265.710938 89.636719 266.042969 C 90.441406 266.378906 91.265625 266.628906 92.121094 266.796875 C 92.972656 266.96875 93.832031 267.054688 94.699219 267.054688 L 279.949219 267.054688 C 280.816406 267.054688 281.679688 266.96875 282.53125 266.796875 C 283.382812 266.628906 284.210938 266.378906 285.011719 266.042969 C 285.816406 265.710938 286.578125 265.304688 287.300781 264.820312 C 288.023438 264.335938 288.691406 263.789062 289.304688 263.171875 C 289.921875 262.558594 290.46875 261.886719 290.953125 261.164062 C 291.433594 260.441406 291.839844 259.675781 292.175781 258.875 C 292.507812 258.070312 292.757812 257.242188 292.925781 256.386719 C 293.097656 255.535156 293.179688 254.671875 293.179688 253.804688 C 293.179688 252.933594 293.097656 252.070312 292.925781 251.21875 C 292.757812 250.363281 292.507812 249.535156 292.175781 248.734375 C 291.839844 247.929688 291.433594 247.164062 290.953125 246.441406 C 290.46875 245.71875 289.921875 245.050781 289.304688 244.433594 C 288.691406 243.820312 288.023438 243.269531 287.300781 242.785156 C 286.578125 242.304688 285.816406 241.894531 285.011719 241.5625 C 284.210938 241.230469 283.382812 240.976562 282.53125 240.808594 C 281.679688 240.636719 280.816406 240.554688 279.949219 240.554688 Z M 279.949219 240.554688 " fill-opacity="1" fill-rule="nonzero"/></svg>