<svg xmlns="http://www.w3.org/2000/svg" xmlns:xlink="http://www.w3.org/1999/xlink" width="500" zoomAndPan="magnify" viewBox="0 0 375 374.999991" height="500" preserveAspectRatio="xMidYMid meet" version="1.0"><defs><clipPath id="556ea88391"><path d="M 6.046875 6.046875 L 369.046875 6.046875 L 369.046875 369.046875 L 6.046875 369.046875 Z M 6.046875 6.046875 " clip-rule="nonzero"/></clipPath></defs><g clip-path="url(#556ea88391)"><path fill="#e6e6e6" d="M 369.046875 187.546875 C 369.046875 190.519531 368.976562 193.488281 368.828125 196.453125 C 368.683594 199.421875 368.464844 202.382812 368.175781 205.339844 C 367.882812 208.292969 367.519531 211.242188 367.082031 214.179688 C 366.648438 217.117188 366.140625 220.042969 365.5625 222.957031 C 364.980469 225.871094 364.332031 228.769531 363.609375 231.648438 C 362.886719 234.53125 362.09375 237.390625 361.234375 240.234375 C 360.371094 243.078125 359.4375 245.898438 358.4375 248.695312 C 357.4375 251.492188 356.371094 254.261719 355.234375 257.003906 C 354.097656 259.75 352.890625 262.464844 351.621094 265.148438 C 350.351562 267.835938 349.015625 270.488281 347.617188 273.105469 C 346.21875 275.726562 344.753906 278.308594 343.226562 280.859375 C 341.699219 283.40625 340.109375 285.914062 338.460938 288.382812 C 336.808594 290.855469 335.101562 293.28125 333.332031 295.667969 C 331.5625 298.054688 329.734375 300.394531 327.851562 302.691406 C 325.964844 304.988281 324.027344 307.234375 322.03125 309.4375 C 320.035156 311.636719 317.988281 313.789062 315.886719 315.886719 C 313.789062 317.988281 311.636719 320.035156 309.4375 322.03125 C 307.234375 324.027344 304.988281 325.964844 302.691406 327.851562 C 300.394531 329.734375 298.054688 331.5625 295.667969 333.332031 C 293.28125 335.101562 290.855469 336.808594 288.382812 338.460938 C 285.914062 340.109375 283.40625 341.699219 280.859375 343.226562 C 278.308594 344.753906 275.726562 346.214844 273.105469 347.617188 C 270.488281 349.015625 267.835938 350.351562 265.148438 351.621094 C 262.464844 352.890625 259.75 354.097656 257.003906 355.234375 C 254.261719 356.371094 251.492188 357.4375 248.695312 358.4375 C 245.898438 359.4375 243.078125 360.371094 240.234375 361.234375 C 237.390625 362.09375 234.53125 362.886719 231.648438 363.609375 C 228.769531 364.332031 225.871094 364.980469 222.957031 365.5625 C 220.042969 366.140625 217.117188 366.648438 214.179688 367.082031 C 211.242188 367.519531 208.292969 367.882812 205.339844 368.175781 C 202.382812 368.464844 199.421875 368.683594 196.453125 368.828125 C 193.488281 368.976562 190.519531 369.046875 187.546875 369.046875 C 184.578125 369.046875 181.609375 368.976562 178.644531 368.828125 C 175.675781 368.683594 172.714844 368.464844 169.757812 368.175781 C 166.800781 367.882812 163.855469 367.519531 160.917969 367.082031 C 157.980469 366.648438 155.054688 366.140625 152.140625 365.5625 C 149.226562 364.980469 146.328125 364.332031 143.449219 363.609375 C 140.566406 362.886719 137.703125 362.09375 134.863281 361.234375 C 132.019531 360.371094 129.199219 359.4375 126.402344 358.4375 C 123.605469 357.4375 120.835938 356.371094 118.089844 355.234375 C 115.347656 354.097656 112.632812 352.890625 109.945312 351.621094 C 107.261719 350.351562 104.609375 349.015625 101.988281 347.617188 C 99.371094 346.21875 96.785156 344.753906 94.238281 343.226562 C 91.691406 341.699219 89.183594 340.109375 86.710938 338.460938 C 84.242188 336.808594 81.816406 335.101562 79.429688 333.332031 C 77.042969 331.5625 74.703125 329.734375 72.40625 327.851562 C 70.109375 325.964844 67.859375 324.027344 65.660156 322.03125 C 63.460938 320.035156 61.308594 317.988281 59.207031 315.886719 C 57.109375 313.789062 55.058594 311.636719 53.066406 309.4375 C 51.070312 307.234375 49.132812 304.988281 47.246094 302.691406 C 45.363281 300.394531 43.535156 298.054688 41.765625 295.667969 C 39.996094 293.28125 38.285156 290.855469 36.636719 288.382812 C 34.988281 285.914062 33.398438 283.40625 31.871094 280.859375 C 30.34375 278.308594 28.878906 275.726562 27.480469 273.105469 C 26.078125 270.488281 24.746094 267.835938 23.472656 265.148438 C 22.203125 262.464844 21 259.75 19.863281 257.003906 C 18.726562 254.261719 17.660156 251.492188 16.65625 248.695312 C 15.65625 245.898438 14.726562 243.078125 13.863281 240.234375 C 13 237.390625 12.210938 234.53125 11.488281 231.648438 C 10.765625 228.769531 10.117188 225.871094 9.535156 222.957031 C 8.957031 220.042969 8.449219 217.117188 8.011719 214.179688 C 7.578125 211.242188 7.214844 208.292969 6.921875 205.339844 C 6.632812 202.382812 6.414062 199.421875 6.265625 196.453125 C 6.121094 193.488281 6.046875 190.519531 6.046875 187.546875 C 6.046875 184.578125 6.121094 181.609375 6.265625 178.644531 C 6.414062 175.675781 6.632812 172.714844 6.921875 169.757812 C 7.214844 166.800781 7.578125 163.855469 8.011719 160.917969 C 8.449219 157.980469 8.957031 155.054688 9.535156 152.140625 C 10.117188 149.226562 10.765625 146.328125 11.488281 143.449219 C 12.210938 140.566406 13 137.703125 13.863281 134.863281 C 14.726562 132.019531 15.65625 129.199219 16.65625 126.402344 C 17.660156 123.605469 18.726562 120.835938 19.863281 118.089844 C 21 115.347656 22.203125 112.632812 23.472656 109.945312 C 24.746094 107.261719 26.078125 104.609375 27.480469 101.988281 C 28.878906 99.371094 30.34375 96.785156 31.871094 94.238281 C 33.398438 91.691406 34.988281 89.183594 36.636719 86.710938 C 38.285156 84.242188 39.996094 81.816406 41.765625 79.429688 C 43.535156 77.042969 45.363281 74.703125 47.246094 72.40625 C 49.132812 70.109375 51.070312 67.863281 53.066406 65.660156 C 55.058594 63.460938 57.109375 61.308594 59.207031 59.207031 C 61.308594 57.109375 63.460938 55.058594 65.660156 53.066406 C 67.859375 51.070312 70.109375 49.132812 72.40625 47.246094 C 74.703125 45.363281 77.042969 43.535156 79.429688 41.765625 C 81.816406 39.996094 84.242188 38.285156 86.710938 36.636719 C 89.183594 34.988281 91.691406 33.398438 94.238281 31.871094 C 96.785156 30.34375 99.371094 28.878906 101.988281 27.480469 C 104.609375 26.078125 107.261719 24.746094 109.945312 23.472656 C 112.632812 22.203125 115.347656 21 118.089844 19.863281 C 120.835938 18.726562 123.605469 17.660156 126.402344 16.65625 C 129.199219 15.65625 132.019531 14.726562 134.863281 13.863281 C 137.703125 13 140.566406 12.210938 143.449219 11.488281 C 146.328125 10.765625 149.226562 10.117188 152.140625 9.535156 C 155.054688 8.957031 157.980469 8.449219 160.917969 8.011719 C 163.855469 7.578125 166.800781 7.214844 169.757812 6.921875 C 172.714844 6.632812 175.675781 6.414062 178.644531 6.265625 C 181.609375 6.121094 184.578125 6.046875 187.546875 6.046875 C 190.519531 6.046875 193.488281 6.121094 196.453125 6.265625 C 199.421875 6.414062 202.382812 6.632812 205.339844 6.921875 C 208.292969 7.214844 211.242188 7.578125 214.179688 8.011719 C 217.117188 8.449219 220.042969 8.957031 222.957031 9.535156 C 225.871094 10.117188 228.769531 10.765625 231.648438 11.488281 C 234.53125 12.210938 237.390625 13 240.234375 13.863281 C 243.078125 14.726562 245.898438 15.65625 248.695312 16.65625 C 251.492188 17.660156 254.261719 18.726562 257.003906 19.863281 C 259.75 21 262.464844 22.203125 265.148438 23.472656 C 267.835938 24.746094 270.488281 26.078125 273.105469 27.480469 C 275.726562 28.878906 278.308594 30.34375 280.859375 31.871094 C 283.40625 33.398438 285.914062 34.988281 288.382812 36.636719 C 290.855469 38.285156 293.28125 39.996094 295.667969 41.765625 C 298.054688 43.535156 300.394531 45.363281 302.691406 47.246094 C 304.988281 49.132812 307.234375 51.070312 309.4375 53.066406 C 311.636719 55.058594 313.789062 57.109375 315.886719 59.207031 C 317.988281 61.308594 320.035156 63.460938 322.03125 65.660156 C 324.027344 67.863281 325.964844 70.109375 327.851562 72.40625 C 329.734375 74.703125 331.5625 77.042969 333.332031 79.429688 C 335.101562 81.816406 336.808594 84.242188 338.460938 86.710938 C 340.109375 89.183594 341.699219 91.691406 343.226562 94.238281 C 344.753906 96.785156 346.21875 99.371094 347.617188 101.988281 C 349.015625 104.609375 350.351562 107.261719 351.621094 109.945312 C 352.890625 112.632812 354.097656 115.347656 355.234375 118.089844 C 356.371094 120.835938 357.4375 123.605469 358.4375 126.402344 C 359.4375 129.199219 360.371094 132.019531 361.234375 134.863281 C 362.09375 137.703125 362.886719 140.566406 363.609375 143.449219 C 364.332031 146.328125 364.980469 149.226562 365.5625 152.140625 C 366.140625 155.054688 366.648438 157.980469 367.082031 160.917969 C 367.519531 163.855469 367.882812 166.800781 368.175781 169.757812 C 368.464844 172.714844 368.683594 175.675781 368.828125 178.644531 C 368.976562 181.609375 369.046875 184.578125 369.046875 187.546875 Z M 369.046875 187.546875 " fill-opacity="1" fill-rule="nonzero"/></g><path fill="#000000" d="M 187.363281 74.820312 C 185.757812 74.820312 184.152344 74.859375 182.550781 74.9375 C 180.945312 75.015625 179.34375 75.136719 177.746094 75.292969 C 176.144531 75.449219 174.550781 75.648438 172.964844 75.882812 C 171.375 76.121094 169.792969 76.394531 168.214844 76.707031 C 166.640625 77.023438 165.074219 77.375 163.515625 77.765625 C 161.957031 78.15625 160.410156 78.585938 158.871094 79.050781 C 157.335938 79.519531 155.8125 80.023438 154.296875 80.566406 C 152.785156 81.109375 151.289062 81.6875 149.804688 82.304688 C 148.320312 82.917969 146.851562 83.570312 145.398438 84.257812 C 143.949219 84.945312 142.511719 85.667969 141.097656 86.425781 C 139.679688 87.1875 138.28125 87.980469 136.90625 88.804688 C 135.527344 89.632812 134.171875 90.492188 132.835938 91.386719 C 131.5 92.28125 130.1875 93.207031 128.894531 94.164062 C 127.605469 95.125 126.339844 96.113281 125.097656 97.132812 C 123.855469 98.15625 122.640625 99.207031 121.449219 100.285156 C 120.261719 101.367188 119.097656 102.476562 117.960938 103.613281 C 116.824219 104.75 115.71875 105.914062 114.640625 107.109375 C 113.558594 108.300781 112.511719 109.519531 111.492188 110.761719 C 110.472656 112.003906 109.484375 113.273438 108.527344 114.566406 C 107.570312 115.859375 106.648438 117.171875 105.753906 118.511719 C 104.863281 119.847656 104.003906 121.207031 103.175781 122.585938 C 102.351562 123.96875 101.558594 125.367188 100.800781 126.785156 C 100.046875 128.203125 99.324219 129.640625 98.636719 131.09375 C 97.949219 132.550781 97.300781 134.019531 96.683594 135.507812 C 96.070312 136.992188 95.492188 138.492188 94.949219 140.007812 C 94.410156 141.523438 93.90625 143.050781 93.4375 144.589844 C 92.972656 146.128906 92.542969 147.679688 92.152344 149.242188 C 91.765625 150.800781 91.414062 152.371094 91.097656 153.949219 C 90.785156 155.527344 90.511719 157.109375 90.273438 158.703125 C 90.039062 160.292969 89.84375 161.890625 89.683594 163.492188 C 89.527344 165.09375 89.410156 166.695312 89.332031 168.304688 C 89.253906 169.910156 89.210938 171.519531 89.210938 173.128906 C 89.210938 174.738281 89.253906 176.34375 89.332031 177.953125 C 89.410156 179.558594 89.527344 181.164062 89.683594 182.761719 C 89.84375 184.363281 90.039062 185.960938 90.273438 187.550781 C 90.511719 189.144531 90.785156 190.726562 91.097656 192.304688 C 91.414062 193.882812 91.765625 195.453125 92.152344 197.015625 C 92.542969 198.574219 92.972656 200.125 93.4375 201.664062 C 93.90625 203.203125 94.410156 204.730469 94.949219 206.246094 C 95.492188 207.761719 96.070312 209.261719 96.683594 210.75 C 97.300781 212.234375 97.949219 213.707031 98.636719 215.160156 C 99.324219 216.613281 100.046875 218.050781 100.800781 219.46875 C 101.558594 220.886719 102.351562 222.289062 103.175781 223.667969 C 104.003906 225.046875 104.863281 226.40625 105.753906 227.746094 C 106.648438 229.082031 107.570312 230.398438 108.527344 231.691406 C 109.484375 232.980469 110.472656 234.25 111.492188 235.492188 C 112.511719 236.738281 113.558594 237.957031 114.640625 239.148438 C 115.71875 240.339844 116.824219 241.503906 117.960938 242.640625 C 119.097656 243.78125 120.261719 244.886719 121.449219 245.96875 C 122.640625 247.050781 123.855469 248.101562 125.097656 249.121094 C 126.339844 250.140625 127.605469 251.132812 128.894531 252.089844 C 130.1875 253.046875 131.5 253.972656 132.835938 254.867188 C 134.171875 255.761719 135.527344 256.621094 136.90625 257.449219 C 138.28125 258.277344 139.679688 259.070312 141.097656 259.828125 C 142.511719 260.585938 143.949219 261.308594 145.398438 261.996094 C 146.851562 262.683594 148.320312 263.335938 149.804688 263.953125 C 151.289062 264.566406 152.785156 265.148438 154.296875 265.6875 C 155.8125 266.230469 157.335938 266.734375 158.871094 267.203125 C 160.410156 267.667969 161.957031 268.097656 163.515625 268.488281 C 165.074219 268.878906 166.640625 269.234375 168.214844 269.546875 C 169.792969 269.859375 171.375 270.136719 172.964844 270.371094 C 174.550781 270.609375 176.144531 270.804688 177.746094 270.960938 C 179.34375 271.121094 180.945312 271.238281 182.550781 271.316406 C 184.152344 271.394531 185.757812 271.433594 187.363281 271.4375 C 188.972656 271.433594 190.578125 271.394531 192.179688 271.316406 C 193.785156 271.238281 195.386719 271.121094 196.984375 270.960938 C 198.585938 270.804688 200.179688 270.609375 201.765625 270.371094 C 203.355469 270.136719 204.9375 269.859375 206.511719 269.546875 C 208.089844 269.234375 209.65625 268.878906 211.214844 268.488281 C 212.773438 268.097656 214.320312 267.667969 215.855469 267.203125 C 217.394531 266.734375 218.917969 266.230469 220.429688 265.6875 C 221.945312 265.148438 223.441406 264.566406 224.925781 263.953125 C 226.410156 263.335938 227.878906 262.683594 229.332031 261.996094 C 230.78125 261.308594 232.21875 260.585938 233.632812 259.828125 C 235.050781 259.070312 236.449219 258.277344 237.824219 257.449219 C 239.203125 256.621094 240.558594 255.761719 241.894531 254.867188 C 243.230469 253.972656 244.542969 253.046875 245.835938 252.089844 C 247.125 251.128906 248.390625 250.140625 249.632812 249.121094 C 250.875 248.101562 252.089844 247.050781 253.28125 245.96875 C 254.46875 244.886719 255.632812 243.78125 256.769531 242.640625 C 257.90625 241.503906 259.011719 240.339844 260.089844 239.148438 C 261.171875 237.953125 262.21875 236.738281 263.238281 235.492188 C 264.257812 234.25 265.246094 232.980469 266.203125 231.691406 C 267.160156 230.398438 268.082031 229.082031 268.976562 227.746094 C 269.867188 226.40625 270.726562 225.046875 271.554688 223.667969 C 272.378906 222.289062 273.171875 220.886719 273.925781 219.46875 C 274.683594 218.050781 275.40625 216.613281 276.09375 215.160156 C 276.78125 213.707031 277.429688 212.234375 278.046875 210.75 C 278.660156 209.261719 279.238281 207.761719 279.78125 206.246094 C 280.320312 204.730469 280.824219 203.203125 281.292969 201.664062 C 281.757812 200.125 282.1875 198.574219 282.574219 197.015625 C 282.964844 195.453125 283.316406 193.882812 283.632812 192.304688 C 283.945312 190.726562 284.21875 189.144531 284.453125 187.550781 C 284.691406 185.960938 284.886719 184.363281 285.042969 182.761719 C 285.203125 181.164062 285.320312 179.558594 285.398438 177.953125 C 285.476562 176.34375 285.515625 174.738281 285.515625 173.128906 C 285.515625 171.519531 285.476562 169.910156 285.398438 168.304688 C 285.320312 166.695312 285.203125 165.09375 285.042969 163.492188 C 284.886719 161.890625 284.691406 160.292969 284.453125 158.703125 C 284.21875 157.109375 283.945312 155.527344 283.632812 153.949219 C 283.316406 152.371094 282.964844 150.800781 282.574219 149.242188 C 282.1875 147.679688 281.757812 146.128906 281.289062 144.589844 C 280.824219 143.050781 280.320312 141.523438 279.78125 140.007812 C 279.238281 138.492188 278.660156 136.992188 278.046875 135.507812 C 277.429688 134.019531 276.78125 132.550781 276.09375 131.09375 C 275.40625 129.640625 274.683594 128.203125 273.925781 126.785156 C 273.171875 125.367188 272.378906 123.96875 271.554688 122.585938 C 270.726562 121.207031 269.867188 119.847656 268.976562 118.511719 C 268.082031 117.171875 267.160156 115.859375 266.203125 114.566406 C 265.246094 113.273438 264.257812 112.003906 263.238281 110.761719 C 262.21875 109.519531 261.167969 108.300781 260.089844 107.109375 C 259.011719 105.914062 257.90625 104.75 256.769531 103.613281 C 255.632812 102.476562 254.46875 101.367188 253.28125 100.285156 C 252.089844 99.207031 250.875 98.15625 249.632812 97.132812 C 248.390625 96.113281 247.125 95.125 245.835938 94.164062 C 244.542969 93.207031 243.230469 92.28125 241.894531 91.386719 C 240.558594 90.492188 239.203125 89.632812 237.824219 88.804688 C 236.449219 87.980469 235.050781 87.1875 233.632812 86.425781 C 232.21875 85.667969 230.78125 84.945312 229.332031 84.257812 C 227.878906 83.570312 226.410156 82.917969 224.925781 82.304688 C 223.441406 81.6875 221.945312 81.109375 220.429688 80.566406 C 218.917969 80.023438 217.394531 79.519531 215.855469 79.050781 C 214.320312 78.585938 212.773438 78.15625 211.214844 77.765625 C 209.65625 77.375 208.089844 77.023438 206.511719 76.707031 C 204.9375 76.394531 203.355469 76.121094 201.765625 75.882812 C 200.179688 75.648438 198.585938 75.449219 196.984375 75.292969 C 195.386719 75.136719 193.785156 75.015625 192.179688 74.9375 C 190.578125 74.859375 188.972656 74.820312 187.363281 74.820312 Z M 187.363281 89.179688 C 188.738281 89.179688 190.109375 89.214844 191.476562 89.28125 C 192.847656 89.347656 194.214844 89.449219 195.582031 89.585938 C 196.945312 89.71875 198.304688 89.886719 199.664062 90.089844 C 201.019531 90.289062 202.371094 90.523438 203.714844 90.792969 C 205.0625 91.0625 206.398438 91.363281 207.730469 91.695312 C 209.0625 92.03125 210.382812 92.394531 211.695312 92.792969 C 213.007812 93.195312 214.308594 93.625 215.601562 94.085938 C 216.894531 94.550781 218.171875 95.042969 219.441406 95.570312 C 220.707031 96.097656 221.960938 96.652344 223.199219 97.238281 C 224.441406 97.828125 225.664062 98.445312 226.875 99.09375 C 228.085938 99.738281 229.277344 100.417969 230.453125 101.125 C 231.628906 101.828125 232.789062 102.566406 233.929688 103.328125 C 235.070312 104.089844 236.191406 104.882812 237.292969 105.699219 C 238.394531 106.519531 239.476562 107.363281 240.535156 108.234375 C 241.597656 109.105469 242.636719 110.003906 243.652344 110.925781 C 244.667969 111.847656 245.660156 112.796875 246.628906 113.769531 C 247.601562 114.738281 248.546875 115.734375 249.46875 116.75 C 250.386719 117.769531 251.285156 118.808594 252.15625 119.871094 C 253.023438 120.933594 253.867188 122.015625 254.683594 123.121094 C 255.503906 124.222656 256.292969 125.347656 257.054688 126.488281 C 257.816406 127.632812 258.550781 128.792969 259.253906 129.96875 C 259.960938 131.148438 260.636719 132.34375 261.28125 133.554688 C 261.929688 134.765625 262.546875 135.992188 263.132812 137.234375 C 263.71875 138.476562 264.273438 139.734375 264.800781 141.003906 C 265.324219 142.273438 265.816406 143.554688 266.28125 144.847656 C 266.742188 146.140625 267.171875 147.445312 267.570312 148.757812 C 267.96875 150.074219 268.335938 151.398438 268.667969 152.730469 C 269 154.0625 269.300781 155.402344 269.570312 156.75 C 269.835938 158.097656 270.070312 159.449219 270.273438 160.808594 C 270.472656 162.167969 270.640625 163.53125 270.777344 164.898438 C 270.910156 166.265625 271.011719 167.636719 271.078125 169.007812 C 271.144531 170.378906 271.179688 171.753906 271.179688 173.128906 C 271.179688 174.5 271.144531 175.875 271.078125 177.246094 C 271.011719 178.617188 270.910156 179.988281 270.777344 181.355469 C 270.640625 182.722656 270.472656 184.085938 270.273438 185.445312 C 270.070312 186.804688 269.835938 188.15625 269.570312 189.503906 C 269.300781 190.851562 269 192.191406 268.667969 193.523438 C 268.335938 194.859375 267.96875 196.179688 267.570312 197.496094 C 267.171875 198.8125 266.742188 200.113281 266.28125 201.410156 C 265.816406 202.703125 265.324219 203.984375 264.800781 205.253906 C 264.273438 206.523438 263.71875 207.777344 263.132812 209.019531 C 262.546875 210.261719 261.929688 211.488281 261.28125 212.699219 C 260.636719 213.910156 259.960938 215.105469 259.253906 216.285156 C 258.550781 217.464844 257.816406 218.625 257.054688 219.765625 C 256.292969 220.910156 255.503906 222.03125 254.683594 223.136719 C 253.867188 224.238281 253.023438 225.320312 252.15625 226.382812 C 251.285156 227.445312 250.386719 228.484375 249.46875 229.503906 C 248.546875 230.519531 247.601562 231.515625 246.628906 232.488281 C 245.660156 233.457031 244.667969 234.40625 243.652344 235.328125 C 242.636719 236.25 241.597656 237.148438 240.535156 238.019531 C 239.476562 238.890625 238.394531 239.734375 237.292969 240.554688 C 236.191406 241.375 235.070312 242.164062 233.929688 242.925781 C 232.789062 243.691406 231.628906 244.425781 230.453125 245.132812 C 229.277344 245.835938 228.085938 246.515625 226.875 247.164062 C 225.664062 247.808594 224.441406 248.425781 223.199219 249.015625 C 221.960938 249.601562 220.707031 250.160156 219.441406 250.683594 C 218.171875 251.210938 216.894531 251.703125 215.601562 252.167969 C 214.308594 252.628906 213.007812 253.0625 211.695312 253.460938 C 210.382812 253.859375 209.0625 254.226562 207.730469 254.558594 C 206.398438 254.894531 205.0625 255.195312 203.714844 255.460938 C 202.371094 255.730469 201.019531 255.964844 199.664062 256.167969 C 198.304688 256.367188 196.945312 256.535156 195.582031 256.671875 C 194.214844 256.804688 192.847656 256.90625 191.476562 256.972656 C 190.109375 257.042969 188.738281 257.074219 187.363281 257.074219 C 185.992188 257.074219 184.621094 257.042969 183.253906 256.972656 C 181.882812 256.90625 180.515625 256.804688 179.148438 256.671875 C 177.785156 256.535156 176.421875 256.367188 175.066406 256.167969 C 173.710938 255.964844 172.359375 255.730469 171.015625 255.460938 C 169.667969 255.195312 168.332031 254.894531 167 254.558594 C 165.667969 254.226562 164.347656 253.859375 163.035156 253.460938 C 161.722656 253.0625 160.421875 252.628906 159.128906 252.167969 C 157.835938 251.703125 156.558594 251.210938 155.289062 250.683594 C 154.023438 250.160156 152.769531 249.601562 151.53125 249.015625 C 150.289062 248.425781 149.066406 247.808594 147.855469 247.164062 C 146.644531 246.515625 145.453125 245.835938 144.277344 245.132812 C 143.097656 244.425781 141.941406 243.691406 140.800781 242.925781 C 139.660156 242.164062 138.539062 241.375 137.4375 240.554688 C 136.335938 239.734375 135.253906 238.890625 134.195312 238.019531 C 133.132812 237.148438 132.09375 236.25 131.078125 235.328125 C 130.0625 234.40625 129.070312 233.457031 128.097656 232.488281 C 127.128906 231.515625 126.183594 230.519531 125.261719 229.503906 C 124.339844 228.484375 123.445312 227.445312 122.574219 226.382812 C 121.707031 225.320312 120.863281 224.238281 120.042969 223.136719 C 119.226562 222.03125 118.4375 220.910156 117.675781 219.765625 C 116.914062 218.625 116.179688 217.464844 115.476562 216.285156 C 114.769531 215.105469 114.09375 213.910156 113.449219 212.699219 C 112.800781 211.488281 112.183594 210.261719 111.597656 209.019531 C 111.011719 207.777344 110.457031 206.523438 109.929688 205.253906 C 109.40625 203.984375 108.914062 202.703125 108.449219 201.410156 C 107.988281 200.113281 107.558594 198.8125 107.160156 197.496094 C 106.761719 196.179688 106.394531 194.859375 106.0625 193.523438 C 105.730469 192.191406 105.429688 190.851562 105.160156 189.503906 C 104.894531 188.15625 104.660156 186.804688 104.457031 185.445312 C 104.257812 184.085938 104.089844 182.722656 103.953125 181.355469 C 103.820312 179.988281 103.71875 178.617188 103.652344 177.246094 C 103.585938 175.875 103.550781 174.5 103.550781 173.128906 C 103.550781 171.753906 103.585938 170.378906 103.652344 169.007812 C 103.71875 167.636719 103.820312 166.265625 103.953125 164.898438 C 104.089844 163.53125 104.257812 162.167969 104.457031 160.808594 C 104.660156 159.449219 104.894531 158.097656 105.160156 156.75 C 105.429688 155.402344 105.730469 154.0625 106.0625 152.730469 C 106.394531 151.398438 106.761719 150.074219 107.160156 148.757812 C 107.558594 147.445312 107.988281 146.140625 108.449219 144.847656 C 108.914062 143.554688 109.40625 142.273438 109.929688 141.003906 C 110.457031 139.734375 111.011719 138.476562 111.597656 137.234375 C 112.183594 135.992188 112.800781 134.765625 113.449219 133.554688 C 114.09375 132.34375 114.769531 131.148438 115.476562 129.96875 C 116.179688 128.792969 116.914062 127.632812 117.675781 126.488281 C 118.4375 125.347656 119.226562 124.222656 120.042969 123.121094 C 120.863281 122.015625 121.707031 120.933594 122.574219 119.871094 C 123.445312 118.808594 124.339844 117.769531 125.261719 116.75 C 126.183594 115.734375 127.128906 114.738281 128.097656 113.769531 C 129.070312 112.796875 130.0625 111.847656 131.078125 110.925781 C 132.09375 110.003906 133.132812 109.105469 134.195312 108.234375 C 135.253906 107.363281 136.335938 106.519531 137.4375 105.699219 C 138.539062 104.882812 139.660156 104.089844 140.800781 103.328125 C 141.941406 102.566406 143.097656 101.828125 144.277344 101.125 C 145.453125 100.417969 146.644531 99.738281 147.855469 99.09375 C 149.066406 98.445312 150.289062 97.828125 151.53125 97.238281 C 152.769531 96.652344 154.023438 96.097656 155.289062 95.570312 C 156.558594 95.042969 157.835938 94.550781 159.128906 94.085938 C 160.421875 93.625 161.722656 93.195312 163.035156 92.792969 C 164.347656 92.394531 165.667969 92.03125 167 91.695312 C 168.332031 91.363281 169.667969 91.0625 171.015625 90.792969 C 172.359375 90.523438 173.710938 90.289062 175.066406 90.089844 C 176.421875 89.886719 177.785156 89.71875 179.148438 89.585938 C 180.515625 89.449219 181.882812 89.347656 183.253906 89.28125 C 184.621094 89.214844 185.992188 89.179688 187.363281 89.179688 Z M 187.363281 89.179688 " fill-opacity="1" fill-rule="nonzero"/><path fill="#000000" d="M 228.839844 162.238281 C 222.199219 243.101562 239.230469 261.894531 239.230469 261.894531 C 239.230469 261.894531 186.210938 267.195312 159.652344 248.980469 C 130.300781 228.835938 134.632812 183.921875 134.726562 157.804688 C 134.824219 130.429688 159.363281 113.660156 182.746094 114.144531 C 210.75 114.625 231.050781 134.960938 228.839844 162.238281 Z M 228.839844 162.238281 " fill-opacity="1" fill-rule="nonzero"/><path fill="#ffffff" d="M 166.292969 207.34375 C 177.164062 242.328125 214.984375 267.484375 214.984375 267.484375 L 232.785156 266.132812 Z M 166.292969 207.34375 " fill-opacity="1" fill-rule="nonzero"/><path fill="#000000" d="M 166.292969 207.34375 C 169.179688 220.160156 183.515625 236.160156 195.542969 247.4375 C 219.410156 269.796875 235.960938 269.027344 278.300781 300.15625 C 260.785156 250.230469 260.210938 240.402344 236.441406 197.898438 C 212.671875 155.488281 171.390625 178.332031 171.390625 178.332031 C 171.390625 178.332031 163.308594 194.332031 166.292969 207.148438 Z M 166.292969 207.34375 " fill-opacity="1" fill-rule="nonzero"/><path fill="#ffffff" d="M 192.082031 146.140625 C 192.082031 146.140625 188.230469 134.960938 174.757812 135.058594 C 145.890625 135.25 147.046875 185.269531 191.023438 185.175781 C 229.128906 185.078125 228.742188 137.5625 206.515625 137.371094 C 196.699219 137.175781 192.082031 146.140625 192.082031 146.140625 Z M 192.082031 146.140625 " fill-opacity="1" fill-rule="nonzero"/><path fill="#000000" d="M 192.5625 164.453125 C 202.953125 164.453125 194.484375 178.8125 191.984375 184.597656 C 190.25 176.5 182.167969 164.453125 192.5625 164.453125 Z M 176.875 150.09375 C 171.488281 150.09375 167.0625 154.429688 167.0625 159.921875 C 167.0625 165.320312 171.390625 169.753906 176.875 169.753906 C 182.265625 169.753906 186.691406 165.417969 186.691406 159.921875 C 186.691406 154.527344 182.359375 150.09375 176.875 150.09375 Z M 206.226562 149.996094 C 201.605469 149.996094 197.757812 154.332031 197.757812 159.828125 C 197.757812 165.222656 201.511719 169.65625 206.226562 169.65625 C 210.84375 169.65625 214.695312 165.320312 214.695312 159.828125 C 214.695312 154.429688 210.941406 149.996094 206.226562 149.996094 Z M 206.226562 149.996094 " fill-opacity="1" fill-rule="nonzero"/></svg>