<svg xmlns="http://www.w3.org/2000/svg" xmlns:xlink="http://www.w3.org/1999/xlink" width="500" zoomAndPan="magnify" viewBox="0 0 375 374.999991" height="500" preserveAspectRatio="xMidYMid meet" version="1.0"><defs><clipPath id="b9fb4b16f0"><path d="M 5.421875 5.421875 L 369.921875 5.421875 L 369.921875 369.921875 L 5.421875 369.921875 Z M 5.421875 5.421875 " clip-rule="nonzero"/></clipPath><clipPath id="c45f4b3932"><path d="M 55.6875 70 L 319.6875 70 L 319.6875 305 L 55.6875 305 Z M 55.6875 70 " clip-rule="nonzero"/></clipPath></defs><g clip-path="url(#b9fb4b16f0)"><path fill="#e4f7ff" d="M 369.921875 187.671875 C 369.921875 190.65625 369.851562 193.636719 369.703125 196.617188 C 369.558594 199.59375 369.335938 202.566406 369.046875 205.535156 C 368.753906 208.503906 368.386719 211.464844 367.949219 214.414062 C 367.511719 217.363281 367.003906 220.304688 366.421875 223.226562 C 365.839844 226.152344 365.1875 229.0625 364.460938 231.957031 C 363.738281 234.847656 362.941406 237.722656 362.074219 240.578125 C 361.210938 243.429688 360.273438 246.261719 359.269531 249.070312 C 358.265625 251.878906 357.191406 254.660156 356.050781 257.417969 C 354.910156 260.171875 353.699219 262.898438 352.425781 265.59375 C 351.148438 268.292969 349.808594 270.953125 348.402344 273.585938 C 346.996094 276.214844 345.527344 278.808594 343.992188 281.367188 C 342.460938 283.925781 340.867188 286.445312 339.207031 288.925781 C 337.550781 291.40625 335.835938 293.84375 334.058594 296.238281 C 332.28125 298.636719 330.445312 300.984375 328.554688 303.292969 C 326.660156 305.597656 324.714844 307.855469 322.710938 310.066406 C 320.707031 312.273438 318.652344 314.433594 316.542969 316.542969 C 314.433594 318.652344 312.273438 320.707031 310.066406 322.710938 C 307.855469 324.714844 305.597656 326.660156 303.292969 328.554688 C 300.984375 330.445312 298.636719 332.28125 296.238281 334.058594 C 293.84375 335.835938 291.40625 337.550781 288.925781 339.207031 C 286.445312 340.867188 283.925781 342.460938 281.367188 343.992188 C 278.808594 345.527344 276.214844 346.996094 273.585938 348.402344 C 270.953125 349.808594 268.292969 351.148438 265.59375 352.425781 C 262.898438 353.699219 260.171875 354.910156 257.417969 356.050781 C 254.660156 357.191406 251.878906 358.265625 249.070312 359.269531 C 246.261719 360.273438 243.429688 361.210938 240.578125 362.074219 C 237.722656 362.941406 234.847656 363.738281 231.957031 364.460938 C 229.0625 365.1875 226.152344 365.839844 223.226562 366.421875 C 220.304688 367.003906 217.363281 367.511719 214.414062 367.949219 C 211.464844 368.386719 208.503906 368.753906 205.535156 369.046875 C 202.566406 369.335938 199.59375 369.558594 196.617188 369.703125 C 193.636719 369.851562 190.65625 369.921875 187.671875 369.921875 C 184.691406 369.921875 181.710938 369.851562 178.730469 369.703125 C 175.75 369.558594 172.777344 369.335938 169.808594 369.046875 C 166.839844 368.753906 163.882812 368.386719 160.929688 367.949219 C 157.980469 367.511719 155.042969 367.003906 152.117188 366.421875 C 149.191406 365.839844 146.28125 365.1875 143.390625 364.460938 C 140.496094 363.738281 137.621094 362.941406 134.769531 362.074219 C 131.914062 361.210938 129.082031 360.273438 126.273438 359.269531 C 123.464844 358.265625 120.683594 357.191406 117.929688 356.050781 C 115.171875 354.910156 112.449219 353.699219 109.75 352.425781 C 107.054688 351.148438 104.390625 349.808594 101.761719 348.402344 C 99.128906 346.996094 96.535156 345.527344 93.976562 343.992188 C 91.417969 342.460938 88.898438 340.867188 86.421875 339.207031 C 83.941406 337.550781 81.503906 335.835938 79.105469 334.058594 C 76.710938 332.28125 74.359375 330.445312 72.054688 328.554688 C 69.75 326.660156 67.492188 324.714844 65.28125 322.710938 C 63.070312 320.707031 60.910156 318.652344 58.804688 316.542969 C 56.695312 314.433594 54.636719 312.273438 52.632812 310.066406 C 50.632812 307.855469 48.683594 305.597656 46.792969 303.292969 C 44.898438 300.984375 43.066406 298.636719 41.289062 296.238281 C 39.511719 293.84375 37.792969 291.40625 36.136719 288.925781 C 34.480469 286.445312 32.886719 283.925781 31.351562 281.367188 C 29.820312 278.808594 28.347656 276.214844 26.941406 273.585938 C 25.535156 270.953125 24.195312 268.292969 22.921875 265.59375 C 21.644531 262.898438 20.4375 260.171875 19.296875 257.417969 C 18.15625 254.660156 17.082031 251.878906 16.078125 249.070312 C 15.070312 246.261719 14.136719 243.429688 13.269531 240.578125 C 12.40625 237.722656 11.609375 234.847656 10.886719 231.957031 C 10.160156 229.0625 9.507812 226.152344 8.925781 223.226562 C 8.34375 220.304688 7.832031 217.363281 7.394531 214.414062 C 6.957031 211.464844 6.59375 208.503906 6.300781 205.535156 C 6.007812 202.566406 5.789062 199.59375 5.640625 196.617188 C 5.496094 193.636719 5.421875 190.65625 5.421875 187.671875 C 5.421875 184.691406 5.496094 181.710938 5.640625 178.730469 C 5.789062 175.75 6.007812 172.777344 6.300781 169.808594 C 6.59375 166.839844 6.957031 163.882812 7.394531 160.929688 C 7.832031 157.980469 8.34375 155.042969 8.925781 152.117188 C 9.507812 149.191406 10.160156 146.28125 10.886719 143.390625 C 11.609375 140.496094 12.40625 137.621094 13.269531 134.769531 C 14.136719 131.914062 15.070312 129.082031 16.078125 126.273438 C 17.082031 123.464844 18.15625 120.683594 19.296875 117.929688 C 20.4375 115.171875 21.644531 112.449219 22.921875 109.75 C 24.195312 107.054688 25.535156 104.390625 26.941406 101.761719 C 28.347656 99.128906 29.820312 96.535156 31.351562 93.976562 C 32.886719 91.417969 34.480469 88.898438 36.136719 86.421875 C 37.792969 83.941406 39.511719 81.503906 41.289062 79.105469 C 43.066406 76.710938 44.898438 74.359375 46.792969 72.054688 C 48.683594 69.75 50.632812 67.492188 52.632812 65.28125 C 54.636719 63.070312 56.695312 60.910156 58.804688 58.804688 C 60.910156 56.695312 63.070312 54.636719 65.28125 52.632812 C 67.492188 50.632812 69.75 48.683594 72.054688 46.792969 C 74.359375 44.898438 76.710938 43.066406 79.105469 41.289062 C 81.503906 39.511719 83.941406 37.792969 86.421875 36.136719 C 88.898438 34.480469 91.417969 32.886719 93.976562 31.351562 C 96.535156 29.820312 99.128906 28.347656 101.761719 26.941406 C 104.390625 25.535156 107.054688 24.195312 109.75 22.921875 C 112.449219 21.644531 115.171875 20.4375 117.929688 19.296875 C 120.683594 18.15625 123.464844 17.082031 126.273438 16.078125 C 129.082031 15.070312 131.914062 14.136719 134.769531 13.269531 C 137.621094 12.40625 140.496094 11.609375 143.390625 10.886719 C 146.28125 10.160156 149.191406 9.507812 152.117188 8.925781 C 155.042969 8.34375 157.980469 7.832031 160.929688 7.394531 C 163.882812 6.957031 166.839844 6.59375 169.808594 6.300781 C 172.777344 6.007812 175.75 5.789062 178.730469 5.640625 C 181.710938 5.496094 184.691406 5.421875 187.671875 5.421875 C 190.65625 5.421875 193.636719 5.496094 196.617188 5.640625 C 199.59375 5.789062 202.566406 6.007812 205.535156 6.300781 C 208.503906 6.59375 211.464844 6.957031 214.414062 7.394531 C 217.363281 7.832031 220.304688 8.34375 223.226562 8.925781 C 226.152344 9.507812 229.0625 10.160156 231.957031 10.886719 C 234.847656 11.609375 237.722656 12.40625 240.578125 13.269531 C 243.429688 14.136719 246.261719 15.070312 249.070312 16.078125 C 251.878906 17.082031 254.660156 18.15625 257.417969 19.296875 C 260.171875 20.4375 262.898438 21.644531 265.59375 22.921875 C 268.292969 24.195312 270.953125 25.535156 273.585938 26.941406 C 276.214844 28.347656 278.808594 29.820312 281.367188 31.351562 C 283.925781 32.886719 286.445312 34.480469 288.925781 36.136719 C 291.40625 37.792969 293.84375 39.511719 296.238281 41.289062 C 298.636719 43.066406 300.984375 44.898438 303.292969 46.792969 C 305.597656 48.683594 307.855469 50.632812 310.066406 52.632812 C 312.273438 54.636719 314.433594 56.695312 316.542969 58.804688 C 318.652344 60.910156 320.707031 63.070312 322.710938 65.28125 C 324.714844 67.492188 326.660156 69.75 328.554688 72.054688 C 330.445312 74.359375 332.28125 76.710938 334.058594 79.105469 C 335.835938 81.503906 337.550781 83.941406 339.207031 86.421875 C 340.867188 88.898438 342.460938 91.417969 343.992188 93.976562 C 345.527344 96.535156 346.996094 99.128906 348.402344 101.761719 C 349.808594 104.390625 351.148438 107.054688 352.425781 109.75 C 353.699219 112.449219 354.910156 115.171875 356.050781 117.929688 C 357.191406 120.683594 358.265625 123.464844 359.269531 126.273438 C 360.273438 129.082031 361.210938 131.914062 362.074219 134.769531 C 362.941406 137.621094 363.738281 140.496094 364.460938 143.390625 C 365.1875 146.28125 365.839844 149.191406 366.421875 152.117188 C 367.003906 155.042969 367.511719 157.980469 367.949219 160.929688 C 368.386719 163.882812 368.753906 166.839844 369.046875 169.808594 C 369.335938 172.777344 369.558594 175.75 369.703125 178.730469 C 369.851562 181.710938 369.921875 184.691406 369.921875 187.671875 Z M 369.921875 187.671875 " fill-opacity="1" fill-rule="nonzero"/></g><g clip-path="url(#c45f4b3932)"><path fill="#00d8ff" d="M 272.570312 146.238281 C 269.84375 145.300781 267.011719 144.414062 264.089844 143.574219 C 264.574219 141.621094 265.015625 139.695312 265.40625 137.800781 C 271.820312 106.710938 267.632812 81.664062 253.292969 73.417969 C 239.546875 65.511719 217.070312 73.753906 194.367188 93.464844 C 192.183594 95.359375 189.992188 97.367188 187.808594 99.46875 C 186.347656 98.078125 184.898438 96.734375 183.445312 95.449219 C 159.652344 74.371094 135.804688 65.488281 121.484375 73.761719 C 107.753906 81.691406 103.6875 105.238281 109.464844 134.703125 C 110.023438 137.550781 110.675781 140.457031 111.414062 143.410156 C 108.039062 144.367188 104.78125 145.386719 101.664062 146.46875 C 73.769531 156.171875 55.957031 171.378906 55.957031 187.152344 C 55.957031 203.4375 75.078125 219.78125 104.132812 229.691406 C 106.425781 230.46875 108.804688 231.210938 111.253906 231.90625 C 110.460938 235.101562 109.769531 238.230469 109.1875 241.292969 C 103.675781 270.246094 107.980469 293.234375 121.675781 301.109375 C 135.820312 309.253906 159.558594 300.882812 182.675781 280.730469 C 184.507812 279.136719 186.339844 277.445312 188.171875 275.679688 C 190.558594 277.957031 192.933594 280.125 195.292969 282.15625 C 217.6875 301.378906 239.804688 309.140625 253.480469 301.242188 C 267.609375 293.082031 272.210938 268.378906 266.242188 238.335938 C 265.789062 236.035156 265.253906 233.695312 264.667969 231.3125 C 266.335938 230.820312 267.96875 230.304688 269.566406 229.78125 C 299.769531 219.792969 319.417969 203.660156 319.417969 187.152344 C 319.417969 171.320312 301.027344 156.011719 272.570312 146.238281 Z M 266.027344 219.125 C 264.585938 219.597656 263.101562 220.058594 261.601562 220.5 C 258.265625 209.976562 253.769531 198.773438 248.253906 187.203125 C 253.511719 175.910156 257.832031 164.855469 261.074219 154.390625 C 263.773438 155.171875 266.386719 155.992188 268.90625 156.855469 C 293.289062 165.230469 308.160156 177.613281 308.160156 187.152344 C 308.160156 197.304688 292.105469 210.5 266.027344 219.125 Z M 255.199219 240.511719 C 257.84375 253.796875 258.214844 265.8125 256.464844 275.207031 C 254.898438 283.644531 251.742188 289.273438 247.839844 291.519531 C 239.535156 296.316406 221.78125 290.082031 202.640625 273.644531 C 200.4375 271.753906 198.226562 269.742188 196.011719 267.617188 C 203.433594 259.515625 210.851562 250.101562 218.097656 239.640625 C 230.828125 238.519531 242.859375 236.671875 253.777344 234.15625 C 254.3125 236.324219 254.789062 238.4375 255.199219 240.511719 Z M 145.78125 290.6875 C 137.667969 293.554688 131.207031 293.636719 127.300781 291.386719 C 118.992188 286.601562 115.535156 268.140625 120.25 243.386719 C 120.789062 240.554688 121.429688 237.636719 122.171875 234.660156 C 132.964844 237.042969 144.910156 238.757812 157.675781 239.78125 C 164.96875 250.019531 172.601562 259.425781 180.292969 267.660156 C 178.613281 269.28125 176.9375 270.820312 175.269531 272.269531 C 165.050781 281.191406 154.808594 287.515625 145.78125 290.6875 Z M 107.777344 219.0625 C 94.929688 214.679688 84.320312 208.992188 77.046875 202.769531 C 70.511719 197.191406 67.214844 191.648438 67.214844 187.152344 C 67.214844 177.582031 81.515625 165.371094 105.371094 157.074219 C 108.265625 156.066406 111.296875 155.117188 114.441406 154.226562 C 117.738281 164.925781 122.0625 176.113281 127.28125 187.417969 C 121.992188 198.898438 117.609375 210.265625 114.277344 221.097656 C 112.039062 220.449219 109.867188 219.769531 107.777344 219.0625 Z M 120.515625 132.546875 C 115.5625 107.300781 118.851562 88.257812 127.128906 83.480469 C 135.941406 78.386719 155.429688 85.644531 175.96875 103.84375 C 177.285156 105.007812 178.601562 106.222656 179.929688 107.484375 C 172.273438 115.683594 164.710938 125.019531 157.484375 135.195312 C 145.09375 136.339844 133.230469 138.179688 122.328125 140.644531 C 121.640625 137.894531 121.035156 135.191406 120.515625 132.546875 Z M 234.152344 160.542969 C 231.550781 156.050781 228.875 151.664062 226.148438 147.398438 C 234.554688 148.457031 242.601562 149.867188 250.167969 151.589844 C 247.902344 158.847656 245.074219 166.4375 241.738281 174.226562 C 239.351562 169.695312 236.820312 165.132812 234.152344 160.542969 Z M 187.8125 115.507812 C 193.007812 121.121094 198.207031 127.382812 203.320312 134.183594 C 198.164062 133.9375 192.945312 133.8125 187.6875 133.8125 C 182.480469 133.8125 177.304688 133.9375 172.179688 134.175781 C 177.292969 127.441406 182.542969 121.183594 187.8125 115.507812 Z M 141.171875 160.621094 C 138.570312 165.125 136.085938 169.664062 133.734375 174.214844 C 130.457031 166.457031 127.652344 158.832031 125.363281 151.46875 C 132.878906 149.792969 140.898438 148.417969 149.25 147.378906 C 146.480469 151.683594 143.785156 156.101562 141.171875 160.621094 Z M 149.488281 227.71875 C 140.859375 226.761719 132.722656 225.460938 125.207031 223.828125 C 127.535156 216.332031 130.398438 208.550781 133.746094 200.621094 C 136.105469 205.171875 138.597656 209.710938 141.214844 214.226562 L 141.21875 214.226562 C 143.886719 218.828125 146.652344 223.324219 149.488281 227.71875 Z M 188.121094 259.578125 C 182.789062 253.839844 177.46875 247.484375 172.269531 240.65625 C 177.3125 240.851562 182.460938 240.953125 187.6875 240.953125 C 193.058594 240.953125 198.371094 240.828125 203.589844 240.605469 C 198.464844 247.554688 193.277344 253.921875 188.121094 259.578125 Z M 241.839844 200.222656 C 245.359375 208.230469 248.335938 215.972656 250.691406 223.34375 C 243.054688 225.078125 234.800781 226.476562 226.117188 227.523438 C 228.855469 223.199219 231.550781 218.734375 234.207031 214.144531 C 236.890625 209.503906 239.433594 204.851562 241.839844 200.222656 Z M 224.449219 208.539062 C 220.332031 215.664062 216.101562 222.460938 211.8125 228.878906 C 204 229.433594 195.921875 229.71875 187.6875 229.71875 C 179.484375 229.71875 171.507812 229.472656 163.832031 228.972656 C 159.367188 222.472656 155.046875 215.652344 150.957031 208.601562 C 146.875 201.566406 143.121094 194.472656 139.714844 187.417969 C 143.117188 180.355469 146.867188 173.25 150.921875 166.230469 C 154.992188 159.191406 159.273438 152.40625 163.699219 145.941406 C 171.53125 145.351562 179.566406 145.042969 187.6875 145.042969 C 195.847656 145.042969 203.886719 145.351562 211.71875 145.949219 C 216.082031 152.363281 220.332031 159.128906 224.417969 166.171875 C 228.542969 173.289062 232.34375 180.34375 235.769531 187.265625 C 232.351562 194.296875 228.566406 201.421875 224.449219 208.539062 Z M 247.667969 83.140625 C 256.496094 88.21875 259.921875 108.6875 254.375 135.53125 C 254.027344 137.246094 253.625 138.988281 253.191406 140.757812 C 242.261719 138.242188 230.398438 136.371094 217.976562 135.207031 C 210.730469 124.921875 203.226562 115.570312 195.695312 107.476562 C 197.722656 105.535156 199.75 103.679688 201.757812 101.929688 C 221.207031 85.042969 239.390625 78.375 247.667969 83.140625 Z M 187.6875 163.675781 C 200.675781 163.675781 211.214844 174.179688 211.214844 187.148438 C 211.214844 200.105469 200.675781 210.621094 187.6875 210.621094 C 174.699219 210.621094 164.160156 200.105469 164.160156 187.148438 C 164.160156 174.179688 174.699219 163.675781 187.6875 163.675781 Z M 187.6875 163.675781 " fill-opacity="1" fill-rule="nonzero"/></g></svg>