<svg xmlns="http://www.w3.org/2000/svg" xmlns:xlink="http://www.w3.org/1999/xlink" width="500" zoomAndPan="magnify" viewBox="0 0 375 374.999991" height="500" preserveAspectRatio="xMidYMid meet" version="1.0"><path fill="#f06292" d="M 318.171875 209.882812 C 305.542969 209.949219 294.605469 212.980469 285.441406 217.511719 C 282.089844 210.8125 278.691406 204.917969 278.125 200.535156 C 277.460938 195.421875 276.6875 192.367188 277.492188 186.273438 C 278.296875 180.183594 281.820312 171.550781 281.769531 170.902344 C 281.722656 170.253906 280.980469 167.15625 273.699219 167.097656 C 266.414062 167.046875 260.183594 168.503906 259.453125 170.425781 C 258.722656 172.351562 257.316406 176.683594 256.449219 181.203125 C 255.175781 187.8125 241.90625 211.394531 234.375 223.726562 C 231.914062 218.910156 229.820312 214.667969 229.382812 211.3125 C 228.71875 206.199219 227.945312 203.140625 228.75 197.050781 C 229.554688 190.960938 233.078125 182.328125 233.03125 181.679688 C 232.980469 181.03125 232.242188 177.929688 224.957031 177.875 C 217.675781 177.824219 211.441406 179.28125 210.710938 181.203125 C 209.980469 183.125 209.191406 187.621094 207.707031 191.980469 C 206.210938 196.328125 188.582031 235.660156 183.960938 245.863281 C 181.605469 251.058594 179.558594 255.234375 178.113281 258.078125 C 178.105469 258.070312 178.105469 258.0625 178.105469 258.0625 C 178.105469 258.0625 178.015625 258.25 177.867188 258.570312 C 176.628906 260.996094 175.898438 262.335938 175.898438 262.335938 C 175.898438 262.335938 175.90625 262.351562 175.921875 262.386719 C 174.9375 264.167969 173.886719 265.820312 173.367188 265.820312 C 173.007812 265.820312 172.277344 261.078125 173.523438 254.566406 C 176.152344 240.921875 182.449219 219.648438 182.390625 218.910156 C 182.359375 218.53125 183.566406 214.824219 178.277344 212.882812 C 173.136719 211 171.308594 214.140625 170.839844 214.148438 C 170.386719 214.15625 170.050781 215.257812 170.050781 215.257812 C 170.050781 215.257812 175.773438 191.332031 159.128906 191.332031 C 148.71875 191.332031 134.300781 202.730469 127.199219 213.0625 C 122.714844 215.515625 113.117188 220.757812 102.941406 226.355469 C 99.035156 228.507812 95.042969 230.703125 91.257812 232.792969 C 91.003906 232.503906 90.742188 232.226562 90.476562 231.9375 C 70.285156 210.375 32.976562 195.128906 34.550781 166.136719 C 35.125 155.597656 38.789062 127.847656 106.257812 94.191406 C 161.527344 66.621094 205.777344 74.210938 213.421875 91.019531 C 224.34375 115.046875 189.773438 159.691406 132.378906 166.136719 C 110.511719 168.59375 98.992188 160.101562 96.125 156.945312 C 93.113281 153.617188 92.660156 153.46875 91.535156 154.09375 C 89.707031 155.113281 90.863281 158.046875 91.535156 159.796875 C 93.253906 164.261719 100.28125 172.175781 112.269531 176.121094 C 122.820312 179.59375 148.496094 181.492188 179.542969 169.464844 C 214.324219 156 241.480469 118.53125 233.496094 87.222656 C 225.386719 55.378906 172.636719 44.90625 122.714844 62.660156 C 92.964844 73.230469 60.804688 89.820312 37.671875 111.472656 C 10.171875 137.21875 5.789062 159.632812 7.59375 168.996094 C 14.015625 202.269531 59.824219 223.9375 78.167969 239.992188 C 77.265625 240.496094 76.410156 240.964844 75.640625 241.390625 C 66.445312 245.945312 31.523438 264.242188 22.785156 283.566406 C 12.875 305.492188 24.363281 321.222656 31.964844 323.34375 C 55.523438 329.90625 79.695312 318.101562 92.695312 298.703125 C 105.683594 279.308594 104.101562 254.050781 98.136719 242.523438 C 98.066406 242.386719 97.984375 242.246094 97.910156 242.097656 C 100.28125 240.691406 102.703125 239.261719 105.101562 237.847656 C 109.78125 235.09375 114.378906 232.53125 118.363281 230.359375 C 116.128906 236.476562 114.496094 243.816406 113.648438 254.410156 C 112.648438 266.855469 117.746094 282.941406 124.414062 289.273438 C 127.351562 292.058594 130.882812 292.125 133.117188 292.125 C 140.878906 292.125 144.417969 285.664062 148.316406 278.019531 C 153.09375 268.648438 157.339844 257.730469 157.339844 257.730469 C 157.339844 257.730469 152.019531 287.210938 166.519531 287.210938 C 171.808594 287.210938 177.121094 280.347656 179.492188 276.851562 C 179.5 276.894531 179.5 276.910156 179.5 276.910156 C 179.5 276.910156 179.640625 276.679688 179.914062 276.226562 C 180.460938 275.390625 180.773438 274.855469 180.773438 274.855469 C 180.773438 274.855469 180.78125 274.796875 180.800781 274.699219 C 182.925781 271.007812 187.640625 262.589844 194.699219 248.707031 C 203.832031 230.769531 212.585938 208.296875 212.585938 208.296875 C 212.585938 208.296875 213.398438 213.789062 216.066406 222.878906 C 217.632812 228.222656 220.96875 234.132812 223.601562 239.804688 C 221.484375 242.746094 220.1875 244.433594 220.1875 244.433594 C 220.1875 244.433594 220.195312 244.464844 220.21875 244.523438 C 218.527344 246.773438 216.632812 249.199219 214.644531 251.566406 C 207.4375 260.15625 198.855469 269.972656 197.707031 272.800781 C 196.351562 276.136719 196.671875 278.585938 199.289062 280.566406 C 201.203125 282.007812 204.601562 282.234375 208.160156 281.996094 C 214.636719 281.5625 219.1875 279.949219 221.4375 278.972656 C 224.941406 277.730469 229.023438 275.785156 232.847656 272.964844 C 239.917969 267.761719 244.179688 260.320312 243.769531 250.457031 C 243.539062 245.023438 241.816406 239.640625 239.625 234.558594 C 240.265625 233.640625 240.902344 232.703125 241.554688 231.765625 C 252.695312 215.457031 261.339844 197.535156 261.339844 197.535156 C 261.339844 197.535156 262.15625 203.027344 264.824219 212.117188 C 266.167969 216.714844 268.839844 221.738281 271.234375 226.652344 C 260.757812 235.175781 254.261719 245.082031 252.003906 251.574219 C 247.835938 263.59375 251.101562 269.035156 257.226562 270.277344 C 260.003906 270.835938 263.929688 269.5625 266.875 268.3125 C 270.546875 267.09375 274.957031 265.066406 279.078125 262.03125 C 286.148438 256.828125 292.945312 249.546875 292.535156 239.6875 C 292.347656 235.199219 291.132812 230.746094 289.480469 226.472656 C 298.363281 222.765625 309.859375 220.707031 324.507812 222.417969 C 355.933594 226.09375 362.089844 245.730469 360.917969 253.949219 C 359.734375 262.171875 353.148438 266.691406 350.941406 268.058594 C 348.738281 269.421875 348.066406 269.898438 348.246094 270.910156 C 348.519531 272.378906 349.535156 272.332031 351.417969 272.011719 C 354.003906 271.574219 367.914062 265.328125 368.511719 250.152344 C 369.257812 230.867188 350.824219 209.710938 318.171875 209.882812 Z M 75.96875 291.625 C 65.558594 302.992188 51.023438 307.28125 44.78125 303.667969 C 38.050781 299.761719 40.71875 283.027344 53.488281 270.957031 C 61.269531 263.609375 71.320312 256.835938 77.988281 252.667969 C 79.507812 251.757812 81.734375 250.417969 84.441406 248.789062 C 84.894531 248.535156 85.148438 248.394531 85.148438 248.394531 L 85.140625 248.378906 C 85.664062 248.066406 86.199219 247.746094 86.75 247.40625 C 91.40625 264.578125 86.898438 279.695312 75.96875 291.625 Z M 151.796875 240.027344 C 148.175781 248.871094 140.589844 271.507812 135.96875 270.292969 C 132 269.25 129.585938 252.042969 135.179688 235.109375 C 137.988281 226.585938 143.996094 216.402344 147.527344 212.449219 C 153.210938 206.085938 159.46875 204.003906 160.984375 206.585938 C 162.914062 209.875 154.070312 234.476562 151.796875 240.027344 Z M 214.441406 269.949219 C 212.90625 270.753906 211.492188 271.253906 210.84375 270.867188 C 210.359375 270.582031 211.476562 269.519531 211.476562 269.519531 C 211.476562 269.519531 219.308594 261.078125 222.394531 257.238281 C 224.195312 255.003906 226.273438 252.347656 228.539062 249.390625 C 228.554688 249.683594 228.5625 249.980469 228.5625 250.269531 C 228.546875 260.378906 218.792969 267.203125 214.441406 269.949219 Z M 262.695312 258.933594 C 261.546875 258.117188 261.742188 255.480469 265.511719 247.25 C 266.992188 244.019531 270.375 238.585938 276.238281 233.390625 C 276.917969 235.53125 277.328125 237.578125 277.320312 239.484375 C 277.246094 252.207031 268.179688 256.960938 262.695312 258.933594 Z M 262.695312 258.933594 " fill-opacity="1" fill-rule="nonzero"/></svg>