<svg xmlns="http://www.w3.org/2000/svg" xmlns:xlink="http://www.w3.org/1999/xlink" width="500" zoomAndPan="magnify" viewBox="0 0 375 374.999991" height="500" preserveAspectRatio="xMidYMid meet" version="1.0"><defs><clipPath id="f790398431"><path d="M 5.421875 5.421875 L 369.921875 5.421875 L 369.921875 369.921875 L 5.421875 369.921875 Z M 5.421875 5.421875 " clip-rule="nonzero"/></clipPath></defs><g clip-path="url(#f790398431)"><path fill="#ffe9fa" d="M 369.921875 187.671875 C 369.921875 190.65625 369.851562 193.636719 369.703125 196.617188 C 369.558594 199.59375 369.335938 202.566406 369.046875 205.535156 C 368.753906 208.503906 368.386719 211.464844 367.949219 214.414062 C 367.511719 217.363281 367.003906 220.304688 366.421875 223.226562 C 365.839844 226.152344 365.1875 229.0625 364.460938 231.957031 C 363.738281 234.847656 362.941406 237.722656 362.074219 240.578125 C 361.210938 243.429688 360.273438 246.261719 359.269531 249.070312 C 358.265625 251.878906 357.191406 254.660156 356.050781 257.417969 C 354.910156 260.171875 353.699219 262.898438 352.425781 265.59375 C 351.148438 268.292969 349.808594 270.953125 348.402344 273.585938 C 346.996094 276.214844 345.527344 278.808594 343.992188 281.367188 C 342.460938 283.925781 340.867188 286.445312 339.207031 288.925781 C 337.550781 291.40625 335.835938 293.84375 334.058594 296.238281 C 332.28125 298.636719 330.445312 300.984375 328.554688 303.292969 C 326.660156 305.597656 324.714844 307.855469 322.710938 310.066406 C 320.707031 312.273438 318.652344 314.433594 316.542969 316.542969 C 314.433594 318.652344 312.273438 320.707031 310.066406 322.710938 C 307.855469 324.714844 305.597656 326.660156 303.292969 328.554688 C 300.984375 330.445312 298.636719 332.28125 296.238281 334.058594 C 293.84375 335.835938 291.40625 337.550781 288.925781 339.207031 C 286.445312 340.867188 283.925781 342.460938 281.367188 343.992188 C 278.808594 345.527344 276.214844 346.996094 273.585938 348.402344 C 270.953125 349.808594 268.292969 351.148438 265.59375 352.425781 C 262.898438 353.699219 260.171875 354.910156 257.417969 356.050781 C 254.660156 357.191406 251.878906 358.265625 249.070312 359.269531 C 246.261719 360.273438 243.429688 361.210938 240.578125 362.074219 C 237.722656 362.941406 234.847656 363.738281 231.957031 364.460938 C 229.0625 365.1875 226.152344 365.839844 223.226562 366.421875 C 220.304688 367.003906 217.363281 367.511719 214.414062 367.949219 C 211.464844 368.386719 208.503906 368.753906 205.535156 369.046875 C 202.566406 369.335938 199.59375 369.558594 196.617188 369.703125 C 193.636719 369.851562 190.65625 369.921875 187.671875 369.921875 C 184.691406 369.921875 181.710938 369.851562 178.730469 369.703125 C 175.75 369.558594 172.777344 369.335938 169.808594 369.046875 C 166.839844 368.753906 163.882812 368.386719 160.929688 367.949219 C 157.980469 367.511719 155.042969 367.003906 152.117188 366.421875 C 149.191406 365.839844 146.28125 365.1875 143.390625 364.460938 C 140.496094 363.738281 137.621094 362.941406 134.769531 362.074219 C 131.914062 361.210938 129.082031 360.273438 126.273438 359.269531 C 123.464844 358.265625 120.683594 357.191406 117.929688 356.050781 C 115.171875 354.910156 112.449219 353.699219 109.75 352.425781 C 107.054688 351.148438 104.390625 349.808594 101.761719 348.402344 C 99.128906 346.996094 96.535156 345.527344 93.976562 343.992188 C 91.417969 342.460938 88.898438 340.867188 86.421875 339.207031 C 83.941406 337.550781 81.503906 335.835938 79.105469 334.058594 C 76.710938 332.28125 74.359375 330.445312 72.054688 328.554688 C 69.75 326.660156 67.492188 324.714844 65.28125 322.710938 C 63.070312 320.707031 60.910156 318.652344 58.804688 316.542969 C 56.695312 314.433594 54.636719 312.273438 52.632812 310.066406 C 50.632812 307.855469 48.683594 305.597656 46.792969 303.292969 C 44.898438 300.984375 43.066406 298.636719 41.289062 296.238281 C 39.511719 293.84375 37.792969 291.40625 36.136719 288.925781 C 34.480469 286.445312 32.886719 283.925781 31.351562 281.367188 C 29.820312 278.808594 28.347656 276.214844 26.941406 273.585938 C 25.535156 270.953125 24.195312 268.292969 22.921875 265.59375 C 21.644531 262.898438 20.4375 260.171875 19.296875 257.417969 C 18.15625 254.660156 17.082031 251.878906 16.078125 249.070312 C 15.070312 246.261719 14.136719 243.429688 13.269531 240.578125 C 12.40625 237.722656 11.609375 234.847656 10.886719 231.957031 C 10.160156 229.0625 9.507812 226.152344 8.925781 223.226562 C 8.34375 220.304688 7.832031 217.363281 7.394531 214.414062 C 6.957031 211.464844 6.59375 208.503906 6.300781 205.535156 C 6.007812 202.566406 5.789062 199.59375 5.640625 196.617188 C 5.496094 193.636719 5.421875 190.65625 5.421875 187.671875 C 5.421875 184.691406 5.496094 181.710938 5.640625 178.730469 C 5.789062 175.75 6.007812 172.777344 6.300781 169.808594 C 6.59375 166.839844 6.957031 163.882812 7.394531 160.929688 C 7.832031 157.980469 8.34375 155.042969 8.925781 152.117188 C 9.507812 149.191406 10.160156 146.28125 10.886719 143.390625 C 11.609375 140.496094 12.40625 137.621094 13.269531 134.769531 C 14.136719 131.914062 15.070312 129.082031 16.078125 126.273438 C 17.082031 123.464844 18.15625 120.683594 19.296875 117.929688 C 20.4375 115.171875 21.644531 112.449219 22.921875 109.75 C 24.195312 107.054688 25.535156 104.390625 26.941406 101.761719 C 28.347656 99.128906 29.820312 96.535156 31.351562 93.976562 C 32.886719 91.417969 34.480469 88.898438 36.136719 86.421875 C 37.792969 83.941406 39.511719 81.503906 41.289062 79.105469 C 43.066406 76.710938 44.898438 74.359375 46.792969 72.054688 C 48.683594 69.75 50.632812 67.492188 52.632812 65.28125 C 54.636719 63.070312 56.695312 60.910156 58.804688 58.804688 C 60.910156 56.695312 63.070312 54.636719 65.28125 52.632812 C 67.492188 50.632812 69.75 48.683594 72.054688 46.792969 C 74.359375 44.898438 76.710938 43.066406 79.105469 41.289062 C 81.503906 39.511719 83.941406 37.792969 86.421875 36.136719 C 88.898438 34.480469 91.417969 32.886719 93.976562 31.351562 C 96.535156 29.820312 99.128906 28.347656 101.761719 26.941406 C 104.390625 25.535156 107.054688 24.195312 109.75 22.921875 C 112.449219 21.644531 115.171875 20.4375 117.929688 19.296875 C 120.683594 18.15625 123.464844 17.082031 126.273438 16.078125 C 129.082031 15.070312 131.914062 14.136719 134.769531 13.269531 C 137.621094 12.40625 140.496094 11.609375 143.390625 10.886719 C 146.28125 10.160156 149.191406 9.507812 152.117188 8.925781 C 155.042969 8.34375 157.980469 7.832031 160.929688 7.394531 C 163.882812 6.957031 166.839844 6.59375 169.808594 6.300781 C 172.777344 6.007812 175.75 5.789062 178.730469 5.640625 C 181.710938 5.496094 184.691406 5.421875 187.671875 5.421875 C 190.65625 5.421875 193.636719 5.496094 196.617188 5.640625 C 199.59375 5.789062 202.566406 6.007812 205.535156 6.300781 C 208.503906 6.59375 211.464844 6.957031 214.414062 7.394531 C 217.363281 7.832031 220.304688 8.34375 223.226562 8.925781 C 226.152344 9.507812 229.0625 10.160156 231.957031 10.886719 C 234.847656 11.609375 237.722656 12.40625 240.578125 13.269531 C 243.429688 14.136719 246.261719 15.070312 249.070312 16.078125 C 251.878906 17.082031 254.660156 18.15625 257.417969 19.296875 C 260.171875 20.4375 262.898438 21.644531 265.59375 22.921875 C 268.292969 24.195312 270.953125 25.535156 273.585938 26.941406 C 276.214844 28.347656 278.808594 29.820312 281.367188 31.351562 C 283.925781 32.886719 286.445312 34.480469 288.925781 36.136719 C 291.40625 37.792969 293.84375 39.511719 296.238281 41.289062 C 298.636719 43.066406 300.984375 44.898438 303.292969 46.792969 C 305.597656 48.683594 307.855469 50.632812 310.066406 52.632812 C 312.273438 54.636719 314.433594 56.695312 316.542969 58.804688 C 318.652344 60.910156 320.707031 63.070312 322.710938 65.28125 C 324.714844 67.492188 326.660156 69.75 328.554688 72.054688 C 330.445312 74.359375 332.28125 76.710938 334.058594 79.105469 C 335.835938 81.503906 337.550781 83.941406 339.207031 86.421875 C 340.867188 88.898438 342.460938 91.417969 343.992188 93.976562 C 345.527344 96.535156 346.996094 99.128906 348.402344 101.761719 C 349.808594 104.390625 351.148438 107.054688 352.425781 109.75 C 353.699219 112.449219 354.910156 115.171875 356.050781 117.929688 C 357.191406 120.683594 358.265625 123.464844 359.269531 126.273438 C 360.273438 129.082031 361.210938 131.914062 362.074219 134.769531 C 362.941406 137.621094 363.738281 140.496094 364.460938 143.390625 C 365.1875 146.28125 365.839844 149.191406 366.421875 152.117188 C 367.003906 155.042969 367.511719 157.980469 367.949219 160.929688 C 368.386719 163.882812 368.753906 166.839844 369.046875 169.808594 C 369.335938 172.777344 369.558594 175.75 369.703125 178.730469 C 369.851562 181.710938 369.921875 184.691406 369.921875 187.671875 Z M 369.921875 187.671875 " fill-opacity="1" fill-rule="nonzero"/></g><path fill="#f06292" d="M 277.058594 195.503906 C 268.386719 195.550781 260.878906 197.632812 254.585938 200.742188 C 252.285156 196.144531 249.953125 192.097656 249.5625 189.089844 C 249.105469 185.578125 248.578125 183.480469 249.128906 179.296875 C 249.683594 175.117188 252.101562 169.191406 252.066406 168.746094 C 252.03125 168.296875 251.527344 166.171875 246.523438 166.132812 C 241.523438 166.097656 237.246094 167.097656 236.742188 168.417969 C 236.242188 169.738281 235.277344 172.710938 234.679688 175.816406 C 233.804688 180.351562 224.695312 196.542969 219.527344 205.007812 C 217.835938 201.703125 216.398438 198.789062 216.097656 196.488281 C 215.640625 192.976562 215.113281 190.878906 215.664062 186.695312 C 216.214844 182.515625 218.636719 176.589844 218.601562 176.144531 C 218.566406 175.695312 218.058594 173.570312 213.058594 173.53125 C 208.058594 173.496094 203.78125 174.496094 203.277344 175.816406 C 202.777344 177.136719 202.234375 180.222656 201.214844 183.214844 C 200.1875 186.199219 188.085938 213.203125 184.910156 220.207031 C 183.292969 223.773438 181.886719 226.640625 180.894531 228.589844 C 180.890625 228.585938 180.890625 228.582031 180.890625 228.582031 C 180.890625 228.582031 180.828125 228.710938 180.726562 228.929688 C 179.875 230.59375 179.375 231.515625 179.375 231.515625 C 179.375 231.515625 179.378906 231.527344 179.390625 231.546875 C 178.714844 232.773438 177.992188 233.90625 177.636719 233.90625 C 177.390625 233.90625 176.886719 230.652344 177.746094 226.183594 C 179.550781 216.8125 183.875 202.210938 183.832031 201.703125 C 183.8125 201.441406 184.640625 198.898438 181.007812 197.566406 C 177.480469 196.273438 176.222656 198.429688 175.902344 198.433594 C 175.589844 198.441406 175.359375 199.195312 175.359375 199.195312 C 175.359375 199.195312 179.289062 182.769531 167.863281 182.769531 C 160.714844 182.769531 150.8125 190.59375 145.9375 197.6875 C 142.859375 199.371094 136.269531 202.972656 129.285156 206.8125 C 126.601562 208.292969 123.859375 209.800781 121.261719 211.234375 C 121.085938 211.035156 120.90625 210.84375 120.726562 210.644531 C 106.863281 195.84375 81.246094 185.375 82.328125 165.472656 C 82.722656 158.238281 85.234375 139.183594 131.5625 116.082031 C 169.507812 97.152344 199.890625 102.363281 205.136719 113.902344 C 212.636719 130.398438 188.902344 161.046875 149.496094 165.472656 C 134.480469 167.160156 126.570312 161.328125 124.605469 159.160156 C 122.535156 156.875 122.226562 156.773438 121.453125 157.203125 C 120.195312 157.902344 120.988281 159.917969 121.453125 161.121094 C 122.628906 164.183594 127.457031 169.617188 135.6875 172.328125 C 142.933594 174.710938 160.5625 176.011719 181.878906 167.757812 C 205.757812 158.511719 224.402344 132.789062 218.921875 111.296875 C 213.351562 89.433594 177.136719 82.242188 142.859375 94.433594 C 122.433594 101.691406 100.351562 113.078125 84.46875 127.941406 C 65.589844 145.617188 62.578125 161.007812 63.816406 167.433594 C 68.226562 190.277344 99.679688 205.15625 112.273438 216.175781 C 111.652344 216.519531 111.066406 216.84375 110.539062 217.136719 C 104.222656 220.261719 80.246094 232.824219 74.25 246.089844 C 67.445312 261.140625 75.332031 271.945312 80.550781 273.398438 C 96.726562 277.902344 113.324219 269.800781 122.246094 256.480469 C 131.167969 243.167969 130.078125 225.828125 125.984375 217.914062 C 125.933594 217.820312 125.878906 217.722656 125.828125 217.621094 C 127.457031 216.65625 129.121094 215.675781 130.765625 214.703125 C 133.980469 212.8125 137.136719 211.050781 139.871094 209.5625 C 138.335938 213.761719 137.214844 218.800781 136.636719 226.074219 C 135.945312 234.617188 139.449219 245.664062 144.027344 250.007812 C 146.042969 251.921875 148.46875 251.964844 150 251.964844 C 155.328125 251.964844 157.757812 247.53125 160.4375 242.28125 C 163.71875 235.847656 166.632812 228.355469 166.632812 228.355469 C 166.632812 228.355469 162.980469 248.589844 172.9375 248.589844 C 176.566406 248.589844 180.214844 243.878906 181.84375 241.480469 C 181.847656 241.507812 181.847656 241.519531 181.847656 241.519531 C 181.847656 241.519531 181.945312 241.363281 182.132812 241.050781 C 182.507812 240.476562 182.722656 240.109375 182.722656 240.109375 C 182.722656 240.109375 182.730469 240.070312 182.738281 240.003906 C 184.199219 237.46875 187.4375 231.691406 192.285156 222.160156 C 198.554688 209.84375 204.5625 194.414062 204.5625 194.414062 C 204.5625 194.414062 205.121094 198.183594 206.953125 204.425781 C 208.03125 208.09375 210.320312 212.152344 212.128906 216.046875 C 210.675781 218.066406 209.785156 219.222656 209.785156 219.222656 C 209.785156 219.222656 209.789062 219.246094 209.804688 219.285156 C 208.644531 220.832031 207.34375 222.496094 205.980469 224.121094 C 201.027344 230.019531 195.136719 236.757812 194.347656 238.699219 C 193.417969 240.988281 193.636719 242.671875 195.4375 244.03125 C 196.75 245.019531 199.082031 245.175781 201.523438 245.011719 C 205.972656 244.714844 209.097656 243.609375 210.640625 242.9375 C 213.046875 242.085938 215.851562 240.746094 218.476562 238.8125 C 223.332031 235.238281 226.257812 230.132812 225.976562 223.359375 C 225.816406 219.628906 224.632812 215.933594 223.128906 212.445312 C 223.566406 211.8125 224.007812 211.171875 224.453125 210.527344 C 232.105469 199.332031 238.039062 187.027344 238.039062 187.027344 C 238.039062 187.027344 238.597656 190.796875 240.429688 197.039062 C 241.355469 200.195312 243.1875 203.644531 244.832031 207.015625 C 237.640625 212.871094 233.179688 219.667969 231.628906 224.128906 C 228.765625 232.378906 231.011719 236.113281 235.214844 236.964844 C 237.121094 237.351562 239.816406 236.476562 241.839844 235.617188 C 244.359375 234.78125 247.386719 233.386719 250.21875 231.304688 C 255.070312 227.734375 259.738281 222.734375 259.457031 215.96875 C 259.328125 212.886719 258.492188 209.828125 257.359375 206.894531 C 263.460938 204.347656 271.351562 202.9375 281.410156 204.109375 C 302.988281 206.632812 307.214844 220.117188 306.410156 225.757812 C 305.597656 231.402344 301.074219 234.503906 299.558594 235.441406 C 298.046875 236.378906 297.585938 236.707031 297.710938 237.402344 C 297.894531 238.410156 298.59375 238.378906 299.886719 238.15625 C 301.660156 237.859375 311.210938 233.570312 311.625 223.152344 C 312.136719 209.914062 299.480469 195.386719 277.058594 195.503906 Z M 110.761719 251.621094 C 103.613281 259.425781 93.636719 262.371094 89.351562 259.890625 C 84.730469 257.207031 86.5625 245.71875 95.328125 237.433594 C 100.671875 232.390625 107.574219 227.738281 112.148438 224.878906 C 113.191406 224.25 114.722656 223.332031 116.582031 222.214844 C 116.890625 222.039062 117.066406 221.945312 117.066406 221.945312 L 117.0625 221.933594 C 117.421875 221.71875 117.789062 221.496094 118.164062 221.265625 C 121.363281 233.054688 118.265625 243.433594 110.761719 251.621094 Z M 162.828125 216.199219 C 160.339844 222.269531 155.132812 237.8125 151.957031 236.976562 C 149.234375 236.261719 147.578125 224.449219 151.417969 212.824219 C 153.34375 206.972656 157.472656 199.980469 159.894531 197.265625 C 163.796875 192.898438 168.09375 191.46875 169.136719 193.242188 C 170.460938 195.5 164.390625 212.390625 162.828125 216.199219 Z M 205.835938 236.742188 C 204.785156 237.292969 203.8125 237.636719 203.367188 237.371094 C 203.035156 237.175781 203.800781 236.445312 203.800781 236.445312 C 203.800781 236.445312 209.179688 230.652344 211.300781 228.015625 C 212.535156 226.480469 213.960938 224.660156 215.515625 222.625 C 215.527344 222.828125 215.535156 223.03125 215.535156 223.230469 C 215.523438 230.171875 208.824219 234.855469 205.835938 236.742188 Z M 238.96875 229.179688 C 238.179688 228.621094 238.316406 226.808594 240.902344 221.160156 C 241.917969 218.941406 244.242188 215.210938 248.265625 211.644531 C 248.734375 213.113281 249.015625 214.515625 249.011719 215.828125 C 248.960938 224.5625 242.734375 227.824219 238.96875 229.179688 Z M 238.96875 229.179688 " fill-opacity="1" fill-rule="nonzero"/></svg>