<svg xmlns="http://www.w3.org/2000/svg" xmlns:xlink="http://www.w3.org/1999/xlink" width="500" zoomAndPan="magnify" viewBox="0 0 375 374.999991" height="500" preserveAspectRatio="xMidYMid meet" version="1.0"><defs><clipPath id="56876f03ec"><path d="M 5.421875 5.421875 L 369.921875 5.421875 L 369.921875 369.921875 L 5.421875 369.921875 Z M 5.421875 5.421875 " clip-rule="nonzero"/></clipPath><clipPath id="f1c3170dd7"><path d="M 79.558594 151 L 224 151 L 224 295.558594 L 79.558594 295.558594 Z M 79.558594 151 " clip-rule="nonzero"/></clipPath><clipPath id="ed65af3f82"><path d="M 151 79.558594 L 295.558594 79.558594 L 295.558594 224 L 151 224 Z M 151 79.558594 " clip-rule="nonzero"/></clipPath><clipPath id="f299b4a73b"><path d="M 79.558594 223 L 152 223 L 152 295.558594 L 79.558594 295.558594 Z M 79.558594 223 " clip-rule="nonzero"/></clipPath><clipPath id="973e471068"><path d="M 223 79.558594 L 295.558594 79.558594 L 295.558594 152 L 223 152 Z M 223 79.558594 " clip-rule="nonzero"/></clipPath></defs><g clip-path="url(#56876f03ec)"><path fill="#def2ff" d="M 369.921875 187.671875 C 369.921875 190.65625 369.851562 193.636719 369.703125 196.617188 C 369.558594 199.59375 369.335938 202.566406 369.046875 205.535156 C 368.753906 208.503906 368.386719 211.464844 367.949219 214.414062 C 367.511719 217.363281 367.003906 220.304688 366.421875 223.226562 C 365.839844 226.152344 365.1875 229.0625 364.460938 231.957031 C 363.738281 234.847656 362.941406 237.722656 362.074219 240.578125 C 361.210938 243.429688 360.273438 246.261719 359.269531 249.070312 C 358.265625 251.878906 357.191406 254.660156 356.050781 257.417969 C 354.910156 260.171875 353.699219 262.898438 352.425781 265.59375 C 351.148438 268.292969 349.808594 270.953125 348.402344 273.585938 C 346.996094 276.214844 345.527344 278.808594 343.992188 281.367188 C 342.460938 283.925781 340.867188 286.445312 339.207031 288.925781 C 337.550781 291.40625 335.835938 293.84375 334.058594 296.238281 C 332.28125 298.636719 330.445312 300.984375 328.554688 303.292969 C 326.660156 305.597656 324.714844 307.855469 322.710938 310.066406 C 320.707031 312.273438 318.652344 314.433594 316.542969 316.542969 C 314.433594 318.652344 312.273438 320.707031 310.066406 322.710938 C 307.855469 324.714844 305.597656 326.660156 303.292969 328.554688 C 300.984375 330.445312 298.636719 332.28125 296.238281 334.058594 C 293.84375 335.835938 291.40625 337.550781 288.925781 339.207031 C 286.445312 340.867188 283.925781 342.460938 281.367188 343.992188 C 278.808594 345.527344 276.214844 346.996094 273.585938 348.402344 C 270.953125 349.808594 268.292969 351.148438 265.59375 352.425781 C 262.898438 353.699219 260.171875 354.910156 257.417969 356.050781 C 254.660156 357.191406 251.878906 358.265625 249.070312 359.269531 C 246.261719 360.273438 243.429688 361.210938 240.578125 362.074219 C 237.722656 362.941406 234.847656 363.738281 231.957031 364.460938 C 229.0625 365.1875 226.152344 365.839844 223.226562 366.421875 C 220.304688 367.003906 217.363281 367.511719 214.414062 367.949219 C 211.464844 368.386719 208.503906 368.753906 205.535156 369.046875 C 202.566406 369.335938 199.59375 369.558594 196.617188 369.703125 C 193.636719 369.851562 190.65625 369.921875 187.671875 369.921875 C 184.691406 369.921875 181.710938 369.851562 178.730469 369.703125 C 175.75 369.558594 172.777344 369.335938 169.808594 369.046875 C 166.839844 368.753906 163.882812 368.386719 160.929688 367.949219 C 157.980469 367.511719 155.042969 367.003906 152.117188 366.421875 C 149.191406 365.839844 146.28125 365.1875 143.390625 364.460938 C 140.496094 363.738281 137.621094 362.941406 134.769531 362.074219 C 131.914062 361.210938 129.082031 360.273438 126.273438 359.269531 C 123.464844 358.265625 120.683594 357.191406 117.929688 356.050781 C 115.171875 354.910156 112.449219 353.699219 109.75 352.425781 C 107.054688 351.148438 104.390625 349.808594 101.761719 348.402344 C 99.128906 346.996094 96.535156 345.527344 93.976562 343.992188 C 91.417969 342.460938 88.898438 340.867188 86.421875 339.207031 C 83.941406 337.550781 81.503906 335.835938 79.105469 334.058594 C 76.710938 332.28125 74.359375 330.445312 72.054688 328.554688 C 69.75 326.660156 67.492188 324.714844 65.28125 322.710938 C 63.070312 320.707031 60.910156 318.652344 58.804688 316.542969 C 56.695312 314.433594 54.636719 312.273438 52.632812 310.066406 C 50.632812 307.855469 48.683594 305.597656 46.792969 303.292969 C 44.898438 300.984375 43.066406 298.636719 41.289062 296.238281 C 39.511719 293.84375 37.792969 291.40625 36.136719 288.925781 C 34.480469 286.445312 32.886719 283.925781 31.351562 281.367188 C 29.820312 278.808594 28.347656 276.214844 26.941406 273.585938 C 25.535156 270.953125 24.195312 268.292969 22.921875 265.59375 C 21.644531 262.898438 20.4375 260.171875 19.296875 257.417969 C 18.15625 254.660156 17.082031 251.878906 16.078125 249.070312 C 15.070312 246.261719 14.136719 243.429688 13.269531 240.578125 C 12.40625 237.722656 11.609375 234.847656 10.886719 231.957031 C 10.160156 229.0625 9.507812 226.152344 8.925781 223.226562 C 8.34375 220.304688 7.832031 217.363281 7.394531 214.414062 C 6.957031 211.464844 6.59375 208.503906 6.300781 205.535156 C 6.007812 202.566406 5.789062 199.59375 5.640625 196.617188 C 5.496094 193.636719 5.421875 190.65625 5.421875 187.671875 C 5.421875 184.691406 5.496094 181.710938 5.640625 178.730469 C 5.789062 175.75 6.007812 172.777344 6.300781 169.808594 C 6.59375 166.839844 6.957031 163.882812 7.394531 160.929688 C 7.832031 157.980469 8.34375 155.042969 8.925781 152.117188 C 9.507812 149.191406 10.160156 146.28125 10.886719 143.390625 C 11.609375 140.496094 12.40625 137.621094 13.269531 134.769531 C 14.136719 131.914062 15.070312 129.082031 16.078125 126.273438 C 17.082031 123.464844 18.15625 120.683594 19.296875 117.929688 C 20.4375 115.171875 21.644531 112.449219 22.921875 109.75 C 24.195312 107.054688 25.535156 104.390625 26.941406 101.761719 C 28.347656 99.128906 29.820312 96.535156 31.351562 93.976562 C 32.886719 91.417969 34.480469 88.898438 36.136719 86.421875 C 37.792969 83.941406 39.511719 81.503906 41.289062 79.105469 C 43.066406 76.710938 44.898438 74.359375 46.792969 72.054688 C 48.683594 69.75 50.632812 67.492188 52.632812 65.28125 C 54.636719 63.070312 56.695312 60.910156 58.804688 58.804688 C 60.910156 56.695312 63.070312 54.636719 65.28125 52.632812 C 67.492188 50.632812 69.75 48.683594 72.054688 46.792969 C 74.359375 44.898438 76.710938 43.066406 79.105469 41.289062 C 81.503906 39.511719 83.941406 37.792969 86.421875 36.136719 C 88.898438 34.480469 91.417969 32.886719 93.976562 31.351562 C 96.535156 29.820312 99.128906 28.347656 101.761719 26.941406 C 104.390625 25.535156 107.054688 24.195312 109.75 22.921875 C 112.449219 21.644531 115.171875 20.4375 117.929688 19.296875 C 120.683594 18.15625 123.464844 17.082031 126.273438 16.078125 C 129.082031 15.070312 131.914062 14.136719 134.769531 13.269531 C 137.621094 12.40625 140.496094 11.609375 143.390625 10.886719 C 146.28125 10.160156 149.191406 9.507812 152.117188 8.925781 C 155.042969 8.34375 157.980469 7.832031 160.929688 7.394531 C 163.882812 6.957031 166.839844 6.59375 169.808594 6.300781 C 172.777344 6.007812 175.75 5.789062 178.730469 5.640625 C 181.710938 5.496094 184.691406 5.421875 187.671875 5.421875 C 190.65625 5.421875 193.636719 5.496094 196.617188 5.640625 C 199.59375 5.789062 202.566406 6.007812 205.535156 6.300781 C 208.503906 6.59375 211.464844 6.957031 214.414062 7.394531 C 217.363281 7.832031 220.304688 8.34375 223.226562 8.925781 C 226.152344 9.507812 229.0625 10.160156 231.957031 10.886719 C 234.847656 11.609375 237.722656 12.40625 240.578125 13.269531 C 243.429688 14.136719 246.261719 15.070312 249.070312 16.078125 C 251.878906 17.082031 254.660156 18.15625 257.417969 19.296875 C 260.171875 20.4375 262.898438 21.644531 265.59375 22.921875 C 268.292969 24.195312 270.953125 25.535156 273.585938 26.941406 C 276.214844 28.347656 278.808594 29.820312 281.367188 31.351562 C 283.925781 32.886719 286.445312 34.480469 288.925781 36.136719 C 291.40625 37.792969 293.84375 39.511719 296.238281 41.289062 C 298.636719 43.066406 300.984375 44.898438 303.292969 46.792969 C 305.597656 48.683594 307.855469 50.632812 310.066406 52.632812 C 312.273438 54.636719 314.433594 56.695312 316.542969 58.804688 C 318.652344 60.910156 320.707031 63.070312 322.710938 65.28125 C 324.714844 67.492188 326.660156 69.75 328.554688 72.054688 C 330.445312 74.359375 332.28125 76.710938 334.058594 79.105469 C 335.835938 81.503906 337.550781 83.941406 339.207031 86.421875 C 340.867188 88.898438 342.460938 91.417969 343.992188 93.976562 C 345.527344 96.535156 346.996094 99.128906 348.402344 101.761719 C 349.808594 104.390625 351.148438 107.054688 352.425781 109.75 C 353.699219 112.449219 354.910156 115.171875 356.050781 117.929688 C 357.191406 120.683594 358.265625 123.464844 359.269531 126.273438 C 360.273438 129.082031 361.210938 131.914062 362.074219 134.769531 C 362.941406 137.621094 363.738281 140.496094 364.460938 143.390625 C 365.1875 146.28125 365.839844 149.191406 366.421875 152.117188 C 367.003906 155.042969 367.511719 157.980469 367.949219 160.929688 C 368.386719 163.882812 368.753906 166.839844 369.046875 169.808594 C 369.335938 172.777344 369.558594 175.75 369.703125 178.730469 C 369.851562 181.710938 369.921875 184.691406 369.921875 187.671875 Z M 369.921875 187.671875 " fill-opacity="1" fill-rule="nonzero"/></g><g clip-path="url(#f1c3170dd7)"><path fill="#9de1f3" d="M 151.558594 151.558594 L 79.558594 151.558594 L 79.558594 295.558594 L 223.5625 295.558594 L 223.5625 151.558594 Z M 151.558594 151.558594 " fill-opacity="1" fill-rule="nonzero"/></g><g clip-path="url(#ed65af3f82)"><path fill="#27b4e1" d="M 151.558594 79.558594 L 151.558594 223.5625 L 295.558594 223.5625 L 295.558594 79.558594 Z M 151.558594 79.558594 " fill-opacity="1" fill-rule="nonzero"/></g><g clip-path="url(#f299b4a73b)"><path fill="#1a82e2" d="M 79.558594 295.558594 L 151.558594 295.558594 L 151.558594 223.5625 L 79.558594 223.5625 Z M 79.558594 295.558594 " fill-opacity="1" fill-rule="nonzero"/></g><g clip-path="url(#973e471068)"><path fill="#1a82e2" d="M 223.5625 151.558594 L 295.558594 151.558594 L 295.558594 79.558594 L 223.5625 79.558594 Z M 223.5625 151.558594 " fill-opacity="1" fill-rule="nonzero"/></g><path fill="#239fd7" d="M 151.558594 223.5625 L 223.5625 223.5625 L 223.5625 151.558594 L 151.558594 151.558594 Z M 151.558594 223.5625 " fill-opacity="1" fill-rule="nonzero"/></svg>