<svg xmlns="http://www.w3.org/2000/svg" xmlns:xlink="http://www.w3.org/1999/xlink" width="500" zoomAndPan="magnify" viewBox="0 0 375 374.999991" height="500" preserveAspectRatio="xMidYMid meet" version="1.0"><defs><clipPath id="836baa53ed"><path d="M 7.316406 249 L 367.316406 249 L 367.316406 307.890625 L 7.316406 307.890625 Z M 7.316406 249 " clip-rule="nonzero"/></clipPath><clipPath id="d64c5dcd3c"><path d="M 55 67.226562 L 320 67.226562 L 320 235 L 55 235 Z M 55 67.226562 " clip-rule="nonzero"/></clipPath></defs><g clip-path="url(#836baa53ed)"><path fill="#646269" d="M 239.253906 292.742188 L 135.378906 292.742188 C 134.664062 292.742188 134.207031 291.984375 134.535156 291.351562 L 142.53125 275.929688 C 142.695312 275.613281 143.019531 275.417969 143.375 275.417969 L 231.257812 275.417969 C 231.613281 275.417969 231.941406 275.613281 232.101562 275.929688 L 240.097656 291.351562 C 240.429688 291.984375 239.96875 292.742188 239.253906 292.742188 Z M 365.023438 294.492188 L 322.003906 251.394531 C 320.535156 249.921875 318.546875 249.097656 316.46875 249.097656 L 58.167969 249.097656 C 56.089844 249.097656 54.097656 249.921875 52.625 251.394531 L 9.613281 294.492188 C 8.140625 295.964844 7.316406 297.960938 7.316406 300.042969 C 7.316406 304.375 10.824219 307.890625 15.148438 307.890625 L 359.484375 307.890625 C 363.808594 307.890625 367.316406 304.375 367.316406 300.042969 C 367.316406 297.960938 366.492188 295.964844 365.023438 294.492188 " fill-opacity="1" fill-rule="nonzero"/></g><g clip-path="url(#d64c5dcd3c)"><path fill="#646269" d="M 306.835938 67.3125 L 67.796875 67.3125 C 60.882812 67.3125 55.222656 72.984375 55.222656 79.910156 L 55.222656 222.097656 C 55.222656 229.027344 60.882812 234.695312 67.796875 234.695312 L 306.835938 234.695312 C 313.753906 234.695312 319.410156 229.027344 319.410156 222.097656 L 319.410156 79.910156 C 319.410156 72.984375 313.753906 67.3125 306.835938 67.3125 Z M 304.855469 81.894531 L 304.855469 220.113281 L 69.777344 220.113281 L 69.777344 81.894531 L 304.855469 81.894531 " fill-opacity="1" fill-rule="nonzero"/></g></svg>