<svg xmlns="http://www.w3.org/2000/svg" xmlns:xlink="http://www.w3.org/1999/xlink" width="500" zoomAndPan="magnify" viewBox="0 0 375 374.999991" height="500" preserveAspectRatio="xMidYMid meet" version="1.0"><defs><clipPath id="id1"><path d="M 4.023438 4.023438 L 370.773438 4.023438 L 370.773438 370.773438 L 4.023438 370.773438 Z M 4.023438 4.023438 " clip-rule="nonzero"/></clipPath></defs><g clip-path="url(#id1)"><path fill="#1d9bf0" d="M 324.929688 370.773438 L 49.867188 370.773438 C 24.5625 370.773438 4.023438 350.234375 4.023438 324.929688 L 4.023438 49.867188 C 4.023438 24.5625 24.5625 4.023438 49.867188 4.023438 L 324.929688 4.023438 C 350.234375 4.023438 370.773438 24.5625 370.773438 49.867188 L 370.773438 324.929688 C 370.773438 350.234375 350.234375 370.773438 324.929688 370.773438 Z M 324.929688 370.773438 " fill-opacity="1" fill-rule="nonzero"/></g><path fill="#ffffff" d="M 144.855469 280.554688 C 231.316406 280.554688 278.628906 208.851562 278.628906 146.78125 C 278.628906 144.765625 278.628906 142.746094 278.535156 140.730469 C 287.703125 134.128906 295.679688 125.785156 302.007812 116.339844 C 293.574219 120.101562 284.496094 122.574219 274.960938 123.765625 C 284.679688 117.992188 292.105469 108.730469 295.679688 97.726562 C 286.605469 103.136719 276.519531 106.988281 265.792969 109.097656 C 257.171875 99.929688 244.976562 94.242188 231.5 94.242188 C 205.550781 94.242188 184.464844 115.332031 184.464844 141.28125 C 184.464844 144.949219 184.921875 148.523438 185.65625 152.007812 C 146.597656 150.082031 111.941406 131.285156 88.742188 102.863281 C 84.707031 109.832031 82.417969 117.898438 82.417969 126.519531 C 82.417969 142.839844 90.761719 157.234375 103.320312 165.667969 C 95.621094 165.394531 88.375 163.285156 82.050781 159.800781 C 82.050781 159.984375 82.050781 160.167969 82.050781 160.441406 C 82.050781 183.179688 98.277344 202.253906 119.734375 206.5625 C 115.789062 207.660156 111.664062 208.210938 107.355469 208.210938 C 104.328125 208.210938 101.394531 207.9375 98.554688 207.386719 C 104.511719 226.089844 121.933594 239.660156 142.472656 240.027344 C 126.335938 252.679688 106.070312 260.199219 84.066406 260.199219 C 80.308594 260.199219 76.546875 260.015625 72.882812 259.558594 C 93.601562 272.757812 118.359375 280.554688 144.855469 280.554688 " fill-opacity="1" fill-rule="nonzero"/></svg>