<svg xmlns="http://www.w3.org/2000/svg" xmlns:xlink="http://www.w3.org/1999/xlink" width="500" zoomAndPan="magnify" viewBox="0 0 375 374.999991" height="500" preserveAspectRatio="xMidYMid meet" version="1.0"><defs><clipPath id="f186c6aeb6"><path d="M 84.273438 102.824219 L 337.773438 102.824219 L 337.773438 356.324219 L 84.273438 356.324219 Z M 84.273438 102.824219 " clip-rule="nonzero"/></clipPath><clipPath id="a8e7718ee3"><path d="M 14.113281 14.113281 L 360.613281 14.113281 L 360.613281 360.613281 L 14.113281 360.613281 Z M 14.113281 14.113281 " clip-rule="nonzero"/></clipPath></defs><g clip-path="url(#f186c6aeb6)"><path fill="#ffffff" d="M 337.773438 330.972656 C 337.773438 344.972656 326.425781 356.324219 312.425781 356.324219 L 109.625 356.324219 C 95.621094 356.324219 84.273438 344.972656 84.273438 330.972656 L 84.273438 128.171875 C 84.273438 114.171875 95.621094 102.824219 109.625 102.824219 L 312.425781 102.824219 C 326.425781 102.824219 337.773438 114.171875 337.773438 128.171875 Z M 337.773438 330.972656 " fill-opacity="1" fill-rule="nonzero"/></g><g clip-path="url(#a8e7718ee3)"><path fill="#007acc" d="M 14.113281 52.613281 L 14.113281 322.113281 C 14.113281 343.382812 31.339844 360.613281 52.613281 360.613281 L 322.113281 360.613281 C 343.382812 360.613281 360.613281 343.382812 360.613281 322.113281 L 360.613281 52.613281 C 360.613281 31.339844 343.382812 14.113281 322.113281 14.113281 L 52.613281 14.113281 C 31.339844 14.113281 14.113281 31.339844 14.113281 52.613281 Z M 219.433594 196.042969 L 178.660156 196.042969 L 178.660156 322.113281 L 145.800781 322.113281 L 145.800781 196.042969 L 105.878906 196.042969 L 105.878906 168.113281 L 219.433594 168.113281 Z M 225.824219 314.914062 L 225.824219 281.207031 C 225.824219 281.207031 244.226562 295.085938 266.328125 295.085938 C 288.425781 295.085938 287.558594 280.648438 287.558594 278.664062 C 287.558594 257.703125 224.976562 257.703125 224.976562 211.269531 C 224.976562 148.113281 316.164062 173.039062 316.164062 173.039062 L 315.027344 203.050781 C 315.027344 203.050781 299.746094 192.847656 282.457031 192.847656 C 265.191406 192.847656 258.953125 201.070312 258.953125 209.847656 C 258.953125 232.503906 322.113281 230.234375 322.113281 275.835938 C 322.113281 346.058594 225.824219 314.914062 225.824219 314.914062 Z M 225.824219 314.914062 " fill-opacity="1" fill-rule="nonzero"/></g></svg>