<?xml version="1.0" encoding="utf-8"?>
<!-- Generator: Adobe Illustrator 23.0.6, SVG Export Plug-In . SVG Version: 6.00 Build 0)  -->
<svg version="1.1" id="Layer_1" xmlns="http://www.w3.org/2000/svg" xmlns:xlink="http://www.w3.org/1999/xlink" x="0px" y="0px"
	 viewBox="0 0 3000 3000" style="enable-background:new 0 0 3000 3000;" xml:space="preserve">
<style type="text/css">
	.st0{fill-rule:evenodd;clip-rule:evenodd;fill:#FFFFFF;}
	.st1{fill:#FFFFFF;}
</style>
<g>
	<path class="st0" d="M1500,364.79c-625.25,0-1132.27,506.91-1132.27,1132.27c0,500.26,324.43,924.68,774.32,1074.41
		c56.58,10.47,77.36-24.57,77.36-54.47c0-26.99-1.04-116.2-1.54-210.81c-315,68.5-381.47-133.59-381.47-133.59
		c-51.51-130.87-125.72-165.68-125.72-165.68c-102.74-70.27,7.74-68.83,7.74-68.83C832.12,1946.07,892,2054.78,892,2054.78
		c100.98,173.09,264.88,123.05,329.5,94.12c10.16-73.17,39.5-123.14,71.89-151.41c-251.5-28.62-515.88-125.72-515.88-559.57
		c0-123.61,44.24-224.62,116.68-303.92c-11.76-28.53-50.52-143.68,10.97-299.65c0,0,95.08-30.41,311.44,116.08
		c90.33-25.09,187.19-37.67,283.41-38.11c96.22,0.44,193.16,13.02,283.65,38.11c216.12-146.49,311.06-116.08,311.06-116.08
		c61.63,155.97,22.87,271.12,11.11,299.65c72.6,79.29,116.53,180.3,116.53,303.92c0,434.9-264.88,530.64-517.02,558.67
		c40.61,35.14,76.79,104.04,76.79,209.68c0,151.5-1.3,273.43-1.3,310.73c0,30.14,20.38,65.44,77.76,54.33
		c449.65-149.89,773.68-574.16,773.68-1074.26C2632.27,871.7,2125.32,364.79,1500,364.79z"/>
	<path class="st1" d="M796.58,1990.47c-2.49,5.64-11.35,7.32-19.41,3.46c-8.22-3.7-12.82-11.37-10.16-17.01
		c2.43-5.79,11.3-7.4,19.5-3.53C794.73,1977.08,799.42,1984.83,796.58,1990.47L796.58,1990.47z M782.65,1980.14"/>
	<path class="st1" d="M842.45,2041.63c-5.4,5-15.97,2.67-23.13-5.24c-7.42-7.89-8.79-18.46-3.32-23.53c5.57-5,15.8-2.66,23.22,5.24
		C846.64,2026.08,848.09,2036.56,842.45,2041.63L842.45,2041.63z M831.65,2030.04"/>
	<path class="st1" d="M887.09,2106.83c-6.94,4.83-18.29,0.31-25.3-9.76c-6.94-10.07-6.94-22.16,0.16-26.99
		c7.01-4.83,18.2-0.48,25.31,9.5C894.18,2089.82,894.18,2101.91,887.09,2106.83L887.09,2106.83z M887.09,2106.83"/>
	<path class="st1" d="M948.25,2169.84c-6.21,6.85-19.43,5-29.1-4.34c-9.91-9.12-12.65-22.08-6.44-28.93
		c6.3-6.85,19.59-4.93,29.33,4.34C951.87,2150.03,954.86,2163.06,948.25,2169.84L948.25,2169.84z M948.25,2169.84"/>
	<path class="st1" d="M1032.62,2206.42c-2.75,8.86-15.47,12.89-28.29,9.12c-12.82-3.88-21.19-14.26-18.6-23.22
		c2.65-8.94,15.45-13.13,28.36-9.1C1026.89,2187.09,1035.28,2197.4,1032.62,2206.42L1032.62,2206.42z M1032.62,2206.42"/>
	<path class="st1" d="M1125.29,2213.2c0.31,9.34-10.57,17.08-24.02,17.25c-13.53,0.31-24.5-7.25-24.65-16.44
		c0-9.43,10.64-17.08,24.17-17.32C1114.25,2196.43,1125.29,2203.93,1125.29,2213.2L1125.29,2213.2z M1125.29,2213.2"/>
	<path class="st1" d="M1211.52,2198.53c1.61,9.1-7.75,18.46-21.11,20.95c-13.15,2.42-25.31-3.22-26.99-12.25
		c-1.63-9.34,7.89-18.7,21.02-21.11C1197.82,2183.79,1209.82,2189.27,1211.52,2198.53L1211.52,2198.53z M1211.52,2198.53"/>
</g>
</svg>
