<svg xmlns="http://www.w3.org/2000/svg" xmlns:xlink="http://www.w3.org/1999/xlink" width="500" zoomAndPan="magnify" viewBox="0 0 375 374.999991" height="500" preserveAspectRatio="xMidYMid meet" version="1.0"><defs><clipPath id="65d8e725a7"><path d="M 19 20 L 356 20 L 356 357.421875 L 19 357.421875 Z M 19 20 " clip-rule="nonzero"/></clipPath></defs><g clip-path="url(#65d8e725a7)"><path fill="#646269" d="M 230.472656 189.070312 L 346.460938 72.972656 C 358.386719 61.035156 358.386719 41.789062 346.460938 29.851562 C 334.535156 17.910156 315.304688 17.910156 303.375 29.851562 L 187.390625 145.945312 L 71.402344 29.851562 C 59.472656 17.910156 40.242188 17.910156 28.316406 29.851562 C 16.390625 41.789062 16.390625 61.035156 28.316406 72.972656 L 144.304688 189.070312 L 28.316406 305.164062 C 16.390625 317.105469 16.390625 336.351562 28.316406 348.289062 C 34.28125 354.257812 42.070312 357.183594 49.859375 357.183594 C 57.648438 357.183594 65.4375 354.257812 71.402344 348.289062 L 187.390625 232.195312 L 303.375 348.289062 C 309.339844 354.257812 317.128906 357.183594 324.917969 357.183594 C 332.707031 357.183594 340.496094 354.257812 346.460938 348.289062 C 358.386719 336.351562 358.386719 317.105469 346.460938 305.164062 Z M 230.472656 189.070312 " fill-opacity="1" fill-rule="nonzero"/></g></svg>